<?xml version="1.0" encoding="utf-8"?>
<!-- Generator: Adobe Illustrator 24.0.3, SVG Export Plug-In . SVG Version: 6.00 Build 0)  -->
<svg version="1.1" id="图层_1" xmlns="http://www.w3.org/2000/svg" xmlns:xlink="http://www.w3.org/1999/xlink" x="0px" y="0px"
	 viewBox="0 0 128 128" style="enable-background:new 0 0 128 128;" xml:space="preserve">
<style type="text/css">
	.st0{opacity:0.8;fill:url(#SVGID_1_);enable-background:new    ;}
	.st1{opacity:0.2;clip-path:url(#SVGID_3_);fill:url(#SVGID_4_);enable-background:new    ;}
	.st2{fill:#525E6E;}
	.st3{fill:#D0E7EF;}
	.st4{fill:none;}
	.st5{fill:#6D7F96;}
</style>
<linearGradient id="SVGID_1_" gradientUnits="userSpaceOnUse" x1="26.4474" y1="63.7596" x2="102.4831" y2="63.7596" gradientTransform="matrix(1 0 0 -1 0 128)">
	<stop  offset="0" style="stop-color:#878787"/>
	<stop  offset="1" style="stop-color:#F2F2F2"/>
</linearGradient>
<path class="st0" d="M102.48,64.96c-0.4,20.97-17.75,37.63-38.72,37.24c-21.01-0.4-37.7-17.72-37.3-38.67
	c0.39-20.97,17.73-37.64,38.72-37.25S102.87,43.99,102.48,64.96z"/>
<g>
	<g>
		<defs>
			<path id="SVGID_2_" d="M100.78,63.58c-0.38,20.48-17.32,36.76-37.81,36.37c-20.51-0.38-36.83-17.29-36.43-37.78
				c0.37-20.47,17.32-36.77,37.81-36.38S101.17,43.11,100.78,63.58z"/>
		</defs>
		<clipPath id="SVGID_3_">
			<use xlink:href="#SVGID_2_"  style="overflow:visible;"/>
		</clipPath>
		
			<linearGradient id="SVGID_4_" gradientUnits="userSpaceOnUse" x1="-928.8517" y1="1078.3119" x2="-896.8143" y2="1047.0026" gradientTransform="matrix(0.9998 0.0188 0.0187 -0.9998 969.4215 1157.1317)">
			<stop  offset="0" style="stop-color:#878787"/>
			<stop  offset="1" style="stop-color:#F2F2F2"/>
		</linearGradient>
		<polygon class="st1" points="77.37,107.03 47.18,74.64 75.87,47.98 106.06,80.38 		"/>
	</g>
</g>
<path class="st2" d="M100.78,63.58c-0.38,20.48-17.32,36.76-37.81,36.37c-20.51-0.38-36.83-17.29-36.43-37.78
	c0.37-20.47,17.32-36.77,37.81-36.38S101.17,43.11,100.78,63.58z"/>
<g>
	<g>
		<g>
			<g>
				<polygon class="st3" points="100.36,63.33 100.36,63.5 96.95,63.45 96.95,63.29 				"/>
				<path class="st3" d="M100.42,63.58l-0.01-0.34l-3.5-0.03l0.01,0.31L100.42,63.58z M100.31,63.41L97,63.36L100.31,63.41z"/>
			</g>
			<g>
				<polygon class="st3" points="100.03,58.35 100.07,58.52 96.69,58.93 96.66,58.79 				"/>
				<path class="st3" d="M100.12,58.59l-0.04-0.34L96.6,58.7l0.04,0.32L100.12,58.59z M100.01,58.44l-3.3,0.41L100.01,58.44z"/>
			</g>
			<g>
				<polygon class="st3" points="99.09,53.43 99.13,53.59 95.83,54.48 95.79,54.32 				"/>
				<polygon class="st3" points="95.8,54.56 95.74,54.27 99.1,53.34 99.19,53.67 				"/>
			</g>
			<g>
				<polygon class="st3" points="97.41,48.7 97.48,48.87 94.36,50.19 94.29,50.05 				"/>
				<path class="st3" d="M97.56,48.92l-0.14-0.32L94.22,50l0.12,0.29L97.56,48.92z M97.41,48.81l-3.05,1.3L97.41,48.81z"/>
			</g>
			<g>
				<polygon class="st3" points="95.11,44.17 95.28,44.45 89.63,47.85 89.48,47.6 				"/>
			</g>
			<g>
				<polygon class="st3" points="91.94,39.82 92.06,39.95 89.43,42.13 89.32,42.01 				"/>
				<path class="st3" d="M92.16,40l-0.24-0.27l-2.68,2.26l0.21,0.24L92.16,40z M91.96,39.92l-2.55,2.11L91.96,39.92z"/>
			</g>
			<g>
				<polygon class="st3" points="88.47,36.23 88.6,36.35 86.3,38.87 86.18,38.75 				"/>
				<polygon class="st3" points="86.32,38.95 86.09,38.73 88.44,36.14 88.69,36.37 				"/>
			</g>
			<g>
				<polygon class="st3" points="84.54,33.13 84.68,33.23 82.76,36.04 82.62,35.96 				"/>
				<polygon class="st3" points="82.79,36.13 82.53,35.96 84.48,33.06 84.78,33.24 				"/>
			</g>
			<g>
				<polygon class="st3" points="80.17,30.64 80.35,30.71 78.84,33.76 78.7,33.7 				"/>
				<polygon class="st3" points="78.88,33.85 78.61,33.7 80.13,30.55 80.46,30.72 				"/>
			</g>
			<g>
				<polygon class="st3" points="75.5,28.66 75.82,28.77 73.71,35.01 73.47,34.92 				"/>
			</g>
			<g>
				<polygon class="st3" points="70.24,27.46 70.42,27.49 69.85,30.85 69.7,30.82 				"/>
				<path class="st3" d="M70.51,27.46l-0.34-0.07l-0.55,3.45l0.31,0.05L70.51,27.46z M70.33,27.52l-0.55,3.27l0,0L70.33,27.52z"/>
			</g>
			<g>
				<polygon class="st3" points="65.26,26.96 65.44,26.98 65.34,30.38 65.18,30.36 				"/>
				<path class="st3" d="M65.54,26.93l-0.37-0.02l-0.08,3.49l0.33,0.03L65.54,26.93z M65.36,27.02l-0.1,3.31l0,0L65.36,27.02z"/>
			</g>
			<g>
				<polygon class="st3" points="60.28,27.21 60.45,27.17 60.8,30.56 60.67,30.59 				"/>
				<polygon class="st3" points="60.9,30.6 60.58,30.64 60.18,27.16 60.53,27.13 				"/>
			</g>
			<g>
				<polygon class="st3" points="55.34,28.12 55.51,28.08 56.36,31.37 56.2,31.39 				"/>
				<path class="st3" d="M55.58,28l-0.33,0.09l0.88,3.38l0.3-0.07L55.58,28z M55.44,28.13l0.82,3.22L55.44,28.13z"/>
			</g>
			<g>
				<polygon class="st3" points="50.49,29.68 50.79,29.54 53.28,35.64 53.03,35.75 				"/>
			</g>
			<g>
				<polygon class="st3" points="45.71,32.16 45.87,32.08 47.62,35 47.49,35.08 				"/>
				<polygon class="st3" points="47.71,35.01 47.45,35.16 45.63,32.16 45.92,31.99 				"/>
			</g>
			<g>
				<polygon class="st3" points="41.62,35.03 41.76,34.93 43.89,37.58 43.78,37.67 				"/>
				<path class="st3" d="M41.79,34.83l-0.26,0.23l2.22,2.7l0.23-0.2L41.79,34.83z M41.72,35.02l2.09,2.57L41.72,35.02z"/>
			</g>
			<g>
				<polygon class="st3" points="37.98,38.46 38.1,38.35 40.6,40.66 40.48,40.79 				"/>
				<path class="st3" d="M38.13,38.24l-0.24,0.26l2.57,2.37l0.22-0.22L38.13,38.24z M38.09,38.44l2.41,2.25L38.09,38.44z"/>
			</g>
			<g>
				<polygon class="st3" points="34.82,42.34 34.92,42.19 37.7,44.16 37.61,44.3 				"/>
				<path class="st3" d="M37.79,44.13l-0.19,0.25l-2.88-2c0,0,0.19-0.29,0.2-0.29L37.79,44.13z"/>
			</g>
			<g>
				<polygon class="st3" points="32.2,46.7 32.34,46.4 38.21,49.42 38.08,49.66 				"/>
			</g>
			<g>
				<path class="st3" d="M30.14,51.68l0.05-0.17l3.23,1.07c-0.01,0.01-0.05,0.15-0.05,0.15L30.14,51.68z"/>
				<path class="st3" d="M33.51,52.53c-0.01,0.01-0.1,0.3-0.1,0.3l-3.33-1.08l0.11-0.33L33.51,52.53z"/>
			</g>
			<g>
				<polygon class="st3" points="28.95,56.54 28.98,56.37 32.33,56.99 32.3,57.14 				"/>
				<path class="st3" d="M28.95,56.28l-0.07,0.34l3.45,0.6l0.06-0.31L28.95,56.28z M29,56.47l3.26,0.59L29,56.47z"/>
			</g>
			<g>
				<polygon class="st3" points="28.4,61.51 28.41,61.34 31.81,61.48 31.8,61.64 				"/>
				<polygon class="st3" points="31.87,61.41 31.85,61.72 28.35,61.59 28.37,61.25 				"/>
			</g>
			<g>
				<polygon class="st3" points="28.55,66.48 28.52,66.32 31.91,66 31.93,66.15 				"/>
				<polygon class="st3" points="31.94,65.91 31.99,66.23 28.51,66.57 28.47,66.24 				"/>
			</g>
			<g>
				<polygon class="st3" points="29.38,71.52 29.3,71.18 35.72,69.68 35.79,69.94 				"/>
			</g>
			<g>
				<polygon class="st3" points="31.08,76.62 31,76.47 34.16,75.18 34.22,75.32 				"/>
				<path class="st3" d="M30.93,76.41l0.14,0.32l3.24-1.34l-0.13-0.29L30.93,76.41z M31.09,76.53l3.06-1.25L31.09,76.53z"/>
			</g>
			<g>
				<polygon class="st3" points="33.33,81.09 33.24,80.94 36.19,79.23 36.26,79.37 				"/>
				<path class="st3" d="M33.16,80.89l0.18,0.3l3.02-1.78l-0.17-0.28L33.16,80.89z M33.34,81l2.85-1.66h-0.01L33.34,81z"/>
			</g>
			<g>
				<polygon class="st3" points="36.14,85.24 36.03,85.1 38.72,83 38.79,83.13 				"/>
				<path class="st3" d="M35.94,85.06c0,0,0.2,0.28,0.21,0.27l2.75-2.18c-0.02,0-0.2-0.24-0.2-0.24L35.94,85.06z M36.12,85.15
					l2.6-2.05L36.12,85.15z"/>
			</g>
			<g>
				<polygon class="st3" points="39.53,88.9 39.4,88.79 41.76,86.34 41.89,86.45 				"/>
				<path class="st3" d="M39.31,88.76L39.56,89l2.41-2.53l-0.22-0.21L39.31,88.76z M39.5,88.82l2.3-2.39L39.5,88.82z"/>
			</g>
			<g>
				<polygon class="st3" points="43.41,92.2 43.14,91.99 47.02,86.67 47.24,86.85 				"/>
			</g>
			<g>
				<polygon class="st3" points="48.05,94.94 47.89,94.86 49.45,91.83 49.59,91.91 				"/>
				<path class="st3" d="M47.8,94.86l0.31,0.15l1.57-3.11l-0.26-0.14L47.8,94.86z M47.97,94.85l1.52-2.94L47.97,94.85z"/>
			</g>
			<g>
				<polygon class="st3" points="52.65,96.91 52.5,96.85 53.61,93.63 53.76,93.69 				"/>
				<polygon class="st3" points="53.55,93.56 53.85,93.67 52.72,96.99 52.39,96.87 				"/>
			</g>
			<g>
				<polygon class="st3" points="57.49,98.19 57.33,98.15 57.99,94.81 58.15,94.84 				"/>
				<path class="st3" d="M57.23,98.19l0.34,0.07l0.65-3.45l-0.31-0.06L57.23,98.19z M57.42,98.12l0.64-3.25l0,0L57.42,98.12z"/>
			</g>
			<g>
				<polygon class="st3" points="62.46,98.8 62.29,98.77 62.48,95.38 62.64,95.38 				"/>
				<path class="st3" d="M62.21,98.81l0.35,0.02l0.17-3.49l-0.32-0.02L62.21,98.81z M62.38,98.73l0.19-3.29l0,0L62.38,98.73z"/>
			</g>
			<g>
				<path class="st3" d="M67.55,98.76c0,0-0.33,0.05-0.34,0.03l-0.51-6.56c0.01,0.01,0.27-0.03,0.27-0.03L67.55,98.76z"/>
			</g>
			<g>
				<polygon class="st3" points="72.85,97.83 72.68,97.87 71.9,94.55 72.05,94.52 				"/>
				<polygon class="st3" points="71.82,94.53 72.11,94.46 72.96,97.85 72.61,97.93 				"/>
			</g>
			<g>
				<polygon class="st3" points="77.65,96.34 77.49,96.39 76.23,93.23 76.38,93.18 				"/>
				<path class="st3" d="M77.42,96.48l0.33-0.13l-1.32-3.24l-0.29,0.1L77.42,96.48z M77.53,96.32l-1.21-3.06L77.53,96.32z"/>
			</g>
			<g>
				<polygon class="st3" points="82.15,94.14 82.01,94.24 80.32,91.26 80.46,91.18 				"/>
				<path class="st3" d="M81.94,94.32l0.29-0.18l-1.73-3.02l-0.26,0.14L81.94,94.32z M82.05,94.15l-1.64-2.88L82.05,94.15z"/>
			</g>
			<g>
				<polygon class="st3" points="86.31,91.39 86.18,91.49 84.12,88.79 84.23,88.7 				"/>
				<polygon class="st3" points="84.01,88.79 84.29,88.62 86.42,91.39 86.14,91.59 				"/>
			</g>
			<g>
				<polygon class="st3" points="90.14,88.04 89.91,88.27 85.24,83.63 85.42,83.44 				"/>
			</g>
			<g>
				<polygon class="st3" points="93.58,83.91 93.48,84.04 90.72,82.03 90.82,81.91 				"/>
				<path class="st3" d="M93.46,84.14l0.21-0.28l-2.85-2.04l-0.2,0.24L93.46,84.14z M93.48,83.95l-2.68-1.95L93.48,83.95z"/>
			</g>
			<g>
				<polygon class="st3" points="96.2,79.64 96.12,79.79 93.12,78.2 93.19,78.06 				"/>
				<polygon class="st3" points="93.04,78.24 93.18,77.96 96.29,79.58 96.14,79.9 				"/>
			</g>
			<g>
				<polygon class="st3" points="98.23,75.06 98.16,75.22 94.97,74.05 95.02,73.91 				"/>
				<polygon class="st3" points="94.91,74.11 95.02,73.82 98.31,75 98.19,75.32 				"/>
			</g>
			<g>
				<polygon class="st3" points="99.59,70.25 99.57,70.42 96.23,69.7 96.26,69.56 				"/>
				<polygon class="st3" points="96.17,69.77 96.22,69.47 99.66,70.17 99.59,70.5 				"/>
			</g>
			<g>
				<polygon class="st3" points="100.29,65.21 100.28,65.55 93.71,65.07 93.71,64.79 				"/>
			</g>
		</g>
		<g>
			<path class="st3" d="M90.74,64.77v-0.29c-0.11-0.1-0.23-0.23-0.34-0.42c-0.11-0.19-0.21-0.42-0.28-0.66l-0.34-0.01
				c0.03,0.14,0.08,0.29,0.15,0.46c0.07,0.18,0.14,0.33,0.2,0.43l-2.22-0.11l-0.02,0.42L90.74,64.77z"/>
		</g>
		<g>
			<path class="st3" d="M81.55,79.55c0.02,0.08,0.02,0.16,0,0.26c0,0.1-0.03,0.29-0.07,0.6c-0.05,0.37-0.12,0.63-0.12,0.81
				c-0.02,0.17-0.01,0.33,0.02,0.43c0.02,0.12,0.08,0.24,0.15,0.31c0.13,0.17,0.34,0.24,0.61,0.21c0.24-0.03,0.54-0.13,0.77-0.4
				c0.23-0.25,0.37-0.51,0.43-0.76c0.02-0.24-0.05-0.46-0.2-0.67l-0.35,0.3c0.13,0.11,0.18,0.26,0.17,0.42
				c-0.02,0.18-0.11,0.34-0.24,0.5c-0.15,0.15-0.3,0.23-0.47,0.24c-0.15,0.01-0.29-0.03-0.37-0.13c-0.08-0.1-0.13-0.24-0.12-0.43
				c0.01-0.19,0.03-0.52,0.11-0.98c0.05-0.29,0.07-0.51,0.07-0.68c0-0.18-0.03-0.33-0.09-0.46c-0.02-0.07-0.07-0.14-0.14-0.2
				c0,0-0.37,0.39-0.74,0.79c-0.19,0.21-0.4,0.38-0.55,0.52c-0.17,0.13-0.27,0.22-0.27,0.22l0.24,0.25c0,0,0.31-0.27,0.6-0.55
				C81.27,79.85,81.55,79.55,81.55,79.55z"/>
		</g>
		<g>
			<path class="st3" d="M66.77,86.55c-0.2-0.12-0.44-0.15-0.74-0.15c-0.32,0-0.59,0.1-0.79,0.28c-0.2,0.19-0.3,0.39-0.29,0.64
				c0,0.18,0.07,0.33,0.16,0.44c0.13,0.13,0.3,0.2,0.51,0.24c-0.15,0.04-0.29,0.13-0.35,0.24c-0.07,0.11-0.11,0.21-0.12,0.33
				c0.01,0.11,0.06,0.24,0.15,0.36c0.09,0.11,0.22,0.2,0.39,0.25c0.17,0.07,0.36,0.09,0.56,0.09c0.3,0.01,0.54-0.1,0.71-0.26
				c0.19-0.14,0.29-0.34,0.31-0.58h-0.44c-0.02,0.18-0.08,0.32-0.2,0.42c-0.1,0.11-0.24,0.14-0.42,0.15c-0.18,0-0.32-0.03-0.43-0.11
				c-0.12-0.08-0.18-0.18-0.18-0.3c-0.02-0.17,0.06-0.3,0.2-0.37c0.15-0.09,0.31-0.15,0.5-0.13c0,0,0.04-0.01,0.07-0.01l0.03-0.29
				c-0.12,0.03-0.23,0.04-0.3,0.04c-0.2,0-0.37-0.05-0.51-0.15c-0.12-0.09-0.2-0.23-0.2-0.38c0-0.16,0.05-0.31,0.19-0.42
				c0.13-0.12,0.29-0.18,0.48-0.18c0.16,0,0.3,0.05,0.42,0.11c0.14,0.07,0.22,0.2,0.29,0.38l0.41-0.1
				C67.12,86.85,66.98,86.66,66.77,86.55z"/>
		</g>
		<g>
			<path class="st3" d="M50.04,81.58l-0.43,0.53l-0.36-0.28l-0.19,0.25l0.35,0.29l-1.11,1.45l0.3,0.23c0,0,0.59-0.1,1.19-0.23
				c0.6-0.17,1.17-0.34,1.17-0.34l0.19-0.27c0,0-0.31-0.2-0.63-0.38c-0.17-0.11-0.3-0.23-0.41-0.31c-0.11-0.07-0.18-0.14-0.18-0.14
				l0.4-0.55L50.04,81.58z M50.63,83.25c0,0-0.41,0.13-0.82,0.22c-0.4,0.1-0.81,0.18-0.81,0.18l0.77-1.03c0,0,0.2,0.18,0.42,0.33
				C50.39,83.11,50.63,83.25,50.63,83.25z"/>
		</g>
		<g>
			<path class="st3" d="M41.39,69.05c0.09-0.22,0.11-0.49,0.03-0.77c-0.08-0.35-0.27-0.6-0.53-0.77c-0.24-0.15-0.48-0.18-0.72-0.14
				c-0.29,0.04-0.47,0.2-0.59,0.42c-0.11,0.24-0.14,0.51-0.06,0.81c0.06,0.22,0.16,0.43,0.33,0.61h-0.78l-0.34-1.42l-0.33,0.07
				l0.42,1.78l1.49-0.03l-0.05-0.42c-0.09-0.04-0.16-0.1-0.25-0.2c-0.07-0.1-0.13-0.21-0.15-0.34c-0.06-0.22-0.02-0.42,0.03-0.57
				c0.08-0.15,0.23-0.24,0.42-0.29c0.2-0.03,0.39-0.01,0.55,0.11c0.15,0.11,0.25,0.24,0.3,0.43c0.03,0.16,0.02,0.32-0.02,0.45
				c-0.07,0.15-0.19,0.24-0.34,0.32l0.12,0.42C41.12,69.44,41.29,69.27,41.39,69.05z"/>
		</g>
		<g>
			<path class="st3" d="M41.37,50.18c-0.2,0.11-0.34,0.29-0.48,0.55c-0.18,0.35-0.22,0.68-0.12,0.97c0.1,0.33,0.41,0.62,0.9,0.84
				c0.45,0.21,0.83,0.25,1.11,0.15c0.29-0.11,0.51-0.29,0.67-0.6c0.09-0.16,0.13-0.34,0.11-0.53c0.01-0.18-0.04-0.33-0.13-0.5
				c-0.08-0.15-0.2-0.27-0.34-0.36c-0.24-0.13-0.51-0.17-0.73-0.06c-0.24,0.09-0.42,0.26-0.55,0.52c-0.07,0.15-0.12,0.3-0.14,0.47
				c-0.01,0.16,0.01,0.32,0.08,0.46c-0.25-0.13-0.42-0.25-0.53-0.38c-0.11-0.15-0.15-0.29-0.16-0.46c0-0.13,0.02-0.25,0.09-0.38
				c0.07-0.16,0.18-0.26,0.33-0.33c0.09-0.05,0.19-0.04,0.33-0.01c0,0,0.16-0.41,0.19-0.4C41.76,50.05,41.56,50.07,41.37,50.18z
				 M41.95,51.9c-0.04-0.16-0.02-0.35,0.07-0.52c0.09-0.18,0.2-0.31,0.36-0.36c0.16-0.05,0.33-0.03,0.5,0.06
				c0.18,0.08,0.29,0.24,0.34,0.4c0.04,0.17,0.03,0.33-0.05,0.48c-0.05,0.11-0.13,0.2-0.24,0.25c-0.09,0.08-0.21,0.11-0.33,0.13
				c-0.13,0.01-0.24-0.02-0.35-0.07C42.09,52.2,41.99,52.08,41.95,51.9z"/>
		</g>
		<g>
			<path class="st3" d="M54.97,38.59c-0.15,0.27-0.24,0.57-0.31,0.93c-0.07,0.35-0.08,0.69-0.06,1.02c0.04,0.33,0.1,0.6,0.2,0.8
				l0.37-0.16c-0.08-0.28-0.14-0.54-0.16-0.8c-0.01-0.35,0.01-0.74,0.11-1.11c0.1-0.35,0.21-0.67,0.38-0.93l-0.11-0.25
				c0,0-0.13,0.05-0.35,0.11c-0.21,0.08-0.49,0.16-0.77,0.29c-0.54,0.25-1.08,0.51-1.08,0.51l0.15,0.29c0,0,0.4-0.17,0.81-0.36
				c0.2-0.11,0.4-0.2,0.56-0.26C54.87,38.63,54.97,38.59,54.97,38.59z"/>
		</g>
		<g>
			<path class="st3" d="M71.2,39c-0.13,0.1-0.24,0.23-0.29,0.41c-0.07,0.23-0.02,0.46,0.13,0.68c0.15,0.21,0.37,0.35,0.68,0.43
				c0.31,0.11,0.57,0.14,0.82,0.06c0.24-0.08,0.41-0.23,0.49-0.46c0.07-0.16,0.08-0.32,0.02-0.48c-0.07-0.16-0.19-0.3-0.37-0.43
				c0.19,0.01,0.32-0.02,0.43-0.08c0.12-0.06,0.2-0.15,0.25-0.27c0.07-0.19,0.02-0.38-0.1-0.59c-0.13-0.2-0.35-0.38-0.65-0.48
				c-0.33-0.08-0.59-0.1-0.81,0c-0.23,0.08-0.36,0.23-0.42,0.42c-0.03,0.15-0.02,0.26,0.03,0.38c0.06,0.11,0.16,0.21,0.33,0.32
				C71.53,38.88,71.34,38.92,71.2,39z M71.64,39.19c0.15-0.07,0.33-0.08,0.54-0.02c0.2,0.06,0.33,0.19,0.42,0.33
				c0.09,0.15,0.11,0.31,0.05,0.46c-0.04,0.16-0.16,0.25-0.33,0.32c-0.15,0.06-0.31,0.03-0.5-0.02c-0.11-0.04-0.22-0.09-0.33-0.16
				c-0.1-0.08-0.14-0.18-0.16-0.27c-0.03-0.1-0.03-0.21,0-0.29C71.38,39.38,71.47,39.26,71.64,39.19z M72.09,38.06
				c0.13-0.04,0.29-0.05,0.45-0.01c0.17,0.05,0.29,0.15,0.35,0.27c0.07,0.13,0.11,0.25,0.06,0.37c-0.05,0.12-0.12,0.2-0.25,0.24
				c-0.13,0.04-0.27,0.02-0.42-0.02c-0.18-0.05-0.29-0.13-0.38-0.24c-0.08-0.11-0.09-0.22-0.06-0.35
				C71.89,38.2,71.96,38.11,72.09,38.06z"/>
		</g>
		<g>
			<path class="st3" d="M84.37,50.2c-0.04,0.2,0.03,0.42,0.14,0.64c0.13,0.22,0.29,0.37,0.48,0.46c0.18,0.11,0.41,0.15,0.63,0.11
				c0.24-0.02,0.52-0.11,0.83-0.29c0.32-0.16,0.52-0.33,0.64-0.5c0.11-0.18,0.15-0.37,0.13-0.59c-0.02-0.22-0.07-0.45-0.19-0.64
				c-0.19-0.29-0.39-0.49-0.64-0.58c-0.24-0.1-0.52-0.06-0.77,0.11c-0.23,0.15-0.33,0.35-0.39,0.62c-0.05,0.26,0.01,0.51,0.15,0.76
				c0.09,0.15,0.19,0.27,0.34,0.37c0.13,0.09,0.26,0.15,0.41,0.17c-0.03,0.02-0.06,0.02-0.06,0.02c-0.14,0.08-0.26,0.12-0.41,0.16
				c-0.14,0.02-0.27,0.04-0.37,0.02c-0.11-0.02-0.2-0.05-0.29-0.1c-0.1-0.07-0.17-0.15-0.23-0.26c-0.07-0.13-0.11-0.24-0.09-0.37
				c0.02-0.11,0.08-0.24,0.18-0.35l-0.22-0.32C84.48,49.82,84.39,49.99,84.37,50.2z M86.09,50.58c-0.15-0.05-0.29-0.16-0.39-0.33
				c-0.11-0.16-0.14-0.34-0.11-0.51c0.02-0.18,0.12-0.32,0.29-0.41c0.16-0.11,0.33-0.13,0.51-0.08c0.19,0.07,0.31,0.18,0.42,0.37
				c0.1,0.15,0.13,0.33,0.09,0.51c-0.03,0.17-0.14,0.32-0.31,0.4C86.42,50.62,86.25,50.64,86.09,50.58z"/>
		</g>
	</g>
</g>
<path class="st4" d="M100.78,63.58c-0.38,20.48-17.32,36.76-37.81,36.37c-20.51-0.38-36.83-17.29-36.43-37.78
	c0.37-20.47,17.32-36.77,37.81-36.38S101.17,43.11,100.78,63.58z"/>
<path class="st5" d="M85.57,62.53c-0.22,12.04-10.18,21.61-22.24,21.39c-12.06-0.24-21.64-10.17-21.41-22.21
	c0.24-12.05,10.18-21.63,22.24-21.39C76.2,40.55,85.8,50.49,85.57,62.53z"/>
</svg>
