<?xml version="1.0" encoding="utf-8"?>
<!-- Generator: Adobe Illustrator 24.0.3, SVG Export Plug-In . SVG Version: 6.00 Build 0)  -->
<svg version="1.1" id="图层_1" xmlns="http://www.w3.org/2000/svg" xmlns:xlink="http://www.w3.org/1999/xlink" x="0px" y="0px"
	 viewBox="0 0 128 128" style="enable-background:new 0 0 128 128;" xml:space="preserve">
<style type="text/css">
	.st0{opacity:0.8;fill:url(#SVGID_1_);enable-background:new    ;}
	.st1{opacity:0.2;clip-path:url(#SVGID_3_);fill:url(#SVGID_4_);enable-background:new    ;}
	.st2{fill:#525E6E;}
	.st3{fill:#D0E7EF;}
	.st4{fill:none;}
	.st5{fill:#6D7F96;}
</style>
<linearGradient id="SVGID_1_" gradientUnits="userSpaceOnUse" x1="27.453" y1="65.24" x2="103.4867" y2="65.24">
	<stop  offset="0" style="stop-color:#878787"/>
	<stop  offset="1" style="stop-color:#F2F2F2"/>
</linearGradient>
<path class="st0" d="M103.5,66c-0.4,21-17.8,37.6-38.7,37.2c-21-0.4-37.7-17.7-37.3-38.7c0.4-21,17.7-37.6,38.7-37.2
	S103.9,45,103.5,66z"/>
<g>
	<g>
		<g>
			<defs>
				<path id="SVGID_2_" d="M101.8,64.6c-0.4,20.5-17.3,36.8-37.8,36.4c-20.5-0.4-36.8-17.3-36.4-37.8c0.4-20.5,17.3-36.8,37.8-36.4
					S102.2,44.1,101.8,64.6z"/>
			</defs>
			<clipPath id="SVGID_3_">
				<use xlink:href="#SVGID_2_"  style="overflow:visible;"/>
			</clipPath>
			
				<linearGradient id="SVGID_4_" gradientUnits="userSpaceOnUse" x1="-927.8343" y1="-949.3297" x2="-895.7969" y2="-918.0203" gradientTransform="matrix(0.9998 1.880000e-02 -1.870000e-02 0.9998 971.8151 1029.1573)">
				<stop  offset="0" style="stop-color:#878787"/>
				<stop  offset="1" style="stop-color:#F2F2F2"/>
			</linearGradient>
			<polygon class="st1" points="78.4,108 48.2,75.6 76.9,49 107.1,81.4 			"/>
		</g>
	</g>
</g>
<path class="st2" d="M101.8,64.6c-0.4,20.5-17.3,36.8-37.8,36.4c-20.5-0.4-36.8-17.3-36.4-37.8c0.4-20.5,17.3-36.8,37.8-36.4
	S102.2,44.1,101.8,64.6z"/>
<g>
	<g>
		<g>
			<g>
				<polygon class="st3" points="101.4,64.3 101.4,64.5 97.9,64.4 97.9,64.3 				"/>
				<path class="st3" d="M101.4,64.6l0-0.3l-3.5,0l0,0.3L101.4,64.6z M101.3,64.4L98,64.4L101.3,64.4z"/>
			</g>
			<g>
				<polygon class="st3" points="101,59.3 101.1,59.5 97.7,59.9 97.7,59.8 				"/>
				<path class="st3" d="M101.1,59.6l0-0.3l-3.5,0.5l0,0.3L101.1,59.6z M101,59.4l-3.3,0.4L101,59.4z"/>
			</g>
			<g>
				<polygon class="st3" points="100.1,54.4 100.1,54.6 96.8,55.5 96.8,55.3 				"/>
				<polygon class="st3" points="96.8,55.6 96.7,55.3 100.1,54.3 100.2,54.7 				"/>
			</g>
			<g>
				<polygon class="st3" points="98.4,49.7 98.5,49.9 95.4,51.2 95.3,51 				"/>
				<path class="st3" d="M98.6,49.9l-0.1-0.3L95.2,51l0.1,0.3L98.6,49.9z M98.4,49.8l-3.1,1.3L98.4,49.8z"/>
			</g>
			<g>
				<polygon class="st3" points="96.1,45.2 96.3,45.5 90.6,48.8 90.5,48.6 				"/>
			</g>
			<g>
				<polygon class="st3" points="92.9,40.8 93.1,41 90.4,43.1 90.3,43 				"/>
				<path class="st3" d="M93.2,41l-0.2-0.3L90.2,43l0.2,0.2L93.2,41z M93,40.9L90.4,43L93,40.9z"/>
			</g>
			<g>
				<polygon class="st3" points="89.5,37.2 89.6,37.3 87.3,39.9 87.2,39.8 				"/>
				<polygon class="st3" points="87.3,40 87.1,39.7 89.4,37.1 89.7,37.4 				"/>
			</g>
			<g>
				<polygon class="st3" points="85.5,34.1 85.7,34.2 83.8,37 83.6,37 				"/>
				<polygon class="st3" points="83.8,37.1 83.5,37 85.5,34.1 85.8,34.2 				"/>
			</g>
			<g>
				<polygon class="st3" points="81.2,31.6 81.3,31.7 79.8,34.8 79.7,34.7 				"/>
				<polygon class="st3" points="79.9,34.8 79.6,34.7 81.1,31.5 81.5,31.7 				"/>
			</g>
			<g>
				<polygon class="st3" points="76.5,29.7 76.8,29.8 74.7,36 74.5,35.9 				"/>
			</g>
			<g>
				<polygon class="st3" points="71.2,28.5 71.4,28.5 70.8,31.9 70.7,31.8 				"/>
				<path class="st3" d="M71.5,28.5l-0.3-0.1l-0.6,3.5l0.3,0L71.5,28.5z M71.3,28.5l-0.6,3.3l0,0L71.3,28.5z"/>
			</g>
			<g>
				<polygon class="st3" points="66.3,28 66.4,28 66.3,31.4 66.2,31.4 				"/>
				<path class="st3" d="M66.5,27.9l-0.4,0l-0.1,3.5l0.3,0L66.5,27.9z M66.4,28l-0.1,3.3l0,0L66.4,28z"/>
			</g>
			<g>
				<polygon class="st3" points="61.3,28.2 61.5,28.2 61.8,31.6 61.7,31.6 				"/>
				<polygon class="st3" points="61.9,31.6 61.6,31.6 61.2,28.2 61.5,28.1 				"/>
			</g>
			<g>
				<polygon class="st3" points="56.3,29.1 56.5,29.1 57.4,32.4 57.2,32.4 				"/>
				<path class="st3" d="M56.6,29l-0.3,0.1l0.9,3.4l0.3-0.1L56.6,29z M56.4,29.1l0.8,3.2L56.4,29.1z"/>
			</g>
			<g>
				<polygon class="st3" points="51.5,30.7 51.8,30.5 54.3,36.6 54,36.8 				"/>
			</g>
			<g>
				<polygon class="st3" points="46.7,33.2 46.9,33.1 48.6,36 48.5,36.1 				"/>
				<polygon class="st3" points="48.7,36 48.5,36.2 46.6,33.2 46.9,33 				"/>
			</g>
			<g>
				<polygon class="st3" points="42.6,36 42.8,35.9 44.9,38.6 44.8,38.7 				"/>
				<path class="st3" d="M42.8,35.8l-0.3,0.2l2.2,2.7l0.2-0.2L42.8,35.8z M42.7,36l2.1,2.6L42.7,36z"/>
			</g>
			<g>
				<polygon class="st3" points="39,39.5 39.1,39.3 41.6,41.7 41.5,41.8 				"/>
				<path class="st3" d="M39.1,39.2l-0.2,0.3l2.6,2.4l0.2-0.2L39.1,39.2z M39.1,39.4l2.4,2.2L39.1,39.4z"/>
			</g>
			<g>
				<polygon class="st3" points="35.8,43.3 35.9,43.2 38.7,45.2 38.6,45.3 				"/>
				<path class="st3" d="M38.8,45.1l-0.2,0.2l-2.9-2c0,0,0.2-0.3,0.2-0.3L38.8,45.1z"/>
			</g>
			<g>
				<polygon class="st3" points="33.2,47.7 33.3,47.4 39.2,50.4 39.1,50.7 				"/>
			</g>
			<g>
				<path class="st3" d="M31.1,52.7l0-0.2l3.2,1.1c0,0,0,0.2,0,0.2L31.1,52.7z"/>
				<path class="st3" d="M34.5,53.5c0,0-0.1,0.3-0.1,0.3l-3.3-1.1l0.1-0.3L34.5,53.5z"/>
			</g>
			<g>
				<polygon class="st3" points="30,57.5 30,57.4 33.3,58 33.3,58.1 				"/>
				<path class="st3" d="M30,57.3l-0.1,0.3l3.5,0.6l0.1-0.3L30,57.3z M30,57.5l3.3,0.6L30,57.5z"/>
			</g>
			<g>
				<polygon class="st3" points="29.4,62.5 29.4,62.3 32.8,62.5 32.8,62.6 				"/>
				<polygon class="st3" points="32.9,62.4 32.8,62.7 29.4,62.6 29.4,62.2 				"/>
			</g>
			<g>
				<polygon class="st3" points="29.5,67.5 29.5,67.3 32.9,67 32.9,67.2 				"/>
				<polygon class="st3" points="32.9,66.9 33,67.2 29.5,67.6 29.5,67.2 				"/>
			</g>
			<g>
				<polygon class="st3" points="30.4,72.5 30.3,72.2 36.7,70.7 36.8,70.9 				"/>
			</g>
			<g>
				<polygon class="st3" points="32.1,77.6 32,77.5 35.2,76.2 35.2,76.3 				"/>
				<path class="st3" d="M31.9,77.4l0.1,0.3l3.2-1.3l-0.1-0.3L31.9,77.4z M32.1,77.5l3.1-1.2L32.1,77.5z"/>
			</g>
			<g>
				<polygon class="st3" points="34.3,82.1 34.2,81.9 37.2,80.2 37.3,80.4 				"/>
				<path class="st3" d="M34.2,81.9l0.2,0.3l3-1.8l-0.2-0.3L34.2,81.9z M34.3,82l2.8-1.7h0L34.3,82z"/>
			</g>
			<g>
				<polygon class="st3" points="37.1,86.2 37,86.1 39.7,84 39.8,84.1 				"/>
				<path class="st3" d="M36.9,86.1c0,0,0.2,0.3,0.2,0.3l2.8-2.2c0,0-0.2-0.2-0.2-0.2L36.9,86.1z M37.1,86.2l2.6-2.1L37.1,86.2z"/>
			</g>
			<g>
				<polygon class="st3" points="40.5,89.9 40.4,89.8 42.8,87.3 42.9,87.4 				"/>
				<path class="st3" d="M40.3,89.8l0.2,0.2l2.4-2.5l-0.2-0.2L40.3,89.8z M40.5,89.8l2.3-2.4L40.5,89.8z"/>
			</g>
			<g>
				<polygon class="st3" points="44.4,93.2 44.1,93 48,87.7 48.2,87.8 				"/>
			</g>
			<g>
				<polygon class="st3" points="49,95.9 48.9,95.9 50.5,92.8 50.6,92.9 				"/>
				<path class="st3" d="M48.8,95.9l0.3,0.2l1.6-3.1l-0.3-0.1L48.8,95.9z M49,95.8l1.5-2.9L49,95.8z"/>
			</g>
			<g>
				<polygon class="st3" points="53.7,97.9 53.5,97.8 54.6,94.6 54.8,94.7 				"/>
				<polygon class="st3" points="54.5,94.6 54.8,94.7 53.7,98 53.4,97.9 				"/>
			</g>
			<g>
				<polygon class="st3" points="58.5,99.2 58.3,99.2 59,95.8 59.2,95.8 				"/>
				<path class="st3" d="M58.2,99.2l0.3,0.1l0.7-3.4l-0.3-0.1L58.2,99.2z M58.4,99.1l0.6-3.2l0,0L58.4,99.1z"/>
			</g>
			<g>
				<polygon class="st3" points="63.5,99.8 63.3,99.8 63.5,96.4 63.6,96.4 				"/>
				<path class="st3" d="M63.2,99.8l0.3,0l0.2-3.5l-0.3,0L63.2,99.8z M63.4,99.7l0.2-3.3l0,0L63.4,99.7z"/>
			</g>
			<g>
				<path class="st3" d="M68.6,99.8c0,0-0.3,0.1-0.3,0l-0.5-6.6c0,0,0.3,0,0.3,0L68.6,99.8z"/>
			</g>
			<g>
				<polygon class="st3" points="73.8,98.8 73.7,98.9 72.9,95.6 73.1,95.5 				"/>
				<polygon class="st3" points="72.8,95.5 73.1,95.5 74,98.8 73.6,98.9 				"/>
			</g>
			<g>
				<polygon class="st3" points="78.7,97.3 78.5,97.4 77.2,94.2 77.4,94.2 				"/>
				<path class="st3" d="M78.4,97.5l0.3-0.1l-1.3-3.2l-0.3,0.1L78.4,97.5z M78.5,97.3l-1.2-3.1L78.5,97.3z"/>
			</g>
			<g>
				<polygon class="st3" points="83.2,95.1 83,95.2 81.3,92.3 81.5,92.2 				"/>
				<path class="st3" d="M82.9,95.3l0.3-0.2l-1.7-3l-0.3,0.1L82.9,95.3z M83.1,95.2l-1.6-2.9L83.1,95.2z"/>
			</g>
			<g>
				<polygon class="st3" points="87.3,92.4 87.2,92.5 85.1,89.8 85.2,89.7 				"/>
				<polygon class="st3" points="85,89.8 85.3,89.6 87.4,92.4 87.1,92.6 				"/>
			</g>
			<g>
				<polygon class="st3" points="91.1,89 90.9,89.3 86.2,84.6 86.4,84.4 				"/>
			</g>
			<g>
				<polygon class="st3" points="94.6,84.9 94.5,85 91.7,83 91.8,82.9 				"/>
				<path class="st3" d="M94.5,85.1l0.2-0.3l-2.8-2l-0.2,0.2L94.5,85.1z M94.5,84.9L91.8,83L94.5,84.9z"/>
			</g>
			<g>
				<polygon class="st3" points="97.2,80.6 97.1,80.8 94.1,79.2 94.2,79.1 				"/>
				<polygon class="st3" points="94,79.2 94.2,79 97.3,80.6 97.1,80.9 				"/>
			</g>
			<g>
				<polygon class="st3" points="99.2,76.1 99.2,76.2 96,75.1 96,74.9 				"/>
				<polygon class="st3" points="95.9,75.1 96,74.8 99.3,76 99.2,76.3 				"/>
			</g>
			<g>
				<polygon class="st3" points="100.6,71.2 100.6,71.4 97.2,70.7 97.3,70.6 				"/>
				<polygon class="st3" points="97.2,70.8 97.2,70.5 100.7,71.2 100.6,71.5 				"/>
			</g>
			<g>
				<polygon class="st3" points="101.3,66.2 101.3,66.6 94.7,66.1 94.7,65.8 				"/>
			</g>
		</g>
		<g>
			<path class="st3" d="M91.7,65.8v-0.3c-0.1-0.1-0.2-0.2-0.3-0.4c-0.1-0.2-0.2-0.4-0.3-0.7l-0.3,0c0,0.1,0.1,0.3,0.2,0.5
				c0.1,0.2,0.1,0.3,0.2,0.4l-2.2-0.1l0,0.4L91.7,65.8z"/>
		</g>
		<g>
			<path class="st3" d="M82.6,80.6c0,0.1,0,0.2,0,0.3c0,0.1,0,0.3-0.1,0.6c-0.1,0.4-0.1,0.6-0.1,0.8c0,0.2,0,0.3,0,0.4
				c0,0.1,0.1,0.2,0.2,0.3c0.1,0.2,0.3,0.2,0.6,0.2c0.2,0,0.5-0.1,0.8-0.4c0.2-0.2,0.4-0.5,0.4-0.8c0-0.2-0.1-0.5-0.2-0.7l-0.3,0.3
				c0.1,0.1,0.2,0.3,0.2,0.4c0,0.2-0.1,0.3-0.2,0.5c-0.2,0.2-0.3,0.2-0.5,0.2c-0.2,0-0.3,0-0.4-0.1s-0.1-0.2-0.1-0.4
				c0-0.2,0-0.5,0.1-1c0.1-0.3,0.1-0.5,0.1-0.7c0-0.2,0-0.3-0.1-0.5c0-0.1-0.1-0.1-0.1-0.2c0,0-0.4,0.4-0.7,0.8
				c-0.2,0.2-0.4,0.4-0.6,0.5c-0.2,0.1-0.3,0.2-0.3,0.2l0.2,0.2c0,0,0.3-0.3,0.6-0.6C82.3,80.8,82.6,80.6,82.6,80.6z"/>
		</g>
		<g>
			<path class="st3" d="M67.8,87.6c-0.2-0.1-0.4-0.2-0.7-0.2c-0.3,0-0.6,0.1-0.8,0.3c-0.2,0.2-0.3,0.4-0.3,0.6
				c0,0.2,0.1,0.3,0.2,0.4c0.1,0.1,0.3,0.2,0.5,0.2c-0.2,0-0.3,0.1-0.3,0.2c-0.1,0.1-0.1,0.2-0.1,0.3c0,0.1,0.1,0.2,0.2,0.4
				c0.1,0.1,0.2,0.2,0.4,0.2c0.2,0.1,0.4,0.1,0.6,0.1c0.3,0,0.5-0.1,0.7-0.3c0.2-0.1,0.3-0.3,0.3-0.6h-0.4c0,0.2-0.1,0.3-0.2,0.4
				C67.5,90,67.4,90,67.2,90c-0.2,0-0.3,0-0.4-0.1c-0.1-0.1-0.2-0.2-0.2-0.3c0-0.2,0.1-0.3,0.2-0.4c0.2-0.1,0.3-0.2,0.5-0.1
				c0,0,0,0,0.1,0l0-0.3c-0.1,0-0.2,0-0.3,0c-0.2,0-0.4-0.1-0.5-0.2c-0.1-0.1-0.2-0.2-0.2-0.4c0-0.2,0.1-0.3,0.2-0.4
				c0.1-0.1,0.3-0.2,0.5-0.2c0.2,0,0.3,0.1,0.4,0.1c0.1,0.1,0.2,0.2,0.3,0.4l0.4-0.1C68.1,87.8,68,87.7,67.8,87.6z"/>
		</g>
		<g>
			<path class="st3" d="M51,82.6l-0.4,0.5l-0.4-0.3l-0.2,0.2l0.3,0.3l-1.1,1.4l0.3,0.2c0,0,0.6-0.1,1.2-0.2c0.6-0.2,1.2-0.3,1.2-0.3
				l0.2-0.3c0,0-0.3-0.2-0.6-0.4c-0.2-0.1-0.3-0.2-0.4-0.3c-0.1-0.1-0.2-0.1-0.2-0.1l0.4-0.6L51,82.6z M51.6,84.2
				c0,0-0.4,0.1-0.8,0.2c-0.4,0.1-0.8,0.2-0.8,0.2l0.8-1c0,0,0.2,0.2,0.4,0.3C51.4,84.1,51.6,84.2,51.6,84.2z"/>
		</g>
		<g>
			<path class="st3" d="M42.4,70.1c0.1-0.2,0.1-0.5,0-0.8c-0.1-0.3-0.3-0.6-0.5-0.8c-0.2-0.2-0.5-0.2-0.7-0.1
				c-0.3,0-0.5,0.2-0.6,0.4c-0.1,0.2-0.1,0.5-0.1,0.8c0.1,0.2,0.2,0.4,0.3,0.6h-0.8l-0.3-1.4l-0.3,0.1l0.4,1.8l1.5,0l0-0.4
				c-0.1,0-0.2-0.1-0.2-0.2c-0.1-0.1-0.1-0.2-0.2-0.3c-0.1-0.2,0-0.4,0-0.6c0.1-0.2,0.2-0.2,0.4-0.3c0.2,0,0.4,0,0.5,0.1
				c0.2,0.1,0.2,0.2,0.3,0.4c0,0.2,0,0.3,0,0.4c-0.1,0.2-0.2,0.2-0.3,0.3l0.1,0.4C42.1,70.4,42.3,70.3,42.4,70.1z"/>
		</g>
		<g>
			<path class="st3" d="M42.4,51.2c-0.2,0.1-0.3,0.3-0.5,0.5c-0.2,0.3-0.2,0.7-0.1,1c0.1,0.3,0.4,0.6,0.9,0.8
				c0.5,0.2,0.8,0.2,1.1,0.2c0.3-0.1,0.5-0.3,0.7-0.6c0.1-0.2,0.1-0.3,0.1-0.5c0-0.2,0-0.3-0.1-0.5c-0.1-0.2-0.2-0.3-0.3-0.4
				c-0.2-0.1-0.5-0.2-0.7-0.1c-0.2,0.1-0.4,0.3-0.5,0.5c-0.1,0.2-0.1,0.3-0.1,0.5c0,0.2,0,0.3,0.1,0.5c-0.2-0.1-0.4-0.2-0.5-0.4
				c-0.1-0.2-0.2-0.3-0.2-0.5c0-0.1,0-0.2,0.1-0.4c0.1-0.2,0.2-0.3,0.3-0.3c0.1,0,0.2,0,0.3,0c0,0,0.2-0.4,0.2-0.4
				C42.8,51,42.6,51.1,42.4,51.2z M43,52.9c0-0.2,0-0.3,0.1-0.5c0.1-0.2,0.2-0.3,0.4-0.4s0.3,0,0.5,0.1c0.2,0.1,0.3,0.2,0.3,0.4
				c0,0.2,0,0.3,0,0.5c0,0.1-0.1,0.2-0.2,0.2c-0.1,0.1-0.2,0.1-0.3,0.1c-0.1,0-0.2,0-0.3-0.1C43.1,53.2,43,53.1,43,52.9z"/>
		</g>
		<g>
			<path class="st3" d="M56,39.6c-0.2,0.3-0.2,0.6-0.3,0.9c-0.1,0.3-0.1,0.7-0.1,1c0,0.3,0.1,0.6,0.2,0.8l0.4-0.2
				c-0.1-0.3-0.1-0.5-0.2-0.8c0-0.3,0-0.7,0.1-1.1c0.1-0.3,0.2-0.7,0.4-0.9l-0.1-0.2c0,0-0.1,0-0.3,0.1c-0.2,0.1-0.5,0.2-0.8,0.3
				c-0.5,0.2-1.1,0.5-1.1,0.5l0.2,0.3c0,0,0.4-0.2,0.8-0.4c0.2-0.1,0.4-0.2,0.6-0.3C55.9,39.6,56,39.6,56,39.6z"/>
		</g>
		<g>
			<path class="st3" d="M72.2,40c-0.1,0.1-0.2,0.2-0.3,0.4c-0.1,0.2,0,0.5,0.1,0.7c0.2,0.2,0.4,0.3,0.7,0.4c0.3,0.1,0.6,0.1,0.8,0.1
				c0.2-0.1,0.4-0.2,0.5-0.5c0.1-0.2,0.1-0.3,0-0.5c-0.1-0.2-0.2-0.3-0.4-0.4c0.2,0,0.3,0,0.4-0.1c0.1-0.1,0.2-0.2,0.2-0.3
				c0.1-0.2,0-0.4-0.1-0.6c-0.1-0.2-0.3-0.4-0.7-0.5c-0.3-0.1-0.6-0.1-0.8,0c-0.2,0.1-0.4,0.2-0.4,0.4c0,0.2,0,0.3,0,0.4
				c0.1,0.1,0.2,0.2,0.3,0.3C72.5,39.9,72.3,39.9,72.2,40z M72.6,40.2c0.2-0.1,0.3-0.1,0.5,0c0.2,0.1,0.3,0.2,0.4,0.3
				c0.1,0.2,0.1,0.3,0.1,0.5c0,0.2-0.2,0.2-0.3,0.3c-0.2,0.1-0.3,0-0.5,0c-0.1,0-0.2-0.1-0.3-0.2c-0.1-0.1-0.1-0.2-0.2-0.3
				c0-0.1,0-0.2,0-0.3C72.4,40.4,72.5,40.3,72.6,40.2z M73.1,39.1c0.1,0,0.3,0,0.4,0c0.2,0,0.3,0.2,0.3,0.3c0.1,0.1,0.1,0.2,0.1,0.4
				s-0.1,0.2-0.2,0.2s-0.3,0-0.4,0c-0.2,0-0.3-0.1-0.4-0.2c-0.1-0.1-0.1-0.2-0.1-0.3C72.9,39.2,73,39.1,73.1,39.1z"/>
		</g>
		<g>
			<path class="st3" d="M85.4,51.2c0,0.2,0,0.4,0.1,0.6c0.1,0.2,0.3,0.4,0.5,0.5c0.2,0.1,0.4,0.2,0.6,0.1c0.2,0,0.5-0.1,0.8-0.3
				c0.3-0.2,0.5-0.3,0.6-0.5c0.1-0.2,0.2-0.4,0.1-0.6c0-0.2-0.1-0.5-0.2-0.6c-0.2-0.3-0.4-0.5-0.6-0.6c-0.2-0.1-0.5-0.1-0.8,0.1
				c-0.2,0.2-0.3,0.3-0.4,0.6c-0.1,0.3,0,0.5,0.2,0.8c0.1,0.2,0.2,0.3,0.3,0.4c0.1,0.1,0.3,0.2,0.4,0.2c0,0-0.1,0-0.1,0
				c-0.1,0.1-0.3,0.1-0.4,0.2c-0.1,0-0.3,0-0.4,0c-0.1,0-0.2,0-0.3-0.1c-0.1-0.1-0.2-0.2-0.2-0.3c-0.1-0.1-0.1-0.2-0.1-0.4
				c0-0.1,0.1-0.2,0.2-0.3l-0.2-0.3C85.5,50.8,85.4,51,85.4,51.2z M87.1,51.6c-0.2,0-0.3-0.2-0.4-0.3c-0.1-0.2-0.1-0.3-0.1-0.5
				c0-0.2,0.1-0.3,0.3-0.4c0.2-0.1,0.3-0.1,0.5-0.1c0.2,0.1,0.3,0.2,0.4,0.4c0.1,0.2,0.1,0.3,0.1,0.5c0,0.2-0.1,0.3-0.3,0.4
				C87.4,51.6,87.2,51.6,87.1,51.6z"/>
		</g>
	</g>
</g>
<path class="st4" d="M101.8,64.6c-0.4,20.5-17.3,36.8-37.8,36.4c-20.5-0.4-36.8-17.3-36.4-37.8c0.4-20.5,17.3-36.8,37.8-36.4
	S102.2,44.1,101.8,64.6z"/>
<path class="st5" d="M86.6,63.5c-0.2,12-10.2,21.6-22.2,21.4c-12.1-0.2-21.6-10.2-21.4-22.2c0.2-12,10.2-21.6,22.2-21.4
	C77.2,41.5,86.8,51.5,86.6,63.5z"/>
</svg>
