<?xml version="1.0" encoding="utf-8"?>
<!-- Generator: Adobe Illustrator 24.0.3, SVG Export Plug-In . SVG Version: 6.00 Build 0)  -->
<svg version="1.1" id="图层_1" xmlns="http://www.w3.org/2000/svg" xmlns:xlink="http://www.w3.org/1999/xlink" x="0px" y="0px"
	 viewBox="0 0 128 128" style="enable-background:new 0 0 128 128;" xml:space="preserve">
<style type="text/css">
	.st0{fill:#DFB285;}
	.st1{fill:#F0C599;}
	.st2{fill:#D0E7EF;}
	.st3{fill:#BACFD6;}
	.st4{fill:#F7D470;}
	.st5{fill:#D6B345;}
	.st6{fill:#6E472F;}
	.st7{fill:#4F3322;}
	.st8{fill:#DE991B;}
	.st9{fill:#CECBC0;}
	.st10{fill:#F0DFCE;}
	.st11{fill:#CFA57B;}
	.st12{fill:#BA8165;}
	.st13{fill:#BF976F;}
	.st14{fill:#BBB7BD;}
	.st15{fill:#353847;}
	.st16{fill:#8F5E3E;}
	.st17{fill:#464D57;}
	.st18{fill:#F0E9D8;}
	.st19{fill:#5C3B28;}
	.st20{fill:#40291B;}
	.st21{fill:#825438;}
	.st22{fill:#FF7057;}
	.st23{fill:#DE543C;}
	.st24{fill:#A14838;}
	.st25{fill:#D4CAC5;}
	.st26{fill:#FEF377;}
	.st27{fill:none;}
</style>
<g>
	<rect x="72.3" y="256.7" class="st0" width="17.4" height="51.5"/>
	<rect x="38.4" y="256.7" class="st1" width="17.4" height="51.5"/>
	<g>
		<path class="st2" d="M64.1,77.7h15.1l-0.1-21.5c-2.6,3.3-8.3,5.7-15.1,5.7V77.7z"/>
		<path class="st3" d="M49,56.2v21.5h15.1V61.9C57.3,61.9,51.5,59.6,49,56.2z"/>
	</g>
	<g>
		<path class="st2" d="M42,80.7c0,7.2-5.3,13-11.9,13s-11.9-5.8-11.9-13s5.3-13,11.9-13S42,73.5,42,80.7z"/>
		<polygon class="st2" points="18.3,82 18.3,112.7 34.1,112.7 34.1,91.5 		"/>
		<rect x="31.8" y="90.6" class="st3" width="2.3" height="22.2"/>
	</g>
	<g>
		<polygon class="st4" points="34.1,169.2 34.1,196.1 34.1,256.7 60.2,256.7 60.2,196.1 64.1,196.1 64.1,169.2 		"/>
		<polygon class="st5" points="64.1,169.2 64.1,196.1 67.9,196.1 67.9,256.7 94.1,256.7 94.1,196.1 94.1,169.2 		"/>
		<g>
			<polygon class="st6" points="56.2,196.1 60.2,199 60.2,196.1 			"/>
		</g>
		<g>
			<polygon class="st7" points="71.9,196.1 67.9,199 67.9,196.1 			"/>
		</g>
	</g>
	<rect x="34.1" y="169.2" class="st8" width="30" height="3.6"/>
	<rect x="64.1" y="169.2" class="st8" width="30" height="3.6"/>
	<g>
		<polygon class="st0" points="81.5,63.5 64.1,89.3 64.1,89.3 64.1,64.2 64.1,39.1 72.8,40.3 72.8,52.4 79.2,56.2 		"/>
	</g>
	<g>
		<polygon class="st1" points="64.1,64.2 64.1,89.3 64.1,89.3 46.7,63.5 49,56.2 55.4,52.7 55.4,40.3 64.1,39.1 64.1,50.2 		"/>
	</g>
	<g>
		<path class="st3" d="M86.1,80.7c0,7.2,5.3,13,11.9,13s11.9-5.8,11.9-13s-5.3-13-11.9-13S86.1,73.5,86.1,80.7z"/>
		<polygon class="st3" points="109.9,82 109.9,112.7 94.1,112.7 94.1,91.5 		"/>
		<rect x="94.1" y="90.6" class="st9" width="2.3" height="22.2"/>
		<g>
			<path class="st2" d="M46.7,57.5L24.5,69.2l5.6,13l4-2.1v11.4v77.7h30V73.5C55.3,73.5,48.1,66.6,46.7,57.5z"/>
			<path class="st3" d="M64.1,73.5v-3c0,0-13.2,0-15.1-14.3l-2.3,1.2C48.1,66.6,55.3,73.5,64.1,73.5z"/>
			<path class="st3" d="M81.5,57.5c-1.4,9.1-8.7,16-17.4,16v95.7h30V91.5V80.1l4,2.1l5.6-13L81.5,57.5z"/>
			<path class="st3" d="M64.1,70.5v3c8.8,0,16-6.9,17.4-16l-2.3-1.2C77.2,70.5,64.1,70.5,64.1,70.5z"/>
		</g>
	</g>
	<path class="st10" d="M55.3,39.9l9.5-1.2l0,11.2c-4,0-7.2-1.9-9.5-4.8C55.3,45,55.3,39.9,55.3,39.9z"/>
	<path class="st10" d="M74.3,39.9v5.2c-2.3,2.9-5.4,4.8-9.5,4.8h0V38.7L74.3,39.9z"/>
	<g>
		<g>
			<g>
				<g>
					<path class="st1" d="M64.8,7.8l0,40.1c-7.8,0.2-12.2-7.3-13.9-15.1c0,0,0,0,0,0c-0.2-0.7-0.3-1.4-0.4-2.1
						c-0.3-1.9-0.5-3.7-0.5-5.5c0-1.9,0.2-3.7,0.6-5.3c0.2-0.8,0.4-1.5,0.6-2.3c0.2-0.6,0.4-1.1,0.7-1.6C54.2,11,58.5,7.8,64.8,7.8z
						"/>
				</g>
			</g>
			<g>
				<g>
					<path class="st0" d="M79.6,25.2c0,1.7-0.1,3.4-0.4,5.2c-0.1,0.7-0.2,1.4-0.4,2.1c-0.2,0.8-0.4,1.7-0.6,2.5
						c-0.1,0.1-0.1,0.3-0.1,0.4C77.6,37,77,38.6,76.2,40c-2.4,4.6-6.2,8-11.4,7.8l0-40.1c2.4,0,4.5,0.5,6.3,1.3
						c3,1.4,5.2,3.8,6.6,6.9c0,0,0,0.1,0.1,0.1c0.3,0.6,0.5,1.2,0.8,1.9v0c0,0,0,0.1,0.1,0.2c0.2,0.5,0.3,1.1,0.4,1.6
						c0.1,0.6,0.2,1.1,0.3,1.7C79.5,22.7,79.6,23.9,79.6,25.2z"/>
				</g>
			</g>
		</g>
		<g>
			<path class="st11" d="M64.8,2C42.3,2,50.5,30.6,50.5,30.6c-0.7-3.1-0.4-4.6,0.7-7c1.6-3,4.6-3.5,4.6-3.5c4.2-0.9,7.1-2.2,9.1-3.7
				V8.5l0,0V2z"/>
			<path class="st12" d="M64.8,2v6.5h0v7.9c4.6-3.3,4.5-7.1,4.5-7.1l0,0c0,0,1.9,4.6,7.4,11c0,0,2.8,3.2,2.6,8c0,0.6,0,1.2,0,1.9
				C79.2,30.1,87.3,2,64.8,2z"/>
		</g>
	</g>
	<g>
		<g>
			<polygon class="st0" points="106.6,112.7 106.6,177.1 94.1,177.1 94.1,112.7 			"/>
			<rect x="94.1" y="112.7" class="st13" width="2.3" height="65.4"/>
		</g>
		<g>
			<path class="st0" d="M107.3,177c-1.2-3.2-4.2-5.6-7.1-5.6c-3.1,0-5.5,2-5.8,4.6c0,0-0.6,2.4-0.2,5c0,0,0.1,1.6,1.6,1.6
				c0,0,1.6,0,1.6-1.5c0,0,0-2.9,2.3-3.6c0.1,0,0.3-0.1,0.5-0.1c0.5,0,1.7,0.8,2,1.9c0.5,1.4,0.3,3.6-0.1,4.5l-1.6,3.2
				c-0.7,1.4-0.2,3.2,1.1,4c0.4,0.2,0.8,0.4,1.3,0.4c1,0,1.9-0.6,2.4-1.5l1.6-3.2C108.1,184,108.3,179.9,107.3,177z"/>
		</g>
	</g>
	<g>
		<g>
			<polygon class="st1" points="21.7,112.7 21.7,177.1 34.2,177.1 34.2,112.7 			"/>
			<rect x="31.9" y="112.7" class="st0" width="2.3" height="65.4"/>
		</g>
		<g>
			<path class="st1" d="M20.9,177c1.1-3.2,4.2-5.6,7.1-5.6c3,0,5.5,2,5.8,4.6c0,0,0.6,2.4,0.2,5c0,0-0.1,1.6-1.6,1.6
				c0,0-1.6,0-1.6-1.5c0,0,0-2.9-2.3-3.6c-0.1,0-0.3-0.1-0.5-0.1c-0.5,0-1.7,0.8-2,1.9c-0.5,1.4-0.3,3.6,0.1,4.5l1.6,3.2
				c0.7,1.4,0.2,3.2-1.1,4c-0.4,0.2-0.9,0.4-1.3,0.4c-1,0-1.9-0.6-2.4-1.5l-1.6-3.2C20.1,184,19.9,179.9,20.9,177z"/>
		</g>
	</g>
	<path class="st14" d="M78.3,105.8V55.7l-3.1-1.8v51h-1.8c-0.2,0-0.3,0.2-0.3,0.3v0.4v0h-1.8c-0.6,0-1.3-0.5-1.5-1.1l-0.4-0.9
		c-0.2-0.6-0.9-1.1-1.5-1.1H67v-1.1h1.1c0.8,0,1.5-0.7,1.6-1.5l0.7-4.8c0.1-0.4-0.1-0.9-0.3-1.2s-0.6-0.5-1-0.5h-9.7
		c-0.4,0-0.8,0.2-1,0.5s-0.3,0.8-0.3,1.2l0.8,4.8c0.1,0.8,0.8,1.5,1.6,1.5h1.3v1.1h-1c-0.6,0-1.3,0.5-1.5,1.1l-0.3,0.9
		c-0.2,0.6-0.9,1.1-1.5,1.1h-2h-0.1v-53l-3,1.8v51.3c-0.4,0.2-0.7,0.6-0.7,1.1v1.3v13.1c0,0.7,0.5,1.2,1.1,1.2h2.8h22.4
		c0.6,0,1.1-0.5,1.1-1.2v-14.4C78.9,106.4,78.7,106,78.3,105.8z"/>
	<g>
		<polygon class="st15" points="54.2,107.4 51.2,107.4 51.2,55 54.2,53.3 		"/>
		<polygon class="st15" points="74.2,107.4 77.3,107.4 77.3,55.1 74.2,53.3 		"/>
		<g>
			<path class="st16" d="M75.2,104.6c0,0.2-0.2,0.3-0.3,0.3h-2.6c-0.2,0-0.3-0.2-0.3-0.3v-0.4c0-0.2,0.2-0.3,0.3-0.3h2.6
				c0.2,0,0.3,0.2,0.3,0.3V104.6z"/>
			<path class="st17" d="M77.8,120.2c0,0.7-0.5,1.2-1.1,1.2H51.5c-0.6,0-1.1-0.5-1.1-1.2v-14.4c0-0.7,0.5-1.2,1.1-1.2h4.8
				c0.6,0,1.3-0.5,1.5-1.1l0.3-0.9c0.2-0.6,0.9-1.1,1.5-1.1h7.3c0.6,0,1.3,0.5,1.5,1.1l0.4,0.9c0.2,0.6,0.9,1.1,1.5,1.1h6.6
				c0.6,0,1.1,0.5,1.1,1.2L77.8,120.2L77.8,120.2z"/>
			<path class="st17" d="M54.3,104.6h-2.8c-0.6,0-1.1,0.5-1.1,1.2v14.4c0,0.7,0.5,1.2,1.1,1.2h2.8V104.6z"/>
			<path class="st16" d="M50.4,105.8v1.3h3.9v-2.5h-2.8C50.9,104.6,50.4,105.1,50.4,105.8z"/>
			<g>
				<path class="st15" d="M70.4,112.1c0,4.4-3.3,8.1-7.4,8.1s-7.4-3.6-7.4-8.1s3.3-8.1,7.4-8.1C67.1,104.1,70.4,107.7,70.4,112.1z"
					/>
			</g>
			<g>
				<path class="st17" d="M63.1,119.2c-3.6,0-6.5-3.2-6.5-7.1c0-3.9,2.9-7.1,6.5-7.1c3.6,0,6.5,3.2,6.5,7.1S66.7,119.2,63.1,119.2z
					 M63.1,106.2c-3,0-5.5,2.7-5.5,6s2.5,6,5.5,6c3,0,5.5-2.7,5.5-6S66.1,106.2,63.1,106.2z"/>
			</g>
			<rect x="60.5" y="98.3" class="st17" width="5.4" height="5.1"/>
			<g>
				<path class="st18" d="M68.7,94c0.1-0.5-0.3-1-0.8-1h-9.7c-0.5,0-0.8,0.4-0.7,1l0.8,4.8c0.1,0.5,0.6,1,1,1h7.8c0.5,0,0.9-0.4,1-1
					L68.7,94z"/>
				<g>
					<path class="st17" d="M67.1,100.4h-7.8c-0.8,0-1.5-0.7-1.6-1.5l-0.8-4.8c-0.1-0.4,0-0.9,0.3-1.2s0.6-0.5,1-0.5h9.7
						c0.4,0,0.8,0.2,1,0.5c0.3,0.3,0.4,0.8,0.3,1.2l-0.7,4.8C68.5,99.7,67.8,100.4,67.1,100.4z M58.2,93.6c-0.1,0-0.1,0-0.2,0.1
						c0,0.1,0,0.1,0,0.2l0.8,4.8c0,0.2,0.3,0.4,0.5,0.4H67c0.2,0,0.4-0.2,0.4-0.4l0.7-4.8c0-0.1,0-0.1-0.1-0.2s-0.1-0.1-0.2-0.1
						H58.2z"/>
				</g>
			</g>
			<path class="st17" d="M63.1,108.2c-2,0-3.6,1.8-3.6,3.9s1.6,3.9,3.6,3.9s3.6-1.8,3.6-3.9C66.7,109.9,65.1,108.2,63.1,108.2z"/>
			<g>
				<g>
					<path class="st3" d="M66.3,113.4c0.7-1.9-0.2-4.1-2-4.8l-2.3,7C63.7,116.3,65.6,115.3,66.3,113.4z"/>
				</g>
				<g>
					<path class="st3" d="M61.9,115.6l2.3-7c-1.8-0.7-3.7,0.3-4.4,2.2C59.3,112.8,60.2,114.9,61.9,115.6z"/>
				</g>
			</g>
		</g>
	</g>
	<rect x="53.4" y="256.7" class="st0" width="2.5" height="49.5"/>
	<rect x="87.2" y="256.7" class="st13" width="2.5" height="49.5"/>
	<rect x="67.1" y="250.5" class="st5" width="27.8" height="6.2"/>
	<rect x="67.9" y="249.9" class="st7" width="26.1" height="0.6"/>
	<rect x="33.2" y="250.5" class="st4" width="27.8" height="6.2"/>
	<rect x="34.1" y="249.9" class="st6" width="26.1" height="0.6"/>
	<polygon class="st7" points="86.7,228.5 86.7,245.5 94.1,245.5 94.1,233.7 94.1,228.5 	"/>
	<g>
		<rect x="87.2" y="227.5" class="st19" width="6.8" height="17.4"/>
		<polygon class="st20" points="94.1,233.5 89.9,233.5 87.2,227.5 94.1,227.5 		"/>
		<polygon class="st21" points="94.1,233.1 90.2,233.1 87.2,227.5 94.1,227.5 		"/>
		<path class="st0" d="M91.4,232c0,0.3-0.2,0.5-0.5,0.5c-0.3,0-0.5-0.2-0.5-0.5c0-0.3,0.2-0.5,0.5-0.5
			C91.2,231.5,91.4,231.7,91.4,232z"/>
	</g>
	<g>
		<g>
			<path class="st6" d="M27.9,177.1c-1.6,0-3,0.4-3,2.2v11.4c0,1.8,1.3,3.2,3,3.2h0L27.9,177.1L27.9,177.1L27.9,177.1z"/>
			<path class="st7" d="M28.1,177.1H28V194h0.1c1.6,0,3-1.4,3-3.2v-11.4C31.1,177.5,29.8,177.1,28.1,177.1z"/>
		</g>
		<g>
			<path class="st22" d="M23.6,188.8c-0.5,0-0.9,0.4-0.9,1v0.6c0,0.6,0.4,1,0.9,1H28v-2.6L23.6,188.8L23.6,188.8z"/>
			<path class="st22" d="M32.3,188.8H28v2.6h4.3c0.5,0,0.9-0.4,0.9-1v-0.6C33.2,189.3,32.8,188.8,32.3,188.8z"/>
		</g>
		<g>
			<path class="st22" d="M17.2,193.9v72.3c0,1.3,0.7,2.5,1.6,3.1v-78.6C17.9,191.5,17.2,192.6,17.2,193.9z"/>
			<path class="st22" d="M37.1,190.7v78.7c1-0.7,1.7-1.8,1.7-3.2v-72.3C38.8,192.6,38.1,191.4,37.1,190.7z"/>
			<path class="st23" d="M35.3,190.1H20.7c-0.7,0-1.3,0.3-1.9,0.7v78.6c0.5,0.4,1.2,0.7,1.9,0.7h14.6c0.7,0,1.2-0.3,1.8-0.6v-78.7
				C36.6,190.4,36,190.1,35.3,190.1z"/>
		</g>
		<g>
			<path class="st24" d="M24.7,190.1v0.1c0,1-0.8,1.9-1.7,1.9h-2.9c-0.5,0-1.2,0.8-1.2,1.9v3c0,1.1-0.8,1.9-1.7,1.9v-5
				c0-2.1,1.5-3.8,3.5-3.8L24.7,190.1L24.7,190.1z"/>
		</g>
		<g>
			<path class="st24" d="M31.3,190.1v0.1c0,1,0.8,1.9,1.7,1.9h2.9c0.5,0,1.2,0.8,1.2,1.9v3c0,1.1,0.8,1.9,1.7,1.9v-5
				c0-2.1-1.5-3.8-3.5-3.8L31.3,190.1L31.3,190.1z"/>
		</g>
		<g>
			<path class="st24" d="M31.3,270.2v-0.1c0-1,0.8-1.9,1.7-1.9h2.9c0.5,0,1.2-0.8,1.2-1.9v-3c0-1,0.8-1.9,1.7-1.9v5
				c0,2.1-1.5,3.8-3.5,3.8L31.3,270.2L31.3,270.2z"/>
		</g>
		<g>
			<path class="st24" d="M24.7,270.2v-0.1c0-1-0.8-1.9-1.7-1.9h-2.9c-0.5,0-1.2-0.8-1.2-1.9v-3c0-1-0.8-1.9-1.7-1.9v5
				c0,2.1,1.5,3.8,3.5,3.8L24.7,270.2L24.7,270.2z"/>
		</g>
		<g>
			<polygon class="st25" points="37.1,208.1 18.8,208.1 17.2,208.1 17.2,211.3 18.8,211.3 37.1,211.3 38.8,211.3 38.8,208.1 			"/>
			<polygon class="st25" points="18.8,250 17.2,250 17.2,253.3 18.8,253.3 37.1,253.3 38.8,253.3 38.8,250 37.1,250 			"/>
		</g>
		<g>
			<rect x="18.8" y="207.6" class="st3" width="18.3" height="3.3"/>
			<rect x="37.1" y="207.6" class="st26" width="1.7" height="3.3"/>
			<rect x="17.2" y="207.6" class="st26" width="1.6" height="3.3"/>
		</g>
		<g>
			<rect x="18.8" y="249.6" class="st3" width="18.3" height="3.3"/>
			<rect x="37.1" y="249.6" class="st26" width="1.7" height="3.3"/>
			<rect x="17.2" y="249.6" class="st26" width="1.6" height="3.3"/>
		</g>
	</g>
	<g>
		<polygon class="st0" points="70,309 70,305.6 72.5,303.3 75.8,302.3 84.8,302.3 88.8,302.7 91.9,306.1 91.9,309.8 79.9,311.2 		
			"/>
		<g>
			<path class="st27" d="M87.5,304h-13c-2.1,0-3.7,1.8-3.7,4.1h20.4C91.2,305.9,89.5,304,87.5,304z"/>
			<path class="st15" d="M74.5,304h13c2.1,0,3.7,1.8,3.7,4.1h1.7c0-3.3-2.4-5.9-5.4-5.9h-13c-3,0-5.4,2.6-5.4,5.9h1.7
				C70.8,305.9,72.5,304,74.5,304z"/>
			<polygon class="st15" points="91.2,308.1 70.8,308.1 69.1,308.1 69.1,313.2 71.8,313.2 90.2,313.2 92.9,313.2 92.9,308.1 			"/>
		</g>
	</g>
	<g>
		<polygon class="st1" points="36.1,309 36.1,305.6 38.6,303.3 41.9,302.3 51,302.3 54.9,302.7 58,306.1 58,309.8 46,311.2 		"/>
		<g>
			<path class="st27" d="M53.6,304h-13c-2.1,0-3.7,1.8-3.7,4.1h20.4C57.4,305.9,55.7,304,53.6,304z"/>
			<path class="st17" d="M40.7,304h13c2.1,0,3.7,1.8,3.7,4.1H59c0-3.3-2.4-5.9-5.4-5.9h-13c-3,0-5.4,2.6-5.4,5.9h1.7
				C36.9,305.9,38.6,304,40.7,304z"/>
			<polygon class="st17" points="57.4,308.1 36.9,308.1 35.2,308.1 35.2,313.2 38,313.2 56.3,313.2 59,313.2 59,308.1 			"/>
		</g>
	</g>
</g>
</svg>
