<?xml version="1.0" encoding="utf-8"?>
<!-- Generator: Adobe Illustrator 24.0.3, SVG Export Plug-In . SVG Version: 6.00 Build 0)  -->
<svg version="1.1" id="图层_1" xmlns="http://www.w3.org/2000/svg" xmlns:xlink="http://www.w3.org/1999/xlink" x="0px" y="0px"
	 viewBox="0 0 128 128" style="enable-background:new 0 0 128 128;" xml:space="preserve">
<style type="text/css">
	.st0{fill:#DFB285;}
	.st1{fill:#F0C599;}
	.st2{fill:#D0E7EF;}
	.st3{fill:#BACFD6;}
	.st4{fill:#F7D470;}
	.st5{fill:#D6B345;}
	.st6{fill:#6E472F;}
	.st7{fill:#4F3322;}
	.st8{fill:#DE991B;}
	.st9{fill:#CECBC0;}
	.st10{fill:#F0DFCE;}
	.st11{fill:#CFA57B;}
	.st12{fill:#BA8165;}
	.st13{fill:#BF976F;}
	.st14{fill:#BBB7BD;}
	.st15{fill:#353847;}
	.st16{fill:#8F5E3E;}
	.st17{fill:#464D57;}
	.st18{fill:#F0E9D8;}
	.st19{fill:#5C3B28;}
	.st20{fill:#40291B;}
	.st21{fill:#825438;}
	.st22{fill:#FF7057;}
	.st23{fill:#DE543C;}
	.st24{fill:#A14838;}
	.st25{fill:#D4CAC5;}
	.st26{fill:#FEF377;}
	.st27{fill:none;}
</style>
<g>
	<rect x="75.28" y="256.68" class="st0" width="17.41" height="51.45"/>
	<rect x="41.43" y="256.68" class="st1" width="17.41" height="51.45"/>
	<g>
		<path class="st2" d="M67.1,77.73h15.12l-0.05-21.51c-2.56,3.35-8.31,5.69-15.07,5.69V77.73z"/>
		<path class="st3" d="M51.98,56.23v21.51H67.1V61.91C60.34,61.91,54.54,59.57,51.98,56.23z"/>
	</g>
	<g>
		<path class="st2" d="M45.05,80.69c0,7.18-5.34,13.01-11.93,13.01c-6.59,0-11.93-5.82-11.93-13.01s5.34-13.01,11.93-13.01
			C39.71,67.68,45.05,73.5,45.05,80.69z"/>
		<polygon class="st2" points="21.26,82.04 21.26,112.71 37.1,112.71 37.1,91.53 		"/>
		<rect x="34.8" y="90.56" class="st3" width="2.29" height="22.18"/>
	</g>
	<g>
		<polygon class="st4" points="37.1,169.25 37.1,196.05 37.1,256.68 63.2,256.68 63.2,196.05 67.08,196.05 67.08,169.25 		"/>
		<polygon class="st5" points="67.08,169.25 67.08,196.05 70.95,196.05 70.95,256.68 97.05,256.68 97.05,196.05 97.05,169.25 		"/>
		<g>
			<polygon class="st6" points="59.2,196.05 63.2,199.02 63.2,196.05 			"/>
		</g>
		<g>
			<polygon class="st7" points="74.95,196.05 70.95,199.02 70.95,196.05 			"/>
		</g>
	</g>
	<rect x="37.1" y="169.25" class="st8" width="29.98" height="3.59"/>
	<rect x="67.08" y="169.25" class="st8" width="29.98" height="3.59"/>
	<g>
		<polygon class="st0" points="84.5,63.48 67.08,89.31 67.05,89.31 67.08,64.2 67.08,39.07 75.79,40.32 75.79,52.41 82.17,56.22 		
			"/>
	</g>
	<g>
		<polygon class="st1" points="67.07,64.2 67.07,89.31 67.05,89.31 49.65,63.48 51.97,56.22 58.36,52.68 58.36,40.32 67.05,39.07 
			67.08,50.25 		"/>
	</g>
	<g>
		<path class="st3" d="M89.1,80.69c0,7.18,5.34,13.01,11.93,13.01s11.93-5.82,11.93-13.01s-5.34-13.01-11.93-13.01
			S89.1,73.5,89.1,80.69z"/>
		<polygon class="st3" points="112.9,82.04 112.9,112.71 97.05,112.71 97.05,91.53 		"/>
		
			<rect x="97.05" y="90.56" transform="matrix(-1 -1.224647e-16 1.224647e-16 -1 196.3997 203.296)" class="st9" width="2.29" height="22.18"/>
		<g>
			<path class="st2" d="M49.65,57.46L27.48,69.22l5.64,12.97l3.98-2.11v11.45v77.72h29.98V73.52
				C58.32,73.52,51.07,66.57,49.65,57.46z"/>
			<path class="st3" d="M67.08,73.52v-3c0,0-13.15,0-15.09-14.29l-2.33,1.24C51.07,66.57,58.32,73.52,67.08,73.52z"/>
			<path class="st3" d="M84.5,57.46c-1.41,9.11-8.67,16.05-17.42,16.05v95.74h29.98V91.53V80.08l3.98,2.11l5.64-12.97L84.5,57.46z"
				/>
			<path class="st3" d="M67.08,70.51v3c8.76,0,16.01-6.94,17.42-16.05l-2.33-1.24C80.23,70.51,67.08,70.51,67.08,70.51z"/>
		</g>
	</g>
	<path class="st10" d="M58.26,39.91l9.47-1.25l0.03,11.18c-4.03,0.05-7.18-1.87-9.5-4.8V39.91z"/>
	<path class="st10" d="M77.26,39.91v5.18c-2.32,2.94-5.44,4.83-9.47,4.75h-0.03V38.66L77.26,39.91z"/>
	<g>
		<g>
			<g>
				<g>
					<path class="st1" d="M67.79,7.79l-0.03,40.08c-7.84,0.16-12.24-7.26-13.93-15.1c0,0,0,0,0-0.03c-0.16-0.72-0.29-1.4-0.4-2.12
						c-0.32-1.88-0.45-3.71-0.45-5.46c0-1.85,0.19-3.66,0.61-5.32c0.16-0.79,0.37-1.54,0.64-2.28c0.18-0.56,0.42-1.11,0.69-1.62
						C57.17,11.04,61.54,7.79,67.79,7.79z"/>
				</g>
			</g>
			<g>
				<g>
					<path class="st0" d="M82.6,25.16c0,1.67-0.13,3.44-0.4,5.24c-0.11,0.69-0.24,1.38-0.37,2.07c-0.19,0.85-0.4,1.7-0.64,2.52
						c-0.05,0.13-0.08,0.29-0.13,0.42c-0.48,1.62-1.09,3.18-1.85,4.61c-2.41,4.61-6.15,7.95-11.45,7.84l0.03-40.08
						c2.38,0,4.48,0.48,6.3,1.32c2.97,1.4,5.19,3.81,6.59,6.89c0.03,0.03,0.03,0.08,0.05,0.11c0.29,0.61,0.53,1.22,0.77,1.88v0.03
						c0.03,0.05,0.03,0.13,0.05,0.19c0.19,0.53,0.32,1.06,0.45,1.62c0.13,0.56,0.24,1.14,0.32,1.72
						C82.52,22.7,82.6,23.92,82.6,25.16z"/>
				</g>
			</g>
		</g>
		<g>
			<path class="st11" d="M67.81,2C45.33,2,53.45,30.62,53.45,30.62c-0.69-3.09-0.42-4.56,0.67-6.98c1.64-3.02,4.57-3.5,4.57-3.5
				c4.21-0.89,7.11-2.25,9.12-3.69V8.53l0,0V2z"/>
			<path class="st12" d="M67.79,2v6.53l0.02,0v7.91c4.57-3.29,4.49-7.08,4.49-7.11l0,0c0.01,0.03,1.87,4.56,7.41,10.96
				c0,0,2.76,3.19,2.57,7.98c0.01,0.65-0.03,1.19-0.04,1.89C82.23,30.15,90.27,2,67.79,2z"/>
		</g>
	</g>
	<g>
		<g>
			<polygon class="st0" points="109.55,112.71 109.55,177.06 97.05,177.06 97.05,112.74 			"/>
			
				<rect x="97.05" y="112.74" transform="matrix(-1 -1.224647e-16 1.224647e-16 -1 196.3997 290.9182)" class="st13" width="2.29" height="65.44"/>
		</g>
		<g>
			<path class="st0" d="M110.28,177.04c-1.15-3.2-4.19-5.61-7.06-5.61c-3.05,0-5.48,1.97-5.85,4.59c0,0-0.57,2.35-0.19,4.96
				c0,0,0.13,1.58,1.63,1.57c0,0,1.56,0,1.58-1.53c0,0-0.04-2.91,2.33-3.64c0.13-0.04,0.3-0.07,0.51-0.07
				c0.54,0,1.67,0.84,2.04,1.88c0.49,1.37,0.33,3.58-0.12,4.5l-1.61,3.24c-0.71,1.43-0.23,3.21,1.08,3.99
				c0.41,0.24,0.85,0.36,1.28,0.36c0.96,0,1.88-0.56,2.37-1.54l1.61-3.24C111.14,183.96,111.31,179.89,110.28,177.04z"/>
		</g>
	</g>
	<g>
		<g>
			<polygon class="st1" points="24.67,112.71 24.67,177.06 37.17,177.06 37.17,112.74 			"/>
			<rect x="34.87" y="112.74" class="st0" width="2.29" height="65.44"/>
		</g>
		<g>
			<path class="st1" d="M23.94,177.04c1.15-3.2,4.19-5.61,7.06-5.61c3.05,0,5.49,1.97,5.85,4.59c0,0,0.57,2.35,0.2,4.96
				c0,0-0.13,1.58-1.63,1.57c0,0-1.56,0-1.58-1.53c0,0,0.04-2.91-2.33-3.64c-0.13-0.04-0.3-0.07-0.51-0.07
				c-0.54,0-1.67,0.84-2.04,1.88c-0.49,1.37-0.33,3.58,0.12,4.5l1.61,3.24c0.71,1.43,0.23,3.21-1.08,3.99
				c-0.41,0.24-0.85,0.36-1.28,0.36c-0.96,0-1.88-0.56-2.37-1.54l-1.61-3.24C23.08,183.96,22.91,179.89,23.94,177.04z"/>
		</g>
	</g>
	<path class="st14" d="M81.27,105.81V55.68l-3.06-1.82v51.03h-1.85c-0.18,0-0.32,0.16-0.32,0.35v0.45l0,0.01h-1.76
		c-0.6,0-1.27-0.49-1.5-1.09l-0.36-0.95c-0.23-0.6-0.9-1.09-1.5-1.09h-0.87v-1.06h1.11c0.79,0,1.48-0.67,1.58-1.51l0.65-4.82
		c0.05-0.43-0.07-0.86-0.33-1.18c-0.26-0.32-0.63-0.5-1.03-0.5h-9.73c-0.41,0-0.78,0.19-1.03,0.51c-0.25,0.32-0.35,0.76-0.28,1.19
		l0.77,4.82c0.13,0.83,0.84,1.48,1.62,1.48h1.28v1.06h-1c-0.6,0-1.26,0.49-1.48,1.1l-0.34,0.93c-0.22,0.6-0.89,1.1-1.48,1.1h-1.95
		H58.3L58.3,52.72l-3.05,1.75v51.32c-0.42,0.16-0.73,0.59-0.73,1.1v1.3v13.11c0,0.65,0.49,1.18,1.08,1.18h2.82h22.42
		c0.6,0,1.08-0.53,1.08-1.18v-14.41C81.91,106.41,81.65,106,81.27,105.81z"/>
	<g>
		<polygon class="st15" points="57.22,107.43 54.16,107.43 54.16,55.02 57.22,53.33 		"/>
		<polygon class="st15" points="77.21,107.43 80.27,107.43 80.27,55.09 77.21,53.26 		"/>
		<g>
			<path class="st16" d="M78.16,104.56c0,0.19-0.15,0.35-0.32,0.35h-2.6c-0.18,0-0.32-0.16-0.32-0.35v-0.45
				c0-0.2,0.15-0.35,0.32-0.35h2.6c0.18,0,0.32,0.16,0.32,0.35V104.56z"/>
			<path class="st17" d="M80.8,120.16c0,0.65-0.49,1.18-1.08,1.18H54.48c-0.6,0-1.08-0.53-1.08-1.18v-14.41
				c0-0.65,0.49-1.18,1.08-1.18h4.77c0.6,0,1.26-0.49,1.48-1.1l0.34-0.93c0.22-0.6,0.89-1.1,1.48-1.1h7.26c0.6,0,1.27,0.49,1.5,1.09
				l0.36,0.95c0.23,0.6,0.9,1.09,1.5,1.09h6.56c0.6,0,1.08,0.53,1.08,1.18V120.16z"/>
			<path class="st17" d="M57.3,104.57h-2.82c-0.6,0-1.08,0.53-1.08,1.18v14.41c0,0.65,0.49,1.18,1.08,1.18h2.82V104.57z"/>
			<path class="st16" d="M53.4,105.75v1.3h3.9v-2.48h-2.82C53.89,104.57,53.4,105.1,53.4,105.75z"/>
			<g>
				<path class="st15" d="M73.42,112.13c0,4.45-3.31,8.07-7.4,8.07c-4.09,0-7.4-3.61-7.4-8.07c0-4.46,3.31-8.07,7.4-8.07
					C70.1,104.07,73.42,107.68,73.42,112.13z"/>
			</g>
			<g>
				<path class="st17" d="M66.1,119.22c-3.59,0-6.5-3.18-6.5-7.09c0-3.91,2.92-7.09,6.5-7.09c3.59,0,6.5,3.18,6.5,7.09
					C72.6,116.04,69.68,119.22,66.1,119.22z M66.1,106.17c-3.02,0-5.47,2.67-5.47,5.96c0,3.29,2.45,5.96,5.47,5.96
					s5.47-2.68,5.47-5.96C71.57,108.85,69.11,106.17,66.1,106.17z"/>
			</g>
			<rect x="63.55" y="98.31" class="st17" width="5.39" height="5.1"/>
			<g>
				<path class="st18" d="M71.71,93.98c0.06-0.53-0.29-0.97-0.79-0.97h-9.73c-0.49,0-0.83,0.43-0.74,0.96l0.77,4.82
					c0.08,0.53,0.56,0.96,1.05,0.96h7.79c0.49,0,0.95-0.44,1.01-0.97L71.71,93.98z"/>
				<g>
					<path class="st17" d="M70.05,100.38h-7.79c-0.77,0-1.49-0.65-1.62-1.48l-0.77-4.82c-0.07-0.44,0.03-0.87,0.28-1.19
						c0.25-0.32,0.62-0.51,1.03-0.51h9.73c0.4,0,0.78,0.18,1.03,0.5c0.26,0.32,0.37,0.75,0.33,1.18l-0.65,4.82
						C71.53,99.72,70.84,100.38,70.05,100.38z M61.19,93.64c-0.07,0-0.12,0.02-0.15,0.06c-0.04,0.05-0.04,0.12-0.03,0.17l0.77,4.82
						c0.04,0.23,0.27,0.44,0.48,0.44h7.79c0.2,0,0.41-0.2,0.43-0.42l0.65-4.82c0.01-0.06-0.01-0.13-0.05-0.18
						c-0.04-0.05-0.1-0.07-0.17-0.07H61.19z"/>
				</g>
			</g>
			<path class="st17" d="M66.1,108.19c-2,0-3.62,1.77-3.62,3.95c0,2.18,1.62,3.95,3.62,3.95c2,0,3.62-1.77,3.62-3.95
				C69.72,109.95,68.1,108.19,66.1,108.19z"/>
			<g>
				<g>
					<path class="st3" d="M69.29,113.42c0.65-1.92-0.25-4.06-2.02-4.76l-2.35,6.96C66.68,116.32,68.64,115.34,69.29,113.42z"/>
				</g>
				<g>
					<path class="st3" d="M64.92,115.61l2.35-6.96c-1.76-0.71-3.72,0.27-4.37,2.2C62.26,112.77,63.16,114.91,64.92,115.61z"/>
				</g>
			</g>
		</g>
	</g>
	<rect x="56.38" y="256.68" class="st0" width="2.46" height="49.46"/>
	<rect x="90.23" y="256.68" class="st13" width="2.46" height="49.46"/>
	<rect x="70.11" y="250.48" class="st5" width="27.78" height="6.2"/>
	<rect x="70.95" y="249.87" class="st7" width="26.1" height="0.61"/>
	<rect x="36.25" y="250.48" class="st4" width="27.78" height="6.2"/>
	<rect x="37.09" y="249.87" class="st6" width="26.1" height="0.61"/>
	<polygon class="st7" points="89.71,228.46 89.71,245.54 97.05,245.54 97.05,233.7 97.05,228.46 	"/>
	<g>
		<rect x="90.23" y="227.49" class="st19" width="6.82" height="17.42"/>
		<polygon class="st20" points="97.05,233.49 92.92,233.49 90.23,227.49 97.05,227.49 		"/>
		<polygon class="st21" points="97.05,233.08 93.18,233.08 90.23,227.49 97.05,227.49 		"/>
		<path class="st0" d="M94.39,231.99c0,0.29-0.21,0.52-0.48,0.52c-0.27,0-0.48-0.23-0.48-0.52c0-0.29,0.22-0.52,0.48-0.52
			C94.18,231.47,94.39,231.7,94.39,231.99z"/>
	</g>
	<g>
		<g>
			<path class="st6" d="M30.94,177.06c-1.64,0-2.97,0.45-2.97,2.24v11.42c0,1.79,1.33,3.24,2.97,3.24h0.02v-16.9H30.94z"/>
			<path class="st7" d="M31.11,177.06h-0.15v16.9h0.15c1.64,0,2.97-1.45,2.97-3.24V179.3C34.08,177.51,32.75,177.06,31.11,177.06z"
				/>
		</g>
		<g>
			<path class="st22" d="M26.61,188.83c-0.51,0-0.93,0.45-0.93,1.02v0.57c0,0.56,0.42,1.02,0.93,1.02h4.34v-2.61H26.61z"/>
			<path class="st22" d="M35.3,188.83h-4.34v2.61h4.34c0.51,0,0.93-0.45,0.93-1.02v-0.57C36.23,189.29,35.81,188.83,35.3,188.83z"/>
		</g>
		<g>
			<path class="st22" d="M20.22,193.93v72.32c0,1.33,0.66,2.45,1.6,3.14v-78.57C20.88,191.49,20.22,192.6,20.22,193.93z"/>
			<path class="st22" d="M40.09,190.74v78.72c1.01-0.67,1.73-1.84,1.73-3.21v-72.32C41.82,192.55,41.11,191.4,40.09,190.74z"/>
			<path class="st23" d="M38.31,190.14H23.7c-0.71,0-1.33,0.28-1.87,0.68v78.57c0.55,0.4,1.17,0.69,1.87,0.69h14.62
				c0.66,0,1.25-0.26,1.78-0.61v-78.72C39.56,190.39,38.98,190.14,38.31,190.14z"/>
		</g>
		<g>
			<path class="st24" d="M27.72,190.14v0.11c0,1.01-0.76,1.88-1.72,1.88h-2.89c-0.55,0-1.17,0.75-1.17,1.88v3.04
				c0,1.05-0.79,1.88-1.72,1.88v-4.99c0-2.1,1.55-3.79,3.47-3.79H27.72z"/>
		</g>
		<g>
			<path class="st24" d="M34.32,190.14v0.11c0,1.01,0.76,1.88,1.72,1.88h2.89c0.55,0,1.17,0.75,1.17,1.88v3.04
				c0,1.05,0.79,1.88,1.72,1.88v-4.99c0-2.1-1.55-3.79-3.47-3.79H34.32z"/>
		</g>
		<g>
			<path class="st24" d="M34.32,270.16v-0.11c0-1.01,0.76-1.88,1.72-1.88h2.89c0.55,0,1.17-0.75,1.17-1.88l0-3.04
				c0-1.05,0.79-1.88,1.72-1.88l0,4.99c0,2.1-1.55,3.79-3.47,3.79H34.32z"/>
		</g>
		<g>
			<path class="st24" d="M27.72,270.16v-0.11c0-1.01-0.76-1.88-1.72-1.88h-2.89c-0.55,0-1.17-0.75-1.17-1.88v-3.04
				c0-1.05-0.79-1.88-1.72-1.88l0,4.99c0,2.1,1.55,3.79,3.47,3.79H27.72z"/>
		</g>
		<g>
			<polygon class="st25" points="40.09,208.06 21.82,208.06 20.22,208.06 20.22,211.34 21.82,211.34 40.09,211.34 41.82,211.34 
				41.82,208.06 			"/>
			<polygon class="st25" points="21.82,250.02 20.22,250.02 20.22,253.3 21.82,253.3 40.09,253.3 41.82,253.3 41.82,250.02 
				40.09,250.02 			"/>
		</g>
		<g>
			<rect x="21.82" y="207.59" class="st3" width="18.27" height="3.28"/>
			<rect x="40.09" y="207.59" class="st26" width="1.73" height="3.28"/>
			<rect x="20.22" y="207.59" class="st26" width="1.6" height="3.28"/>
		</g>
		<g>
			<rect x="21.82" y="249.55" class="st3" width="18.27" height="3.28"/>
			<rect x="40.09" y="249.55" class="st26" width="1.73" height="3.28"/>
			<rect x="20.22" y="249.55" class="st26" width="1.6" height="3.28"/>
		</g>
	</g>
	<g>
		<polygon class="st0" points="73,309.01 73,305.59 75.46,303.27 78.75,302.34 87.85,302.34 91.77,302.68 94.91,306.14 
			94.91,309.81 82.88,311.18 		"/>
		<g>
			<path class="st27" d="M90.48,304.05H77.52c-2.06,0-3.74,1.83-3.74,4.08h20.44C94.22,305.88,92.54,304.05,90.48,304.05z"/>
			<path class="st15" d="M77.52,304.05h12.96c2.06,0,3.74,1.83,3.74,4.08h1.67c0-3.26-2.42-5.9-5.41-5.9H77.52
				c-2.99,0-5.41,2.64-5.41,5.9h1.67C73.78,305.88,75.46,304.05,77.52,304.05z"/>
			<polygon class="st15" points="94.22,308.13 73.78,308.13 72.11,308.13 72.11,313.25 74.83,313.25 93.17,313.25 95.89,313.25 
				95.89,308.13 			"/>
		</g>
	</g>
	<g>
		<polygon class="st1" points="39.14,309.01 39.14,305.59 41.6,303.27 44.89,302.34 53.99,302.34 57.91,302.68 61.04,306.14 
			61.04,309.81 49.02,311.18 		"/>
		<g>
			<path class="st27" d="M56.62,304.05H43.66c-2.06,0-3.74,1.83-3.74,4.08h20.44C60.36,305.88,58.68,304.05,56.62,304.05z"/>
			<path class="st17" d="M43.66,304.05h12.96c2.06,0,3.74,1.83,3.74,4.08h1.67c0-3.26-2.42-5.9-5.41-5.9H43.66
				c-2.99,0-5.41,2.64-5.41,5.9h1.67C39.92,305.88,41.6,304.05,43.66,304.05z"/>
			<polygon class="st17" points="60.36,308.13 39.92,308.13 38.25,308.13 38.25,313.25 40.97,313.25 59.31,313.25 62.03,313.25 
				62.03,308.13 			"/>
		</g>
	</g>
</g>
</svg>
