<?xml version="1.0" encoding="utf-8"?>
<!-- Generator: Adobe Illustrator 24.0.3, SVG Export Plug-In . SVG Version: 6.00 Build 0)  -->
<svg version="1.1" id="图层_1" xmlns="http://www.w3.org/2000/svg" xmlns:xlink="http://www.w3.org/1999/xlink" x="0px" y="0px"
	 viewBox="0 0 128 128" style="enable-background:new 0 0 128 128;" xml:space="preserve">
<style type="text/css">
	.st0{fill:#D0E7EF;}
	.st1{fill:#4ECDDA;}
	.st2{fill:#FF8D89;}
</style>
<g>
	<g>
		<g>
			<path class="st0" d="M109.9,64c0,25.3-20.5,45.9-45.9,45.9c-9.4,0-18.2-2.8-25.4-7.7c-5-3.4-9.4-7.7-12.7-12.7
				C21,82.2,18.1,73.4,18.1,64c0-25.4,20.5-45.9,45.9-45.9c9.4,0,18.1,2.8,25.4,7.7c5.1,3.4,9.4,7.7,12.8,12.8
				C107,45.8,109.9,54.6,109.9,64z"/>
			<g>
				<path class="st1" d="M58.2,21.2c0.2,0.1,0.4,0.1,0.6,0c0-0.1,0-0.2,0-0.3C58.2,21,58,21.1,58.2,21.2
					C58.5,21.2,58.2,21.2,58.2,21.2z"/>
				<path class="st1" d="M60.6,21.2c0.4,0,0.4,0,0.5-0.4c-0.6,0.1-1.2,0.2-1.8,0.4C59.7,21.1,60.2,21.2,60.6,21.2
					C60.7,21.2,60.3,21.2,60.6,21.2z"/>
				<path class="st1" d="M53.8,21.9c0.2,0,0.3-0.1,0.5-0.2c-0.4,0.1-0.8,0.2-1.1,0.3C53.2,22,53.6,22,53.8,21.9
					C53.9,21.9,53.5,22,53.8,21.9z"/>
				<path class="st1" d="M56.5,21.6c0,0-1.1,0.3-0.8,0.2C56,21.8,56.2,21.7,56.5,21.6z"/>
				<path class="st1" d="M59.4,21.8c0,0,0.6,0,0.6,0c-0.9-0.3-2-0.1-2.9-0.2C57.9,21.7,58.6,21.7,59.4,21.8
					C59.6,21.8,58.6,21.7,59.4,21.8z"/>
				<path class="st1" d="M55.2,21.9c0.4-0.3-0.9,0-0.9,0C54.7,22,55,22,55.2,21.9C55.3,21.8,55.2,21.9,55.2,21.9z"/>
				<path class="st1" d="M60.8,22c-0.3-0.1-0.7-0.1-1-0.1C60.1,22,60.5,22,60.8,22C60.5,22,60.9,22.1,60.8,22z"/>
				<path class="st1" d="M56.2,22.5c0.3,0.1,0.5,0,0.7-0.2C57.2,21.9,55.8,22.1,56.2,22.5C56.4,22.6,56.1,22.3,56.2,22.5z"/>
				<path class="st1" d="M51,22.8c0.4-0.1,0.8-0.3,1.1-0.4c-0.2,0-1.7,0.6-1.6,0.6C50.7,23,50.8,22.9,51,22.8
					C51.4,22.7,50.8,22.9,51,22.8z"/>
				<path class="st1" d="M55.6,22.5c0-0.1,0-0.3,0-0.4c-0.1,0.1-0.2,0.3-0.3,0.5C55.4,22.7,55.5,22.6,55.6,22.5
					C55.7,22.4,55.5,22.6,55.6,22.5z"/>
				<path class="st1" d="M63.4,21.3c1,0.1,1.9,0.6,2.7,0.8c0.2,0.1,1.8,0.1,2,0.4c-0.1,0.1-0.2,0.3-0.3,0.5c0.2,0.1,0.5,0.2,0.7,0.3
					c0,0.1-0.5,0-0.5,0.1c0,1,1-0.3,1.2,0c0.1,0.1-0.1,0.7,0.3,0.4c-0.1,0.1-0.7,0.1-0.7,0.3c0.1,0.6,1.1,0,1.2,0
					c0.5,0.2,1.1,1,1.7,1.3c0.2,0.1,2.7,0.3,2.7,0.5c-0.2-0.3-0.4-0.5-0.7-0.7c0.1,0,0.1,0,0.2,0c-0.7-0.5-0.4-0.6-0.9-1.1
					c0,0,0.1,0,0.1,0c-0.2,0-0.3,0-0.4-0.2c0.3-0.2,0.6-0.3,0.9-0.3c-1.7-0.7-3.4-1.3-5.2-2c-0.6-0.2-1.2-0.6-1.8-0.7
					c-1.6,0.1-3.6,0.5-5.2,0.2C62.2,21.2,62.8,21.3,63.4,21.3C63.7,21.4,62.8,21.3,63.4,21.3z"/>
				<path class="st1" d="M72.8,22.2c0.5,0.1,0.9,0.2,1.1,0.3C74,22.5,73.2,22.3,72.8,22.2z"/>
				<path class="st1" d="M73.8,22.9c0.1-0.1,0.4,0,0.4,0c-0.2-0.1-1.8-0.7-1.8-0.7c0.1,0,0.2,0,0.4,0c-0.5-0.1-1.2-0.3-1.6-0.6
					c0.1,0,0.3,0,0.4,0c-0.6-0.1-1.3-0.2-1.9-0.4c0.1,0,0.2,0,0.3,0c-0.9-0.1-1.7-0.3-2.6-0.4c2.1,0.9,4.2,1.8,6.3,2.7
					C73.7,23.4,73.7,23.1,73.8,22.9C73.8,22.8,73.6,23.1,73.8,22.9z"/>
				<path class="st1" d="M50.7,23.7c0.4,0.1,4.3-0.7,3-1.3c-0.1,0-1.3,0.3-1.6,0.3c-0.5,0.1-1.2,0.5-1.7,0.6c0.2,0,0.5-0.1,0.8-0.1
					c-0.1,0-1.1,0.2-1.1,0.3C50.3,23.6,50.5,23.7,50.7,23.7C50.9,23.7,50.5,23.7,50.7,23.7z"/>
				<path class="st1" d="M67,22.4c0.2,0.1,0.8,0.1,0.9,0.2C67.6,22.5,67.3,22.5,67,22.4z"/>
				<path class="st1" d="M60.1,22.8C60.1,22.8,60.2,22.8,60.1,22.8C60,22.8,60,22.8,60.1,22.8z"/>
				<path class="st1" d="M59.5,22.3c0-0.1,0-0.3,0-0.4c-0.6-0.1-1.2,0.6-1.6,0.7c0,0,0.5-0.7,0.7-0.6c0.3,0-1.6,0.4-1.3,0.5
					c1.2,0.6,2.4-0.1,3.5,0.4c-0.9-0.4,1.1,0.4,1,0.3c0.4,0.6,0,0.1,0.7,0.3c0.5,0.2-1.1,0.7-1.2,0.7c-0.2,0.1-1.6-0.3-1.4,0.3
					c0.1,0.3,2.2-0.1,2.6,0.2c0,0-0.3,0.1-0.4,0.1c0.3,0.1,2.3,0.8,2.6,0.5c1.2-0.9-1-0.8-0.8-1.2c0.4-1.1,1,0.1,1.3,0
					c1.3-0.1-0.3-0.9-0.8-0.9c-0.7-0.1-0.9-0.4-1.1-0.4c-0.4,0-0.9-0.1-1.3-0.1c-0.9-0.1,0-0.3-0.2-0.4
					C61.6,22.1,59.8,22.6,59.5,22.3C59.5,22.2,59.6,22.4,59.5,22.3z"/>
				<path class="st1" d="M77.1,24c0.2,0.1,2,0.4,2,0.5c-0.1-0.3-1.5-1.2-1.8-1c0,0.1,0.1,0.2,0.1,0.4C77.3,23.9,77.2,23.9,77.1,24
					C77.5,24.2,77.1,24,77.1,24z"/>
				<path class="st1" d="M77.1,24c0.2-0.3-0.5-0.1-0.5-0.1C76.8,23.9,77,23.9,77.1,24C77.2,23.9,77,24,77.1,24z"/>
				<path class="st1" d="M57.5,24.3c-0.1,0-1.2,0.6-1.1,0.6C56.5,25.3,59.4,25,57.5,24.3C57.4,24.2,57.7,24.4,57.5,24.3z"/>
				<path class="st1" d="M39.2,28.6c0,0-1,0.7-0.7,0.6C38.7,29.1,38.9,28.8,39.2,28.6z"/>
				<path class="st1" d="M86.4,27.9L86.4,27.9C86.4,28,86.4,28,86.4,27.9z"/>
				<path class="st1" d="M86.4,27.9c-0.2-0.1-0.4-0.3-0.5-0.4C85.9,27.7,86.2,27.8,86.4,27.9C86.3,27.9,86.2,27.8,86.4,27.9z"/>
				<path class="st1" d="M85.8,27.5c0.1,0,0.1,0.1,0.2,0.2C86,27.5,85.9,27.4,85.8,27.5z"/>
				<path class="st1" d="M87.9,28.9c0.3,0.2,1.8,1.2,1.8,1.3c-0.5-1-2.8-2-3.7-2.5C86.7,28.1,87.4,28.4,87.9,28.9
					C88,28.9,87.5,28.5,87.9,28.9z"/>
				<path class="st1" d="M85.6,27.4c-0.1-0.1-0.5-0.4,0.2,0.1c0,0,0-0.2-0.1-0.1c0.1,0,0.2,0.1,0.3,0.1c-0.5-0.1-1.4-0.7-1.9-1
					C84.7,26.8,85.1,27.1,85.6,27.4C85.6,27.4,85.3,27.2,85.6,27.4z"/>
				<path class="st1" d="M88.4,29.8c0.1,0-1.7-1.6-2.1-1.8C87,28.4,87.7,29.8,88.4,29.8C88.6,29.8,87.4,29.8,88.4,29.8z"/>
				<path class="st1" d="M74.6,32.6c0,0.1,0.6,0.9,0.5,0.6c0-0.1-0.7-0.8-0.3-1C74.7,32.3,74.6,32.4,74.6,32.6
					C74.6,32.8,74.6,32.5,74.6,32.6z"/>
				<path class="st1" d="M74.3,32.4c0,0.2,0.1,0.3,0.3,0.2C74.5,32.5,74.4,32.4,74.3,32.4C74.3,32.5,74.4,32.4,74.3,32.4z"/>
				<path class="st1" d="M72,30.3c0.1,0.1,0.1,0,0.2-0.1C72.1,30.2,71.9,30.2,72,30.3C72,30.3,71.9,30.2,72,30.3z"/>
				<path class="st1" d="M73.8,31.8c0.1-0.1,0.2-0.2,0.2-0.3c-0.5-0.5-0.8,0.3-1,0.2c-0.1,0-0.6-0.8-0.7-0.7c0,0.1-0.1,0.3-0.2,0.4
					c-0.2-0.6,0.3-0.6-0.1-1.1c-0.2,0.2-0.9,1.8-1.1,1.8c0.5,0.2,0.5-0.1,1.1,0.3c0.8,0.6,0.7-0.2,1.1,0c0.3,0.2-0.1,0.7,0.3,0.7
					c0.5,0.1,0.2-0.8,0.8-0.8C74.1,31.6,73.9,32.1,73.8,31.8C73.7,31.7,73.8,32,73.8,31.8z"/>
				<path class="st1" d="M70.4,33.1c-0.6,0.5,0,1.3,0.2,0.9C70.4,34.5,70.7,32.9,70.4,33.1C70.3,33.2,70.5,33.1,70.4,33.1z"/>
				<path class="st1" d="M62,38.2c0,0,1.4-0.4,1.5-0.4C63.2,37.8,62.1,37.8,62,38.2C62,38.3,62.1,37.8,62,38.2z"/>
				<path class="st1" d="M59.5,50.7c-0.2-0.2-0.6-0.2-0.6-0.2C59.1,50.6,59.3,50.7,59.5,50.7z"/>
				<path class="st1" d="M59.6,51.5c0.3-0.3,0.3-0.6,0-0.7C59.6,50.8,59.5,51.7,59.6,51.5C59.9,51,59.5,51.5,59.6,51.5z"/>
				<path class="st1" d="M41.7,53.4C41.7,53.4,41.7,53.4,41.7,53.4C41.7,53.5,41.7,53.5,41.7,53.4z"/>
				<path class="st1" d="M61.8,54.4c0-0.3-0.3-0.5-0.5-0.8C61.3,54,61.8,54.2,61.8,54.4C61.8,54.1,61.8,54.6,61.8,54.4z"/>
				<path class="st1" d="M61.6,57.4c0.3-0.1,0.7-0.2,0.9-0.3c0.2-0.1-1.6-0.5-1.5-0.5c-0.3-0.2,0.7-0.4-0.2-0.5c-0.2,0-0.5,0-0.6,0
					c-0.9-0.3-1.5-0.9-2.6-1.1c-2.1-0.3-3.5-1.1-5.2,0.6c1.3,0.2,3.1-1.6,4.4-0.1c0.3,0.4,0.7,0.4,1.2,0.3c0.4-0.1,0.1,0.4,0.4,0.6
					c0.3,0.2,1.2,0.2,1.3,0.5c0.1,0.2-0.2,0.4-0.3,0.4C59.8,57.3,61.6,57.5,61.6,57.4C62,57.4,61.6,57.5,61.6,57.4z"/>
				<path class="st1" d="M96.7,37.1c-1.9-2.5-4.7-6.2-7.7-7.6c0.5,0.4,1.4,0.8,1.7,1.4c0-0.1-0.3-0.1-0.3-0.2c0,0,0.8,0.9,0.5,0.6
					c-0.2-0.2,1.3,1,1,0.7c0.3,0.3,1.9,2.2,2.3,2.2c-0.2-0.1-0.5-0.2-0.8-0.1c-0.1,0.1,3.8,4.4,4.3,4.8
					C97.6,38.2,97.1,37.6,96.7,37.1C95.9,36,97,37.5,96.7,37.1z"/>
				<path class="st1" d="M65,59.2c0.7,0,1.9-0.8,2.7-0.5c0.2,0.1,0.8,0.4,0.6-0.2c-0.2-0.7-0.9-0.1-1.3-0.4c-0.1,0,0.5-0.2,0.4-0.2
					c-0.1-0.2-4.2-0.4-4.2-0.3c0,0.1,1.3,0.3,0.7,0.7c-0.1,0-1.7,0.7-1.6,0.7C63.2,59.1,64.1,59.2,65,59.2
					C65.3,59.2,64.1,59.2,65,59.2z"/>
				<path class="st1" d="M69.3,58.6c0.3,0.2,0.7,0.4,1.1,0.4c0,0,0.8-0.3,0.6-0.4C70.4,58.6,69.8,58.5,69.3,58.6z"/>
				<path class="st1" d="M72.9,66.4c0.1,0,0.2,0,0.3,0C72.8,66.3,72.7,66.3,72.9,66.4C73,66.4,72.8,66.4,72.9,66.4z"/>
				<path class="st1" d="M51.9,23.6c0,0,0.1,0,0.2,0c0,0,0,0,0.1-0.1C52,23.5,52,23.6,51.9,23.6z M55.3,50.9
					C55.3,50.9,55.3,50.9,55.3,50.9C55.3,50.9,55.3,50.9,55.3,50.9C55.3,50.9,55.3,50.9,55.3,50.9z M96.6,78
					c-0.1-0.7-0.7-0.3-1.1-0.5c0,0,0,0,0,0c0,0,0,0-0.1,0c-0.2-0.1-0.6-0.4-0.8-0.5c0.2,0,0.4,0.2,0.5,0.1c0.1-0.1-1.1-0.7-1.2-0.8
					c-0.4-0.2-0.9,0.3-1,0.3c-0.4,0-0.4,0-0.7,0c-1,0-0.6,0.1-1.4,0.4c0-0.2,0.1-0.3,0.1-0.4c-0.1,0.1-0.6,0.9-0.6,0.9
					c-0.5-1,0.7-1.5-0.8-1.8c-0.8-0.1-2.2,0.6-2.8,1.5c0.1-0.2,0-0.3-0.3-0.2c0.5-0.6,0.8-1,1.2-1.7c-0.4,0-0.6,0.1-1,0.2
					c-1,0.2-0.5,0-0.7,0.9c0,0-0.5,0.2-1,0.4c0,0,0,0,0,0c0,0-0.1,0-0.1,0.1c0,0,0,0,0,0c-0.4,0.2-0.7,0.3-0.8,0.4
					c0.3-0.5,0.9-0.9,1.2-1.6c0.1-0.1,0.8-1.1,1-1.3c0.3-0.3-1-2.9-1.3-3.1c0,0.1,0,0.3-0.1,0.4c0,0-0.1-0.1-0.1-0.2
					c-0.2-0.2-0.3-0.6-0.4-0.7c-1.5-1-1.5,0-3.1-0.3c-1.2-0.3-2-0.3-2.6-1.3c-0.7-1-1.7-0.8-2.7-0.9c-0.1,0-0.2,0-0.4-0.1
					c0.1,0,0.2-0.1,0.3-0.2c0.2-0.2,0.4-0.7,0.4-0.8l-0.8-0.4c0,0,0,0.1,0,0.1c0,0.1,0,0.1-0.1,0.2c-0.1-0.1-0.3-0.3-0.4-0.4
					c0,0.1,0,0.3,0,0.4c-0.2-0.1-0.3-0.3-0.3-0.5c-0.1,0-0.6-0.4-0.4-0.4c-0.3-0.1-0.6-0.1-0.9,0c0.2,0-1.2,0.6-1.8,0.6
					c-0.8-0.1-2,0.3-2.6-0.3c-0.3-0.3-0.4-0.9-1-0.7c-0.7,0.2-0.4-0.8-0.8-0.7c0,0.1-1.5,1.6-1.5,1.6c-0.3-0.7-0.6-0.6,0.1-1
					s0-0.9-0.6-0.8c-0.4,0,0,0.6-0.2,0.7c-0.8,0.4-1.7-0.1-2,1c-0.5-0.4-1.7,0.4-1.3,0.9c0.5,0.6-0.7,1.1-0.8,1.8
					c-0.2,1.4-1.2-0.3-1.7-0.7c-0.5-0.4-1.2-0.2-1.7-0.1c0,0,0,0,0,0c0,0,0,0,0,0h0c-0.1,0-0.3,0-0.4,0c0.2,0,0.3,0,0.4,0
					c-0.1-0.1-0.4,0-0.5,0c0,0,0.1,0,0.1,0c-0.6,0.1-1.6,0.4-1.9,0.4c-0.5,0.1-1.3-1.6-1.4-2c-0.3-0.9-0.3-1.8-0.1-2.7
					c0.1-0.2,0.5-1.5,0.4-1.6c-0.7-1.5-5.3-0.1-5.5-1c0-0.2,0.8-1.3,0.8-1.8c0-0.1-0.3-1.4,0.1-1.3c0.1,0.2,0.2,0.5,0.1,0.7
					c0,0,0.2-0.9,0.2-1.2c0.1-0.1,0.2-0.2,0.2-0.3c-0.1,0-0.2-0.1-0.3-0.1c0-0.2,1-1.5,1-1.5c-0.3-0.1-3.8-0.8-3.4,0.6
					c0.4,1.6-1.7,2-2.8,2.1c-2.5,0.4-3.5-3.4-2.8-5.6c0,0,0-0.1,0-0.1c0,0,0.4-1.1,0.5-1.3c-0.1,0.1-0.1,0.2-0.2,0.3
					c0.2-2,0.2-2.5,1.8-3.3c-0.1,0.1-0.1,0.1-0.2,0.2c0.5-0.3,1-0.7,1.5-1c-0.1,0-0.2,0.1-0.2,0.2c0.9-0.5,1.8-1,2.8-0.2
					c0.3,0.2,1.1,0.9,0.9,0.1c-0.3-0.9,0.3-0.3,0.9-0.7c0.3-0.2,2.5-0.3,3,0c-0.1,0,0,0.4,0,0.5c0,0,0,0,0,0
					c0.2,0.5,0.9-0.4,1.3-0.3c0.4,0.1,1.1,1,1.1,1.3c0,0,0,0.3-0.1,0.6c0,0.1,0,0.2,0,0.3c0,0.1,0,0.2-0.1,0.2
					c0.1,0.1,0.7,0.6,0.7,0.9c0-0.1,0.1-0.2,0.1-0.1c0,0.1-0.1,0.1-0.1,0.1c0,0,0,0.1-0.1,0.1c-0.7,0,0.6,0.7,0.6,0.7
					c0.4,0.3,0.1,1.2,0.8,0.6c0.7-0.6,0.2-2,0-2.7c0,0-0.1-0.3-0.2-0.6c0,0.1,0,0.1,0,0.2c0-0.1-0.1-0.2-0.1-0.3c0,0,0,0,0,0
					c-0.2-0.5-0.4-1.1-0.4-1.3c-0.2-0.7,0.1-1.8,0.7-2.2c0.3-0.2,4.1-2.7,4.1-2.9c-0.2-0.2-0.8,0-0.8-0.3c0-0.2,0.7,0,0.8-0.1
					c0,0,0,0,0,0c0.1-0.1,0-0.2,0-0.3v0c-0.2-0.2-0.6-0.4-0.7-0.5c0.8,0.2-0.1-1-0.2-1.2c0.1,0.1,0.2,0.2,0.3,0.3
					c-0.2-0.3-0.2-1,0.1-1.2c0.8-0.5,0.2,0.9,0,0.9c0.1,0.2,0.7,1,0.3,1.1c0.5-0.2,0.6-1.2,0.4-1.5c1,0.1,0.7-1.2,0.8-1.3
					c0.4-1,2.2-0.2,2.3-1.5c0.1-0.5,0.4-1.1,0.8-1.3c0.1,0,2.3-1.1,2.4-1c0.6,0.2,0.9-0.9,0.5-1.3c-0.1-0.1-1.3-0.5-1.4-0.5
					c0.2,0.1,1.6-0.4,1.6-0.4c-0.9-0.3-1.8-0.4-2.6,0.1c-0.1,0-1.7,1.4-1.7,1.3c0-0.2,1.2-1.3,1.3-1.5c0.6-0.6,2.3-0.6,3.2-0.7
					c0.1,0.6,0.8,0.2,1.2,0.4c-0.4-0.2-0.8-0.3-1.1-0.4c0.4-0.1,1.6-0.1,1.9-0.3c0.8-0.5,0.4-0.6,1.4-0.8c0.9-0.1,0.7-1-0.1-1.1
					c-0.6-0.1-1.2-0.1-1.8-0.1c0,0,0.8-0.5,0.9-0.5c-1.3-0.7-1.5,0.4-2.8-0.9c0.1,0,0.2,0,0.2,0c-0.1,0-0.2,0-0.3-0.1
					c0.1-0.1,0.1-0.1,0.2-0.2c-0.3-0.1-0.6-0.2-0.9-0.3c0-0.1-0.7-0.7-0.7-0.7c-0.4-1.1-0.6,0.5-0.7,0.6c-0.4,0.2-2.5-0.6-2.5-0.7
					c0-0.1,0.8-0.3,0.7-0.4c-0.3-0.3-0.9-0.1-1.3-0.2c0,0,0,0,0.1-0.1c-0.7-0.1-2.7-1-2.3,0.4c0.2,0.8-0.6,0.4-0.7,1
					c-0.1,0.4,1.3,0.2,0.9,1.2c-0.3,0.8-1.5,0.4-1.8,0.9C58.6,28.7,59,30,59,30c0.7,0.7-0.6,0.7-0.7,0.8c-0.1,0.1,0.2,0.4,0.2,0.4
					c-1,0.1-0.7-1.8-1.3-2.3c-0.6-0.5-3.1-0.6-3.9-0.8c-1.4-0.3-0.5,0-1.3-0.9c-0.3-0.3,1.4-1.4,1.4-1.4c0.5-0.2,3.8-1.8,4.5-1.8
					c-0.1,0-0.2-0.1-0.3-0.2c0.5-0.2,1,0.5,1.5-0.4c0.4-0.8-1.1-0.4-1.4-0.1c-0.4,0.3-0.5,0.8-1,0.5c-0.3-0.2-0.6-0.4-0.9-0.7
					c-0.1-0.1,0.4-0.5,0.2-0.6C56,22.4,55,22.9,55,23c0.2,0.1,0.3,0.2,0.4,0.4c0,0-1.2,0.6-1.3,0.7c0.1,0,0.3-0.4,0.2-0.5
					c-0.2-0.3-1.2,0.2-1.5,0.3c-0.2,0-0.4-0.1-0.8-0.2c-0.1,0.1-0.3,0.1-0.5,0.1c0.1,0,0.1,0,0.2,0h0c0,0,0.1-0.1,0.2-0.1
					c-0.1,0-0.2,0-0.4,0c-0.1,0-0.2,0.1-0.3,0.1c0,0-0.4,1-0.9,0.3c-0.5-0.8-1.3-0.1-2-0.3c0,0,0.5-0.2,0.4-0.3c0-0.1-0.3,0-0.5,0.1
					c-1.8,0.3-3.2,1-4.8,1.8c-1,0.5-2,1.1-3,1.7c0.2,0.1-0.5,0.9-0.7,1.1c-0.4,0.4-0.9,0.9-1.1,1.2c0.1,0,0.3-0.1,0.4-0.1
					c-0.1,0.1-0.6,0.5-0.7,0.6c0.3-0.2,0.5-0.5,0.8-0.6c0,0-0.3,0.6-0.4,0.6c-0.4,0-1.1,0.7-1.3,1.3c0,0,0.4,0,0.4,0
					c0,0.1-1.1,0.6-0.9,0.7c0.5,0.6,0.6-0.2,0.1,1.1c-0.2,0.4-0.6,0.8-0.9,1.1c0.5-0.7,0.6-0.8,0.6-1.8c0,1.1-1.5,2.6-2.1,3.4
					c-0.7,0.8-1.2,1.5-1.8,2.4c-0.3,0.5-0.5,0.7-0.7,1.2c-0.4,0.8,0.1,0.6,0,1.4c-0.2,0.1-0.3,0.1-0.5,0.1c-0.2,0.3-0.2,1-0.3,1.3
					c-0.1,1.1-0.3,1.6-0.1,2.8c0.2,0.9,0.1,2.4,0.5,3.2c0.4,0.7-0.2,1.5-0.4,1.3c0.3,0.7,1.1,0.9,1,1.8c-0.1,0.7-0.3,0.7,0.1,1.4
					c0,0.1,0.6,1.3,0.5,1.4c1.1-0.6-0.3-3.6-0.4-4.5c0-0.3-0.2-3.8,0-3.8c1.1,0,0.7,1.8,0.6,2.4c-0.1,0.7,0.5,1,0.5,1.3
					c0.1,0.5-0.2,1.6,0.1,2.1c0.3,0.5,0.7,0.8,0.9,1.1c-0.2-0.4,0,0.9,0.2,0.8c0.1,0,0.1-0.6,0-0.7c0.6,0.8,0.8,3.1,0.5,3.8
					c-0.4,0.9,0.1,0.9,0.7,1.7c0.6,0.8,1.1,0.6,1.7,1.3c0.8,0.9,3.5,2.9,5,2.1c0,0-0.9-0.3-0.9-0.4c0.2-1.5,3.3,1.9,3.3,1.8
					c0.7,0.7,1.2,0.5,2,0.9c0.4,0.2,0.7,0.4,1.1,0.6c1.6,0.7,0.7-0.2,0.9-0.2c0.2,0.1,0.4,0.2,0.5,0.5c-0.1,0-0.2,0-0.4,0.1
					c0.1,0.4,1.2,1.3,1.4,1.5c0.4,0.4,0.3,1.6,0.5,1.6c0.1,0,0.8-0.9,0.9-0.1c0,0.1,0.2,1,0.5,0.6c0.7-0.7,0.2,1.4,0.9,1.1
					c-0.1-0.1-0.1-0.2-0.2-0.3c0.1-0.3,0.4,0.3,0.4,0.4c0.1,0.6,0.6,0,0.9,0c-0.1,0,1.2,0.7,1.2,0.6c0.2,0.4-0.2,0.8,0.6,0.6
					c0.9-0.3,0.1-0.5-0.1-0.8c0.1,0,0.9-0.9,1-1c0.6-0.3,0.9,1.2,1.3,0.5c-0.5,1,1.1,1.8,0.8,2.2c-0.2,0.3,0.4,0.6,0,0.8
					c-0.8,0.3,0.4,1.9,0.4,1.7c-0.1,0.4-0.7,1.4-1.1,1.4c-1.2,0-0.5,1.1-0.5,1.2c-0.2,0.6-1.5-0.1-1.3,0.9c0.1,0.3,0,0.4-0.2,0.6
					c-0.6,0.4,0.1,0.2,0,0.5c0,0.6-0.9,1.5-0.3,1.9c0.8,0.4,0.4-0.5,0.9-0.6c0.1,0,0,1,0,1.1c0,0.1-0.7,0.5-0.9,0.6
					c-0.2,0.2-0.8,0.6-0.5,1c0.2,0.2,0.4,0.5,0.5,0.8c-0.1,0.1-0.2,0.2-0.3,0.3c0.1,0.4,1.2,0.6,1.5,1c0.3,0.5,0.7,0.9,1,1.3
					c0.7,0.9,1,2.2,1.7,3.1c0.5,0.7,1.5,2.2,2.7,2.8c1,0.4,4.4,1.1,4.1,2.7c-0.1,0.5,0.3,1.8-0.2,2.2c-0.4,0.4,0,1.4-0.4,2.3
					c-0.1,0.3-0.6,2-0.7,2.1c-0.4,0.3,0.2,1.4-0.3,1.8c-0.2,0.5-0.8,0.7-0.9,1.2c0,0.1-0.3,1.1-0.3,1.2s0.6,0.8,0.7,0.4
					c0,0.1-0.4,0.9-0.2,0.9c-0.6,0.2-1.2,0.3-1.8,0.6c0.1-0.1,1.5,0,1.5,0.2c-0.1,0.3-0.7-0.2-0.8,0c-0.5,1.5,4.9-0.4,4.9-0.4
					c-0.1,0-0.9-0.2-0.8-0.3c0.2-0.1,2.5-1,2.2-1.1c-0.1,0-0.2,0-0.3-0.1c0.1-0.1,1.2-0.7,1.2-0.6c0,0.1-0.1,0.2-0.1,0.2
					c0-0.1,4-1.6,4.5-1.9c0.3-0.2,1.2-1.1,0.3-1c-0.6,0-1.1-0.8-0.2-0.8c-0.4,0.7,0.6,0.4,0.9,0.4c1.1-0.1,1.5-0.2,2.4-0.8
					c0.7-0.5,1.2-1.3,2-1.8c-0.1,0,0.8-0.7,0.6-0.3c-0.1,0.3-1.3,1.1-1.4,1.1c1.7-0.6,3.4-2.9,4-4.3c-0.1,0-0.1,0-0.2-0.1
					c0.8-1,3.3-2.3,4.4-2.8c0,0.1,0,0.1-0.1,0.2c1.6-0.2,2.4-3,3.2-4c0.5-0.7,0.9-1.5,1-2.4c0.1-0.4,0.3-1.8,0.5-2
					c1.3-0.8,1.5-2.7,2.6-3.7c0.4-0.3,0.6-0.3,0.7-1C96.7,79.2,96.6,78.6,96.6,78z M69.3,29.2C69.3,29.2,69.3,29.1,69.3,29.2
					C69.4,29.1,69.4,29.1,69.3,29.2C69.3,29.2,68.9,29.5,69.3,29.2z M64,27c-0.1,0-0.1,0.1-0.2,0.1h0C63.8,27.1,63.9,27,64,27z
					 M61.2,38.7c-0.1,0.1-0.3,0.3-0.4,0.4C60.8,38.9,61.1,38.8,61.2,38.7z M55.9,24.1C55.9,24.1,56,24.1,55.9,24.1
					c0.2,0.1,0.4,0.1,0.5,0.1c-0.2,0.1-0.9,0.2-1-0.1C55.2,24,55.7,24,55.9,24.1z M65.7,68.6C65.7,68.5,65.6,68.5,65.7,68.6l-0.1,0
					c0,0,0,0,0,0c0,0,0,0-0.1,0l0,0c-1.1-0.5,0-1.1,0.1-1.5C65.6,67,66.6,68.8,65.7,68.6z M85.9,77.4c-0.3,0-0.2-0.3-0.2-0.5
					c0.1,0.2,0.2,0.3,0.5,0.4C86.1,77.2,86,77.3,85.9,77.4z M74.5,66.7c0,0,0,0.1,0.1,0.1C74.5,66.8,74.5,66.8,74.5,66.7z
					 M65.9,102.9c0.1,0,0.1-0.1,0.1-0.1c0,0,0-0.1,0-0.1C66.1,102.8,66,102.8,65.9,102.9z"/>
				<path class="st1" d="M46.2,77.5c0.3,0.2,0.3,1.2,0.2,1.1C47.5,79.2,46.1,77.3,46.2,77.5z"/>
				<path class="st1" d="M84.9,76.6c0,0.1-0.1,0.4-0.1,0.4c0.3-0.2,0.5-0.6,0.6-0.9C85.4,76.1,84.9,76.6,84.9,76.6z"/>
				<path class="st1" d="M48.6,23.7c0.1,0,0.2-0.1,0.3-0.1C49.1,23.5,49.1,23.3,48.6,23.7C48.5,23.8,49.1,23.3,48.6,23.7z"/>
				<path class="st1" d="M68.8,34.1c-0.3-0.4-0.6-0.4-0.7-0.3C68.3,33.9,68.6,34,68.8,34.1C68.5,33.6,68.8,34,68.8,34.1z"/>
				<path class="st1" d="M68.3,34.4c0.1,0-1,0.6-1,0.7c0.2,1.2,0.9,0.3,1.3,0c0.6-0.4,1.2-0.3,2-0.8c0.1,0-1.6-0.2-1.8-0.3
					C69.3,34.7,68.6,34.3,68.3,34.4C68.1,34.5,68.5,34.3,68.3,34.4z"/>
				<path class="st1" d="M57.1,23.6c0,0,0.1,0,0.1-0.1C57,23.1,56.3,22.4,57.1,23.6C57.1,23.7,56.3,22.4,57.1,23.6z"/>
				<path class="st1" d="M60.7,41.6C60.5,41.2,60.6,41.5,60.7,41.6C60.7,41.6,60.7,41.6,60.7,41.6z"/>
				<path class="st1" d="M60.9,42.2c-0.1-0.2-0.1-0.4-0.2-0.6C60.7,41.9,60.8,42.1,60.9,42.2C60.8,42,60.9,42.3,60.9,42.2z"/>
				<path class="st1" d="M54.7,49.8c0-0.1,0-0.2,0-0.3C54.5,49.4,54.7,49.8,54.7,49.8C54.7,49.8,54.7,49.9,54.7,49.8z"/>
				<path class="st1" d="M97.6,38c0.1,0.1,0.8,1.5,0.8,1.5c-0.2,0.1-0.4-0.6-0.6-0.4c-0.1,0.1,2.5,5.4,2.5,6.2
					c-0.1,0.7,1.9,7.7,2.2,7.7c0.1,0,0-0.2,0-0.3c-0.2,0.6,0.6,2.8,0.7,3.4c0,0.3,0.1,1.1,0.4,1.3c0.1,0,0.2-0.1,0.3-0.1
					c-0.1,0.2-0.2,0.4-0.3,0.6c0.1,0,0.2,0,0.4,0c-0.1,0.2-0.2,0.4-0.2,0.6c0.1,0.3,0.6-0.3,0.5,0.3c-0.1,0.5,0.5,1.2,0.7,1.7
					c0.1,0.3,1.1,2.8,1,2.9c1-1.6,0.3-4,0.1-5.7c-0.4-2.3-0.9-4.6-1.7-6.9C102.7,46.2,100.5,41.8,97.6,38z"/>
			</g>
			<path class="st2" d="M81,48.1c-4.8,0-8.7,3.9-8.7,8.7c0,1.9,1.4,6.1,3.1,10.3c0.1,0.4,0.3,0.7,0.4,1.1c0,0.1,0.1,0.1,0.1,0.2
				c2.4,5.9,5.1,11.6,5.1,11.6s1.8-3.8,3.7-8.4c2.4-5.5,4.9-12.2,4.9-14.8C89.6,52,85.8,48.1,81,48.1z M81.4,61.4
				c-2.3,0-4.1-1.8-4.1-4.1c0-2.3,1.8-4.1,4.1-4.1s4.1,1.8,4.1,4.1C85.5,59.5,83.6,61.4,81.4,61.4z"/>
		</g>
	</g>
</g>
</svg>
