<?xml version="1.0" encoding="utf-8"?>
<!-- Generator: Adobe Illustrator 24.0.3, SVG Export Plug-In . SVG Version: 6.00 Build 0)  -->
<svg version="1.1" id="图层_1" xmlns="http://www.w3.org/2000/svg" xmlns:xlink="http://www.w3.org/1999/xlink" x="0px" y="0px"
	 viewBox="0 0 128 128" style="enable-background:new 0 0 128 128;" xml:space="preserve">
<style type="text/css">
	.st0{fill:#D0E7EF;}
	.st1{fill:#4ECDDA;}
	.st2{fill:#FF8D89;}
</style>
<g>
	<g>
		<g>
			<path class="st0" d="M108.86,63c0,25.35-20.54,45.9-45.86,45.9c-9.41,0-18.15-2.83-25.42-7.69c-5.04-3.36-9.37-7.7-12.73-12.74
				c-4.87-7.29-7.71-16.05-7.71-25.47c0-25.36,20.53-45.91,45.86-45.91c9.39,0,18.12,2.83,25.39,7.68
				c5.06,3.37,9.41,7.72,12.79,12.78C106.03,44.83,108.86,53.58,108.86,63z"/>
			<g>
				<path class="st1" d="M57.24,20.22c0.21,0.06,0.42,0.08,0.64,0.05c0.04-0.09,0.03-0.18-0.02-0.26
					C57.16,20.03,56.95,20.1,57.24,20.22C57.45,20.25,57.22,20.22,57.24,20.22z"/>
				<path class="st1" d="M59.6,20.21c0.43,0,0.41,0.01,0.5-0.4c-0.59,0.11-1.17,0.23-1.75,0.36C58.71,20.08,59.24,20.21,59.6,20.21
					C59.74,20.21,59.28,20.21,59.6,20.21z"/>
				<path class="st1" d="M52.75,20.92c0.16-0.05,0.31-0.12,0.47-0.18c-0.38,0.08-0.76,0.17-1.13,0.31
					C52.19,21.01,52.63,20.95,52.75,20.92C52.91,20.88,52.53,20.98,52.75,20.92z"/>
				<path class="st1" d="M55.51,20.62c0,0-1.12,0.26-0.84,0.22C54.96,20.79,55.23,20.69,55.51,20.62z"/>
				<path class="st1" d="M58.39,20.77c0.04,0,0.61-0.03,0.6-0.03c-0.92-0.26-1.96-0.06-2.86-0.18
					C56.88,20.66,57.63,20.72,58.39,20.77C58.58,20.77,57.63,20.72,58.39,20.77z"/>
				<path class="st1" d="M54.25,20.86c0.42-0.3-0.93,0.02-0.86,0.01C53.69,21.02,53.97,21.02,54.25,20.86
					C54.3,20.82,54.15,20.93,54.25,20.86z"/>
				<path class="st1" d="M59.8,21.03c-0.33-0.07-0.68-0.09-1.02-0.14C59.12,21,59.48,20.97,59.8,21.03
					C59.47,20.96,59.91,21.06,59.8,21.03z"/>
				<path class="st1" d="M55.25,21.45c0.27,0.08,0.5,0.02,0.69-0.21C56.21,20.92,54.82,21.13,55.25,21.45
					C55.44,21.59,55.09,21.34,55.25,21.45z"/>
				<path class="st1" d="M50,21.83c0.37-0.14,0.75-0.28,1.12-0.43c-0.25,0.04-1.69,0.62-1.64,0.63C49.68,22.01,49.85,21.94,50,21.83
					C50.38,21.69,49.83,21.9,50,21.83z"/>
				<path class="st1" d="M54.59,21.53c0-0.14-0.01-0.28-0.01-0.42c-0.14,0.14-0.23,0.3-0.28,0.49
					C54.41,21.66,54.51,21.63,54.59,21.53C54.65,21.4,54.54,21.61,54.59,21.53z"/>
				<path class="st1" d="M62.44,20.32c1.03,0.1,1.88,0.56,2.72,0.81c0.25,0.08,1.84,0.09,2,0.37c-0.1,0.15-0.2,0.3-0.3,0.45
					c0.23,0.1,0.46,0.19,0.69,0.27c0.04,0.06-0.46-0.02-0.46,0.1c0.01,0.95,1.01-0.32,1.25,0.01c0.06,0.09-0.1,0.67,0.3,0.39
					c-0.1,0.07-0.72,0.07-0.7,0.28c0.08,0.63,1.05-0.05,1.19,0c0.46,0.16,1.09,1,1.65,1.27c0.24,0.12,2.74,0.34,2.73,0.5
					c-0.16-0.3-0.39-0.52-0.69-0.67c0.05,0,0.1,0,0.15,0.01c-0.72-0.49-0.42-0.64-0.87-1.11c0.03,0.02,0.06,0.04,0.1,0.05
					c-0.19,0.04-0.33-0.01-0.42-0.16c0.27-0.21,0.58-0.31,0.92-0.31c-1.72-0.67-3.43-1.34-5.15-2.02c-0.57-0.22-1.2-0.59-1.8-0.7
					c-1.6,0.07-3.58,0.49-5.15,0.24C61.19,20.2,61.81,20.26,62.44,20.32C62.67,20.35,61.81,20.26,62.44,20.32z"/>
				<path class="st1" d="M71.78,21.23c0.46,0.11,0.9,0.2,1.14,0.26C72.97,21.51,72.25,21.32,71.78,21.23z"/>
				<path class="st1" d="M72.75,21.94c0.05-0.06,0.43-0.03,0.45-0.01c-0.16-0.13-1.8-0.72-1.8-0.72c0.13,0.01,0.25,0.02,0.38,0.03
					c-0.54-0.13-1.17-0.26-1.64-0.58c0.07,0.05,0.32,0.02,0.43,0.04c-0.64-0.15-1.29-0.24-1.94-0.39c0.11,0.02,0.25,0,0.35,0.02
					c-0.86-0.15-1.73-0.27-2.59-0.4c2.1,0.89,4.2,1.77,6.29,2.66C72.65,22.36,72.67,22.15,72.75,21.94
					C72.84,21.83,72.62,22.11,72.75,21.94z"/>
				<path class="st1" d="M49.69,22.7c0.43,0.09,4.28-0.74,3.04-1.34c-0.06-0.03-1.28,0.33-1.58,0.29c-0.49,0.11-1.16,0.55-1.65,0.57
					c0.25-0.05,0.5-0.09,0.76-0.1c-0.07-0.01-1.06,0.19-1.08,0.27C49.28,22.6,49.45,22.7,49.69,22.7
					C49.88,22.74,49.49,22.66,49.69,22.7z"/>
				<path class="st1" d="M65.97,21.44c0.21,0.09,0.83,0.13,0.89,0.16C66.57,21.51,66.27,21.45,65.97,21.44z"/>
				<path class="st1" d="M59.1,21.81c0.03-0.01,0.06-0.02,0.08-0.03C58.98,21.83,59.05,21.82,59.1,21.81z"/>
				<path class="st1" d="M58.55,21.29c0.01-0.13-0.01-0.26-0.05-0.38c-0.59-0.14-1.15,0.63-1.64,0.67c0.04,0,0.49-0.67,0.69-0.65
					c0.26,0.03-1.59,0.36-1.34,0.48c1.25,0.59,2.43-0.11,3.52,0.38c-0.92-0.41,1.08,0.44,1.01,0.34c0.42,0.6-0.03,0.07,0.72,0.33
					c0.49,0.18-1.11,0.69-1.16,0.71c-0.16,0.08-1.64-0.26-1.36,0.26c0.14,0.26,2.17-0.06,2.64,0.2c-0.05-0.03-0.29,0.09-0.36,0.07
					c0.35,0.12,2.3,0.78,2.63,0.53c1.16-0.88-0.96-0.77-0.83-1.18c0.36-1.06,1.01,0.06,1.33,0.03c1.32-0.15-0.34-0.89-0.79-0.92
					c-0.65-0.06-0.92-0.42-1.12-0.43c-0.44-0.02-0.88-0.06-1.32-0.1c-0.88-0.13-0.05-0.33-0.18-0.37
					C60.58,21.13,58.83,21.58,58.55,21.29C58.46,21.2,58.61,21.35,58.55,21.29z"/>
				<path class="st1" d="M76.12,23.04c0.18,0.09,1.99,0.44,2.01,0.51c-0.1-0.28-1.51-1.22-1.76-0.96c0.04,0.12,0.09,0.25,0.12,0.38
					C76.27,22.86,76.15,22.88,76.12,23.04C76.49,23.21,76.1,23.03,76.12,23.04z"/>
				<path class="st1" d="M76.14,22.97c0.23-0.27-0.48-0.13-0.52-0.14C75.8,22.88,75.97,22.93,76.14,22.97
					C76.18,22.93,75.97,22.95,76.14,22.97z"/>
				<path class="st1" d="M56.46,23.27c-0.06-0.02-1.17,0.56-1.12,0.64C55.53,24.26,58.38,24.01,56.46,23.27
					C56.38,23.24,56.66,23.35,56.46,23.27z"/>
				<path class="st1" d="M38.15,27.63c0,0-1.02,0.72-0.73,0.62C37.72,28.14,37.91,27.83,38.15,27.63z"/>
				<path class="st1" d="M85.39,26.93L85.39,26.93C85.41,26.95,85.42,26.96,85.39,26.93z"/>
				<path class="st1" d="M85.39,26.93c-0.18-0.14-0.36-0.27-0.54-0.39C84.9,26.74,85.21,26.79,85.39,26.93
					C85.33,26.89,85.21,26.79,85.39,26.93z"/>
				<path class="st1" d="M84.84,26.46c0.05,0.03,0.13,0.09,0.25,0.16C84.97,26.52,84.87,26.43,84.84,26.46z"/>
				<path class="st1" d="M86.95,27.87c0.27,0.24,1.8,1.22,1.83,1.29c-0.48-1.02-2.84-2-3.7-2.54
					C85.65,27.12,86.38,27.37,86.95,27.87C87.02,27.93,86.47,27.46,86.95,27.87z"/>
				<path class="st1" d="M84.61,26.4c-0.11-0.06-0.47-0.36,0.23,0.14c-0.01-0.02,0-0.18-0.07-0.15c0.08-0.03,0.24,0.1,0.33,0.11
					c-0.54-0.08-1.41-0.72-1.9-1C83.66,25.82,84.13,26.13,84.61,26.4C84.64,26.43,84.29,26.22,84.61,26.4z"/>
				<path class="st1" d="M87.44,28.79c0.09,0-1.72-1.61-2.08-1.83C86.04,27.41,86.7,28.78,87.44,28.79
					C87.56,28.79,86.45,28.77,87.44,28.79z"/>
				<path class="st1" d="M73.56,31.58c0.02,0.06,0.56,0.93,0.51,0.61c-0.02-0.11-0.68-0.84-0.32-0.95
					C73.66,31.33,73.59,31.44,73.56,31.58C73.64,31.78,73.62,31.47,73.56,31.58z"/>
				<path class="st1" d="M73.31,31.36c0.03,0.25,0.12,0.32,0.26,0.21C73.48,31.51,73.4,31.43,73.31,31.36
					C73.33,31.47,73.45,31.38,73.31,31.36z"/>
				<path class="st1" d="M70.96,29.29c0.05,0.08,0.12,0.03,0.18-0.15C71.09,29.19,70.94,29.21,70.96,29.29
					C70.97,29.3,70.94,29.21,70.96,29.29z"/>
				<path class="st1" d="M72.78,30.84c0.09-0.11,0.17-0.22,0.23-0.34c-0.47-0.53-0.77,0.28-0.98,0.2c-0.14-0.05-0.55-0.84-0.74-0.67
					c-0.04,0.15-0.12,0.28-0.24,0.38c-0.22-0.56,0.26-0.65-0.07-1.09c-0.18,0.18-0.95,1.82-1.05,1.77c0.52,0.23,0.48-0.11,1.13,0.33
					c0.84,0.57,0.66-0.24,1.05-0.02c0.29,0.16-0.08,0.67,0.34,0.74c0.48,0.09,0.23-0.85,0.85-0.77
					C73.11,30.58,72.88,31.14,72.78,30.84C72.73,30.7,72.81,30.95,72.78,30.84z"/>
				<path class="st1" d="M69.42,32.13c-0.57,0.55,0.02,1.34,0.22,0.9C69.43,33.5,69.67,31.88,69.42,32.13
					C69.33,32.22,69.48,32.06,69.42,32.13z"/>
				<path class="st1" d="M61,37.21c-0.01,0.04,1.43-0.4,1.52-0.43C62.2,36.82,61.08,36.8,61,37.21C60.97,37.31,61.08,36.8,61,37.21z
					"/>
				<path class="st1" d="M58.51,49.73c-0.21-0.16-0.63-0.23-0.63-0.23C58.11,49.6,58.35,49.66,58.51,49.73z"/>
				<path class="st1" d="M58.56,50.47c0.28-0.31,0.26-0.56-0.05-0.74C58.57,49.78,58.45,50.66,58.56,50.47
					C58.86,50.01,58.52,50.54,58.56,50.47z"/>
				<path class="st1" d="M40.67,52.42c0,0.01-0.01,0.02-0.01,0.02C40.65,52.47,40.66,52.46,40.67,52.42z"/>
				<path class="st1" d="M60.82,53.4c-0.05-0.3-0.31-0.53-0.46-0.79C60.31,53.05,60.79,53.24,60.82,53.4
					C60.77,53.1,60.84,53.56,60.82,53.4z"/>
				<path class="st1" d="M60.64,56.44c0.33-0.06,0.65-0.17,0.94-0.34c0.15-0.09-1.59-0.49-1.55-0.47c-0.3-0.18,0.67-0.37-0.23-0.52
					c-0.24-0.05-0.48-0.03-0.56-0.05c-0.91-0.29-1.55-0.92-2.64-1.06c-2.11-0.27-3.51-1.13-5.19,0.56c1.34,0.15,3.08-1.57,4.41-0.06
					c0.31,0.36,0.73,0.39,1.19,0.3c0.41-0.07,0.1,0.38,0.38,0.57c0.28,0.18,1.21,0.16,1.33,0.47c0.06,0.17-0.2,0.43-0.33,0.41
					C58.76,56.29,60.59,56.45,60.64,56.44C60.96,56.38,60.58,56.45,60.64,56.44z"/>
				<path class="st1" d="M95.69,36.09c-1.89-2.55-4.71-6.21-7.72-7.64c0.52,0.4,1.37,0.82,1.68,1.42c-0.03-0.06-0.27-0.13-0.35-0.2
					c0.04,0.04,0.82,0.9,0.54,0.65c-0.17-0.16,1.26,1.02,0.96,0.67c0.31,0.32,1.95,2.18,2.27,2.2c-0.24-0.12-0.49-0.16-0.75-0.13
					c-0.09,0.06,3.84,4.42,4.3,4.83C96.63,37.16,96.09,36.63,95.69,36.09C94.91,35.04,95.97,36.48,95.69,36.09z"/>
				<path class="st1" d="M63.96,58.21c0.73,0,1.88-0.84,2.69-0.53c0.17,0.07,0.76,0.37,0.61-0.22c-0.16-0.69-0.92-0.12-1.28-0.42
					c-0.05-0.04,0.49-0.17,0.43-0.25c-0.14-0.21-4.2-0.44-4.17-0.27c0.03,0.14,1.31,0.31,0.65,0.69c-0.09,0.05-1.67,0.68-1.59,0.7
					C62.17,58.1,63.07,58.21,63.96,58.21C64.34,58.21,63.07,58.21,63.96,58.21z"/>
				<path class="st1" d="M68.29,57.62c0.3,0.18,0.71,0.4,1.06,0.41c0.04,0,0.77-0.28,0.55-0.36C69.37,57.57,68.83,57.55,68.29,57.62
					z"/>
				<path class="st1" d="M71.88,65.4c0.11,0,0.22-0.01,0.34-0.01C71.77,65.33,71.66,65.33,71.88,65.4
					C71.99,65.4,71.85,65.4,71.88,65.4z"/>
				<path class="st1" d="M50.88,22.59c0.05,0,0.1,0,0.15,0.01c0.03-0.02,0.05-0.04,0.07-0.06C51.02,22.55,50.95,22.56,50.88,22.59z
					 M54.27,49.92c0.01,0,0.02-0.01,0.03-0.02c0,0,0.01-0.01,0.01-0.02C54.29,49.88,54.28,49.9,54.27,49.92z M95.56,77
					c-0.07-0.73-0.72-0.26-1.12-0.47c-0.01,0-0.01-0.01-0.02-0.01c-0.02-0.01-0.04-0.02-0.07-0.04c-0.17-0.13-0.59-0.43-0.77-0.52
					c0.17,0.03,0.39,0.2,0.54,0.14c0.12-0.05-1.13-0.74-1.19-0.77c-0.41-0.2-0.92,0.3-1.03,0.29c-0.38-0.03-0.41,0.04-0.68,0.02
					c-0.96-0.04-0.59,0.12-1.42,0.4c0.02-0.16,0.06-0.3,0.13-0.43c-0.08,0.1-0.55,0.93-0.57,0.93c-0.51-0.96,0.71-1.53-0.83-1.84
					c-0.82-0.14-2.23,0.59-2.77,1.5c0.05-0.2,0.02-0.33-0.3-0.19c0.47-0.59,0.84-0.98,1.16-1.67c-0.4,0.02-0.63,0.09-1.01,0.19
					c-1.02,0.24-0.51-0.02-0.7,0.87c0,0-0.48,0.21-0.96,0.42c0,0,0,0.01-0.01,0.01c-0.04,0.02-0.08,0.04-0.13,0.05
					c0,0.01,0,0.01,0,0.01c-0.36,0.16-0.69,0.31-0.78,0.36c0.26-0.54,0.94-0.94,1.24-1.59c0.05-0.09,0.75-1.05,0.99-1.26
					c0.33-0.28-0.96-2.87-1.32-3.09c0,0.14-0.03,0.27-0.12,0.38c-0.04-0.04-0.09-0.09-0.13-0.15c-0.18-0.25-0.33-0.59-0.42-0.65
					c-1.53-0.96-1.47,0-3.08-0.35c-1.19-0.26-2.01-0.33-2.64-1.33c-0.66-1.02-1.68-0.79-2.65-0.86c-0.12-0.01-0.24-0.02-0.36-0.05
					c0.09,0,0.19-0.06,0.28-0.15c0.24-0.23,0.44-0.66,0.36-0.81l-0.77-0.41c-0.01,0.04-0.02,0.08-0.03,0.12
					c-0.01,0.07-0.03,0.13-0.06,0.2c-0.14-0.14-0.29-0.27-0.45-0.39c0,0.13-0.01,0.27-0.01,0.4c-0.15-0.14-0.26-0.3-0.34-0.48
					c-0.09,0-0.6-0.39-0.45-0.39c-0.28-0.05-0.58-0.05-0.86,0c0.22,0.01-1.24,0.6-1.81,0.55c-0.76-0.07-1.97,0.28-2.59-0.31
					c-0.35-0.32-0.37-0.91-0.99-0.74c-0.72,0.2-0.45-0.83-0.81-0.73c0,0.06-1.48,1.58-1.52,1.58c-0.29-0.71-0.61-0.64,0.06-1.03
					c0.67-0.39-0.04-0.87-0.55-0.85c-0.38,0.02,0.04,0.6-0.22,0.74c-0.81,0.43-1.66-0.09-2.01,0.99c-0.51-0.37-1.66,0.37-1.26,0.86
					c0.48,0.59-0.73,1.14-0.81,1.76c-0.2,1.44-1.18-0.31-1.66-0.68c-0.54-0.39-1.18-0.18-1.69-0.1c0,0.01,0.01,0.01,0.01,0.01
					c-0.01,0-0.01-0.01-0.02-0.01h-0.01c-0.14,0.02-0.27,0.03-0.39,0.01c0.17-0.03,0.31-0.04,0.39-0.01
					c-0.14-0.07-0.38,0.04-0.52-0.03c0.04,0.02,0.08,0.03,0.12,0.04c-0.6,0.09-1.61,0.39-1.89,0.42c-0.5,0.06-1.33-1.62-1.44-1.97
					c-0.27-0.87-0.35-1.82-0.1-2.67c0.07-0.24,0.45-1.52,0.41-1.6c-0.68-1.49-5.35-0.13-5.45-0.97c-0.03-0.23,0.77-1.31,0.82-1.76
					c0.01-0.09-0.34-1.38,0.13-1.26c0.12,0.22,0.16,0.45,0.13,0.7c0.03,0,0.2-0.94,0.23-1.16C48.85,57.1,48.94,57,49,56.92
					c-0.09-0.03-0.19-0.06-0.28-0.09c-0.02-0.21,1.01-1.49,0.99-1.49c-0.32-0.12-3.77-0.83-3.41,0.57c0.44,1.64-1.74,1.95-2.83,2.11
					c-2.47,0.39-3.54-3.36-2.81-5.58c0.01-0.04,0.02-0.08,0.04-0.12c0,0,0.38-1.12,0.45-1.31c-0.06,0.1-0.12,0.21-0.19,0.31
					c0.22-1.95,0.22-2.5,1.84-3.34c-0.07,0.06-0.14,0.11-0.21,0.16c0.5-0.34,1.01-0.67,1.51-1c-0.08,0.05-0.16,0.14-0.25,0.19
					c0.87-0.48,1.8-0.96,2.79-0.25c0.33,0.24,1.11,0.9,0.86,0.06c-0.26-0.93,0.28-0.33,0.88-0.71c0.34-0.2,2.47-0.32,2.95-0.05
					c-0.09,0.01,0.02,0.4,0.02,0.45c0,0.01,0,0.01,0,0.01c0.25,0.45,0.93-0.4,1.32-0.26c0.37,0.12,1.12,0.95,1.13,1.34
					c0,0.01-0.03,0.3-0.07,0.58c-0.01,0.09-0.02,0.19-0.03,0.27c-0.02,0.11-0.04,0.21-0.06,0.24c0.12,0.09,0.65,0.64,0.66,0.86
					c0.05-0.07,0.1-0.16,0.13-0.1c0.03,0.06-0.07,0.09-0.14,0.13c0,0.04-0.03,0.06-0.09,0.07c-0.66,0.05,0.62,0.7,0.58,0.67
					c0.36,0.34,0.07,1.22,0.84,0.61c0.74-0.59,0.23-2.03-0.03-2.7c0-0.02-0.09-0.29-0.21-0.63c0.01,0.06,0.02,0.12,0.04,0.17
					c-0.04-0.09-0.06-0.21-0.09-0.3c0-0.01-0.01-0.04-0.01-0.04c-0.17-0.49-0.37-1.07-0.42-1.27c-0.17-0.74,0.1-1.75,0.72-2.2
					c0.35-0.24,4.1-2.73,4.1-2.89c-0.15-0.17-0.77,0.03-0.79-0.26c-0.02-0.21,0.65,0,0.76-0.12c0.02-0.02,0.03-0.04,0.04-0.05
					c0.06-0.1,0.03-0.18-0.05-0.27v-0.01c-0.18-0.21-0.61-0.38-0.65-0.53c0.75,0.16-0.07-1.05-0.19-1.25
					c0.11,0.12,0.22,0.23,0.33,0.34c-0.18-0.3-0.17-0.99,0.13-1.16C60.1,37.63,59.5,39,59.34,39c0.1,0.15,0.69,0.95,0.32,1.08
					c0.47-0.15,0.63-1.25,0.39-1.53c1.04,0.13,0.71-1.15,0.76-1.26c0.44-0.97,2.16-0.17,2.34-1.48c0.06-0.46,0.36-1.14,0.76-1.33
					c0.09-0.05,2.28-1.06,2.4-1.01c0.56,0.16,0.86-0.91,0.47-1.28c-0.13-0.11-1.26-0.45-1.42-0.55c0.18,0.06,1.64-0.37,1.55-0.4
					c-0.86-0.28-1.81-0.36-2.64,0.06c-0.07,0.04-1.66,1.4-1.67,1.28c-0.03-0.23,1.16-1.32,1.34-1.48c0.63-0.61,2.32-0.57,3.16-0.72
					c0.05,0.65,0.77,0.23,1.16,0.44c-0.37-0.17-0.75-0.32-1.13-0.44c0.39-0.07,1.58-0.09,1.87-0.31c0.75-0.48,0.43-0.63,1.36-0.78
					c0.88-0.14,0.68-1.01-0.08-1.11c-0.57-0.08-1.18-0.15-1.76-0.15c0,0,0.76-0.51,0.87-0.51c-1.32-0.7-1.48,0.36-2.81-0.89
					c0.07-0.01,0.15-0.03,0.22-0.05c-0.1-0.02-0.21-0.05-0.31-0.08c0.07-0.08,0.13-0.15,0.18-0.23c-0.29-0.13-0.59-0.24-0.89-0.34
					c0-0.07-0.67-0.7-0.71-0.7c-0.37-1.12-0.64,0.52-0.71,0.56c-0.4,0.19-2.5-0.59-2.48-0.72c0.03-0.14,0.77-0.3,0.68-0.39
					c-0.34-0.33-0.91-0.13-1.31-0.23c0.03-0.02,0.05-0.04,0.08-0.07c-0.66-0.1-2.66-0.95-2.28,0.4c0.23,0.78-0.57,0.35-0.68,1.01
					c-0.07,0.4,1.3,0.25,0.94,1.17c-0.3,0.76-1.49,0.43-1.76,0.94c0.09-0.16,0.48,1.11,0.48,1.12c0.65,0.67-0.62,0.71-0.66,0.75
					c-0.07,0.07,0.25,0.4,0.18,0.41c-1.03,0.08-0.71-1.8-1.27-2.34c-0.57-0.54-3.1-0.62-3.9-0.81c-1.38-0.32-0.47,0.05-1.27-0.91
					c-0.28-0.32,1.39-1.44,1.36-1.43c0.46-0.21,3.81-1.8,4.47-1.8c-0.12-0.03-0.22-0.09-0.31-0.18c0.52-0.24,1.04,0.45,1.53-0.4
					c0.42-0.75-1.13-0.35-1.37-0.14c-0.38,0.34-0.54,0.76-0.98,0.52c-0.33-0.2-0.63-0.42-0.93-0.67c-0.14-0.11,0.4-0.51,0.25-0.56
					c-0.11-0.04-1.09,0.48-1.09,0.5c0.17,0.09,0.31,0.22,0.42,0.36c-0.01,0.03-1.15,0.61-1.34,0.68c0.09-0.05,0.31-0.37,0.18-0.5
					c-0.24-0.26-1.24,0.21-1.51,0.27c-0.16,0.03-0.42-0.11-0.76-0.16c-0.13,0.11-0.29,0.14-0.46,0.1c0.06-0.01,0.11-0.02,0.15-0.03
					h0.01c0.05-0.04,0.1-0.06,0.15-0.08c-0.11-0.01-0.24,0-0.37,0.02c-0.1,0.03-0.21,0.07-0.32,0.13c0.03-0.02-0.43,1.02-0.86,0.29
					c-0.48-0.81-1.31-0.13-1.98-0.29c0,0,0.5-0.24,0.43-0.32c-0.05-0.06-0.33,0.05-0.55,0.15c-1.75,0.31-3.21,1-4.79,1.81
					c-1.03,0.53-2.03,1.1-3.01,1.71c0.16,0.11-0.52,0.9-0.74,1.12c-0.44,0.4-0.93,0.91-1.09,1.17c0.09-0.05,0.3-0.09,0.39-0.13
					c-0.13,0.12-0.56,0.53-0.68,0.64c0.29-0.18,0.5-0.47,0.79-0.65c0,0.05-0.27,0.6-0.41,0.61c-0.4,0.05-1.11,0.71-1.32,1.3
					c-0.01,0.03,0.38-0.01,0.38-0.02c-0.05,0.07-1.06,0.57-0.93,0.7c0.55,0.6,0.64-0.2,0.11,1.15c-0.18,0.42-0.63,0.79-0.91,1.13
					c0.45-0.7,0.63-0.81,0.62-1.8c-0.03,1.08-1.46,2.58-2.08,3.4c-0.65,0.83-1.2,1.51-1.75,2.42c-0.29,0.47-0.46,0.65-0.66,1.15
					c-0.35,0.84,0.09,0.64,0.05,1.38c-0.15,0.07-0.3,0.12-0.46,0.14c-0.23,0.34-0.24,0.95-0.29,1.33c-0.14,1.09-0.33,1.62-0.08,2.8
					c0.18,0.9,0.09,2.39,0.48,3.16c0.35,0.67-0.22,1.51-0.44,1.32c0.28,0.65,1.13,0.91,1,1.81c-0.12,0.74-0.26,0.74,0.06,1.36
					c0.04,0.09,0.64,1.34,0.53,1.4c1.1-0.57-0.32-3.61-0.41-4.55c-0.03-0.29-0.21-3.77,0.05-3.76c1.13,0.03,0.69,1.82,0.64,2.37
					c-0.07,0.74,0.45,0.98,0.55,1.33c0.14,0.48-0.17,1.63,0.11,2.08c0.28,0.46,0.72,0.75,0.91,1.1c-0.21-0.36,0.03,0.92,0.23,0.76
					c0.06-0.05,0.06-0.64,0.03-0.67c0.57,0.77,0.81,3.1,0.52,3.77c-0.38,0.92,0.06,0.88,0.66,1.7c0.62,0.83,1.1,0.59,1.74,1.29
					c0.82,0.91,3.5,2.87,4.97,2.12c-0.04,0-0.88-0.31-0.88-0.4c0.2-1.55,3.29,1.86,3.27,1.83c0.67,0.7,1.23,0.51,2.04,0.89
					c0.36,0.19,0.73,0.37,1.1,0.55c1.58,0.66,0.7-0.25,0.87-0.19c0.25,0.08,0.41,0.25,0.5,0.49c-0.12,0.02-0.24,0.04-0.36,0.06
					c0.08,0.36,1.17,1.27,1.44,1.53c0.38,0.36,0.27,1.56,0.48,1.58c0.09,0.02,0.81-0.92,0.9-0.14c0.01,0.13,0.18,0.97,0.51,0.64
					c0.65-0.67,0.22,1.41,0.94,1.11c-0.06-0.12-0.12-0.23-0.2-0.33c0.13-0.34,0.39,0.33,0.42,0.4c0.13,0.62,0.6,0,0.87-0.04
					c-0.06,0.01,1.21,0.74,1.21,0.56c0.21,0.39-0.17,0.77,0.57,0.55c0.88-0.26,0.12-0.48-0.09-0.84c0.07,0,0.93-0.94,1.05-1.01
					c0.56-0.32,0.93,1.22,1.34,0.48c-0.53,0.96,1.07,1.76,0.79,2.23c-0.19,0.29,0.41,0.62,0.03,0.77c-0.84,0.34,0.4,1.88,0.44,1.71
					c-0.1,0.41-0.71,1.42-1.09,1.42c-1.23-0.01-0.47,1.05-0.54,1.22c-0.23,0.63-1.53-0.09-1.31,0.86c0.11,0.26,0.05,0.45-0.19,0.59
					c-0.56,0.36,0.08,0.18,0.04,0.47c-0.05,0.59-0.92,1.51-0.26,1.9c0.75,0.44,0.38-0.47,0.87-0.63c0.13-0.04-0.02,0.99-0.03,1.06
					C56.69,80,56,80.33,55.88,80.47c-0.23,0.24-0.76,0.56-0.55,0.98c0.21,0.25,0.38,0.51,0.5,0.81c-0.09,0.11-0.19,0.21-0.29,0.32
					c0.09,0.44,1.21,0.55,1.5,0.99c0.32,0.48,0.7,0.87,1.04,1.33c0.68,0.95,0.96,2.17,1.69,3.07c0.54,0.67,1.46,2.25,2.73,2.81
					c1,0.45,4.38,1.05,4.1,2.71c-0.09,0.48,0.27,1.83-0.16,2.17c-0.44,0.4-0.02,1.4-0.39,2.26c-0.11,0.26-0.64,2.04-0.71,2.1
					c-0.45,0.31,0.2,1.36-0.29,1.8c-0.24,0.51-0.76,0.72-0.86,1.17c-0.03,0.11-0.3,1.11-0.27,1.17c0.03,0.06,0.62,0.8,0.71,0.43
					c-0.01,0.06-0.37,0.87-0.24,0.87c-0.6,0.19-1.24,0.27-1.81,0.55c0.1-0.05,1.5-0.02,1.45,0.23c-0.08,0.28-0.73-0.25-0.81,0.03
					c-0.45,1.46,4.89-0.39,4.92-0.39c-0.13-0.01-0.92-0.21-0.79-0.28c0.23-0.13,2.47-1.01,2.24-1.14c-0.11,0-0.21-0.02-0.31-0.06
					c0.13-0.07,1.22-0.68,1.22-0.59c0,0.07-0.13,0.17-0.1,0.23c0-0.13,3.99-1.64,4.5-1.91c0.31-0.17,1.18-1.05,0.31-1.01
					c-0.58,0.01-1.06-0.83-0.23-0.85c-0.44,0.66,0.55,0.44,0.88,0.42c1.11-0.06,1.53-0.18,2.45-0.83c0.74-0.53,1.24-1.31,2-1.83
					c-0.05,0,0.76-0.74,0.61-0.26c-0.09,0.28-1.3,1.1-1.4,1.13c1.67-0.61,3.43-2.87,4.01-4.32c-0.07-0.02-0.14-0.04-0.21-0.07
					c0.84-0.97,3.28-2.28,4.39-2.84c-0.02,0.06-0.04,0.13-0.05,0.2c1.59-0.15,2.45-2.98,3.21-4.04c0.53-0.7,0.87-1.5,1.01-2.39
					c0.06-0.41,0.29-1.84,0.51-1.98c1.33-0.84,1.5-2.72,2.64-3.66c0.43-0.34,0.64-0.32,0.65-0.97C95.68,78.23,95.61,77.61,95.56,77z
					 M68.33,28.16c0,0,0.01-0.01,0.03-0.03c0.01,0.01,0.01,0.02,0,0.03C68.33,28.25,67.87,28.48,68.33,28.16z M63.02,25.98
					c-0.05,0.05-0.11,0.09-0.18,0.11h-0.03C62.84,26.06,62.93,26.04,63.02,25.98z M60.22,37.73c-0.14,0.13-0.27,0.27-0.39,0.42
					C59.83,37.94,60.13,37.77,60.22,37.73z M54.87,23.09c0,0.01,0.1,0.02,0.1,0.02c0.13,0.05,0.26,0.08,0.39,0.13
					c-0.21,0.06-0.92,0.19-1.04-0.11C54.25,22.97,54.7,23.05,54.87,23.09z M64.68,67.56c-0.02-0.01-0.04-0.02-0.07-0.03l-0.05-0.02
					c-0.01,0-0.02-0.01-0.03-0.01c-0.02-0.01-0.04-0.02-0.05-0.02l-0.01-0.01c-1.09-0.48,0.01-1.05,0.06-1.54
					C64.58,66.04,65.63,67.85,64.68,67.56z M84.95,76.38c-0.31,0.04-0.25-0.26-0.22-0.54c0.09,0.23,0.25,0.35,0.47,0.36
					C85.11,76.25,85.03,76.31,84.95,76.38z M73.46,65.68c0.02,0.04,0.03,0.07,0.06,0.11C73.54,65.79,73.53,65.75,73.46,65.68z
					 M64.91,101.89c0.05-0.02,0.1-0.05,0.14-0.08c0.02-0.02,0.03-0.05,0.04-0.08C65.08,101.75,64.98,101.85,64.91,101.89z"/>
				<path class="st1" d="M45.23,76.47c0.3,0.24,0.33,1.19,0.18,1.09C46.55,78.25,45.1,76.33,45.23,76.47z"/>
				<path class="st1" d="M83.9,75.57c-0.02,0.09-0.11,0.43-0.13,0.45c0.27-0.25,0.47-0.55,0.59-0.89
					C84.37,75.06,83.9,75.57,83.9,75.57z"/>
				<path class="st1" d="M47.56,22.71c0.06-0.04,0.25-0.06,0.33-0.11C48.1,22.46,48.12,22.31,47.56,22.71
					C47.5,22.75,48.12,22.31,47.56,22.71z"/>
				<path class="st1" d="M67.82,33.06c-0.31-0.43-0.55-0.44-0.74-0.29C67.31,32.9,67.56,32.99,67.82,33.06
					C67.5,32.62,67.77,33.04,67.82,33.06z"/>
				<path class="st1" d="M67.26,33.38c0.14-0.05-1.01,0.62-1,0.7c0.2,1.15,0.9,0.35,1.33,0.05c0.55-0.37,1.23-0.3,1.99-0.8
					c0.05-0.03-1.57-0.23-1.76-0.28C68.26,33.67,67.59,33.26,67.26,33.38C67.05,33.46,67.49,33.3,67.26,33.38z"/>
				<path class="st1" d="M56.08,22.63c0.04-0.02,0.08-0.04,0.12-0.06C56.04,22.14,55.35,21.37,56.08,22.63
					C56.11,22.67,55.35,21.37,56.08,22.63z"/>
				<path class="st1" d="M59.69,40.63C59.53,40.25,59.61,40.52,59.69,40.63C59.66,40.56,59.68,40.62,59.69,40.63z"/>
				<path class="st1" d="M59.92,41.24c-0.07-0.2-0.1-0.44-0.23-0.6C59.68,40.88,59.76,41.09,59.92,41.24
					C59.85,41.04,59.93,41.26,59.92,41.24z"/>
				<path class="st1" d="M53.73,48.83c0.02-0.11,0.03-0.22,0.05-0.32C53.55,48.44,53.73,48.76,53.73,48.83
					C53.73,48.81,53.71,48.93,53.73,48.83z"/>
				<path class="st1" d="M96.55,36.96c0.05,0.14,0.82,1.5,0.79,1.51c-0.23,0.11-0.41-0.6-0.61-0.43c-0.09,0.08,2.52,5.43,2.46,6.2
					c-0.07,0.71,1.89,7.73,2.19,7.66c0.06-0.01,0.02-0.23,0.04-0.28c-0.24,0.57,0.58,2.75,0.67,3.44c0.04,0.34,0.06,1.12,0.39,1.35
					c0.1-0.04,0.21-0.06,0.32-0.07c-0.1,0.18-0.19,0.37-0.27,0.56c0.12-0.01,0.24-0.01,0.36-0.02c-0.08,0.21-0.17,0.42-0.23,0.63
					c0.1,0.28,0.62-0.32,0.48,0.31c-0.13,0.55,0.46,1.18,0.68,1.67c0.12,0.27,1.07,2.78,1,2.89c1.01-1.56,0.35-4.03,0.08-5.73
					c-0.37-2.33-0.92-4.63-1.65-6.87C101.74,45.17,99.47,40.82,96.55,36.96z"/>
			</g>
			<path class="st2" d="M79.96,47.06c-4.79,0-8.67,3.89-8.67,8.68c0,1.92,1.41,6.06,3.09,10.31c0.14,0.36,0.29,0.73,0.44,1.1
				c0.02,0.07,0.05,0.13,0.08,0.2c2.37,5.88,5.06,11.58,5.06,11.58s1.79-3.79,3.73-8.39c2.36-5.51,4.94-12.19,4.94-14.8
				C88.63,50.96,84.75,47.06,79.96,47.06z M80.36,60.4c-2.28,0-4.13-1.85-4.13-4.13c0-2.28,1.85-4.13,4.13-4.13
				c2.28,0,4.12,1.85,4.12,4.13C84.48,58.54,82.64,60.4,80.36,60.4z"/>
		</g>
	</g>
</g>
</svg>
