<?xml version="1.0" encoding="utf-8"?>
<!-- Generator: Adobe Illustrator 24.0.3, SVG Export Plug-In . SVG Version: 6.00 Build 0)  -->
<svg version="1.1" id="图层_1" xmlns="http://www.w3.org/2000/svg" xmlns:xlink="http://www.w3.org/1999/xlink" x="0px" y="0px"
	 viewBox="0 0 128 128" style="enable-background:new 0 0 128 128;" xml:space="preserve">
<style type="text/css">
	.st0{fill:#FB6262;}
	.st1{fill:#C1C1C1;}
	.st2{fill:#DDDCD9;}
	.st3{fill:#AAA9A9;}
	.st4{fill:#727272;}
	.st5{fill:#FF8D89;}
	.st6{opacity:0.55;fill:#9C171C;}
</style>
<polygon class="st0" points="52.39,38.08 52.39,45.38 28.48,45.38 28.61,45.15 30.61,41.73 28.48,38.08 "/>
<polygon class="st0" points="73.6,38.08 97.83,38.08 95.67,41.73 97.83,45.38 73.6,45.38 "/>
<rect x="63" y="52.2" class="st1" width="31.87" height="53.57"/>
<rect x="31.13" y="52.21" class="st2" width="31.87" height="53.56"/>
<rect x="27.53" y="45.15" class="st2" width="35.47" height="15.45"/>
<rect x="63" y="45.15" class="st1" width="35.47" height="15.45"/>
<rect x="31.13" y="60.59" class="st3" width="31.87" height="2.68"/>
<rect x="63" y="60.58" class="st4" width="31.87" height="2.68"/>
<rect x="57.97" y="45.15" class="st5" width="5.03" height="15.45"/>
<rect x="63" y="45.15" class="st0" width="5.03" height="15.45"/>
<rect x="57.97" y="63.27" class="st5" width="5.03" height="42.51"/>
<rect x="63" y="63.27" class="st0" width="5.03" height="42.51"/>
<rect x="57.97" y="60.6" class="st0" width="5.03" height="2.67"/>
<rect x="63" y="60.6" class="st6" width="5.03" height="2.67"/>
<g>
	<g>
		<polygon class="st5" points="37.09,28.86 36.34,29.92 35.41,31.21 34.61,32.35 34.57,32.4 33.63,30 33.63,28.74 35.06,28.79 		"/>
		<polygon class="st5" points="62.75,41.38 62.66,43.67 61.72,42.53 59.82,39.63 		"/>
		<path class="st5" d="M62.75,41.38l-0.06-0.03l-1.25-0.54l-0.63-0.27l-0.55-0.24L36.34,29.92l-1.56-0.68l-1.15-0.5
			c0,0,4.36-8.51,28.27,11.91C62.18,40.89,62.46,41.13,62.75,41.38z"/>
		<g>
			<path class="st0" d="M34.66,29.69c0,0,0.56-8.72,27.82,12.12C62.48,41.81,32.72,48.55,34.66,29.69z"/>
			<path class="st5" d="M62.75,41.38v4.77c-0.57,0-1.13,0-1.68-0.02c-1.07-0.01-2.1-0.05-3.09-0.11c-2.41-0.12-4.58-0.34-6.55-0.64
				c-0.49-0.07-0.96-0.15-1.42-0.23c-9.59-1.69-13.75-5.12-15.4-7.07c-0.74-0.87-0.98-1.45-0.98-1.45v-7.89
				c0.28,0.53,0.61,1.04,0.98,1.52c0.24,0.33,0.51,0.65,0.8,0.95c2.86,3.11,7.49,5.32,12.13,6.87c1.65,0.55,3.29,1.02,4.85,1.42
				c3.45,0.85,6.52,1.37,8.41,1.63c0.06,0.01,0.12,0.02,0.17,0.03c0.31,0.04,0.57,0.08,0.8,0.11c0.54,0.06,0.88,0.1,0.96,0.11
				C62.74,41.38,62.75,41.38,62.75,41.38z"/>
		</g>
	</g>
	<g>
		<polygon class="st5" points="88.92,28.86 91.43,32.39 92.37,30 92.37,28.74 		"/>
		<polygon class="st5" points="63.25,41.38 63.35,43.67 64.29,42.53 66.18,39.63 		"/>
		<path class="st5" d="M92.38,28.74l-0.4,0.18l-0.75,0.32l-1.56,0.67L65.75,40.3l-0.55,0.24l-0.89,0.39l-0.99,0.42l-0.06,0.03
			c0.24-0.21,0.48-0.42,0.72-0.62c15.99-13.69,23.28-14.48,26.36-13.48C91.89,27.78,92.38,28.74,92.38,28.74z"/>
		<g>
			<path class="st0" d="M91.34,29.69c0,0-0.56-8.72-27.82,12.12C63.52,41.81,93.28,48.55,91.34,29.69z"/>
			<path class="st5" d="M63.25,41.38c0,0,23.7-2.39,29.12-12.64v7.89c0,0-3.95,9.53-29.12,9.53V41.38z"/>
		</g>
	</g>
	<g>
		<g>
			<path class="st0" d="M62.77,40.54v6.11c-0.73,0-1.37-0.21-1.7-0.52c-0.16-0.15-0.25-0.32-0.25-0.49v-4.09
				c0-0.1,0.03-0.19,0.08-0.28c0.02-0.04,0.04-0.08,0.07-0.11c0.08-0.1,0.18-0.19,0.31-0.27c0.05-0.02,0.1-0.05,0.16-0.08
				c0.06-0.03,0.13-0.06,0.2-0.08c0.08-0.04,0.17-0.06,0.26-0.08C62.16,40.58,62.46,40.54,62.77,40.54z"/>
			<path class="st0" d="M64.72,41.55v4.09c0,0.18-0.09,0.35-0.26,0.5c-0.08,0.08-0.19,0.15-0.31,0.21c-0.3,0.15-0.7,0.26-1.15,0.29
				c-0.08,0.01-0.15,0.01-0.23,0.01v-6.11c0.46,0,0.88,0.08,1.21,0.22c0.07,0.02,0.13,0.05,0.19,0.08c0.05,0.03,0.1,0.06,0.14,0.09
				c0.07,0.05,0.13,0.1,0.18,0.15c0.05,0.04,0.08,0.08,0.12,0.13C64.68,41.31,64.72,41.43,64.72,41.55z"/>
		</g>
	</g>
</g>
</svg>
