<?xml version="1.0" encoding="utf-8"?>
<!-- Generator: Adobe Illustrator 24.0.3, SVG Export Plug-In . SVG Version: 6.00 Build 0)  -->
<svg version="1.1" id="图层_1" xmlns="http://www.w3.org/2000/svg" xmlns:xlink="http://www.w3.org/1999/xlink" x="0px" y="0px"
	 viewBox="0 0 16.4 112.1" style="enable-background:new 0 0 16.4 112.1;" xml:space="preserve">
<style type="text/css">
	.st0{fill:none;stroke:#1D1D1B;stroke-miterlimit:10;stroke-dasharray:4,4;}
	.st1{fill:#1D1D1B;}
</style>
<line class="st0" x1="8.2" y1="0" x2="8.2" y2="99.4"/>
<g>
	<path class="st1" d="M8.2,99c0.2,0,0.3,0.1,0.3,0.3s-0.1,0.3-0.3,0.3c-0.2,0-0.3-0.1-0.3-0.3S8.1,99,8.2,99z"/>
	<path class="st1" d="M1.2,107.9c0.4-1.3,1.6-2.1,2.7-1.8c1,0.3,1.5,1.7,1.1,3c-0.4,1.3-1.6,2.1-2.7,1.8c-0.4-0.1-0.8-0.4-1-0.9
		C1,109.5,1,108.7,1.2,107.9L1.2,107.9z M9.6,99.4c0.4-1,2.3-5.6,3.2-8.8c1-3.7,0.8-4.2,0.5-4.3L6.9,99.4c-1.3,2.8-0.8,3-2.1,4.1
		c-0.9,0.7-2.1,1.4-2.8,1.9c-0.8,0.4-1.4,1.2-1.8,2.2c-0.3,1-0.3,2.1,0.2,3c0.4,0.7,0.9,1.2,1.6,1.4c1.6,0.5,3.3-0.6,4-2.5
		c0.5-1.2,0.2-4.4,0.5-5.6c0.2-0.8,1-1.8,1.7-2.6C8.7,100.8,9.2,100.3,9.6,99.4z"/>
	<path class="st1" d="M15.1,110.1c-0.2,0.4-0.6,0.8-1,0.9c-1,0.3-2.2-0.5-2.7-1.8c-0.4-1.3,0.1-2.7,1.1-3c1-0.3,2.2,0.5,2.7,1.8
		C15.4,108.7,15.4,109.5,15.1,110.1L15.1,110.1z M8.2,101.3c0.7,0.8,1.5,1.8,1.7,2.6c0.3,1.2,0,4.4,0.5,5.6c0.7,1.9,2.4,3,4,2.5
		c0.7-0.2,1.3-0.7,1.6-1.4c0.4-0.9,0.5-1.9,0.2-3c-0.3-1-1-1.8-1.8-2.2c-0.6-0.5-1.9-1.2-2.8-1.9c-1.4-1.1-0.8-1.3-2.1-4.1L3.1,86.3
		c-0.3,0-0.5,0.6,0.5,4.3c0.9,3.2,2.8,7.8,3.2,8.8C7.2,100.3,7.7,100.8,8.2,101.3z"/>
</g>
</svg>
