<?xml version="1.0" encoding="utf-8"?>
<!-- Generator: Adobe Illustrator 24.0.3, SVG Export Plug-In . SVG Version: 6.00 Build 0)  -->
<svg version="1.1" id="图层_1" xmlns="http://www.w3.org/2000/svg" xmlns:xlink="http://www.w3.org/1999/xlink" x="0px" y="0px"
	 viewBox="0 0 128 128" style="enable-background:new 0 0 128 128;" xml:space="preserve">
<style type="text/css">
	.st0{fill:#FF8D89;}
	.st1{fill:#D0E7EF;}
	.st2{fill:#D6AC6D;}
	.st3{fill:#FFFFFF;}
	.st4{fill:#EBE1B5;}
	.st5{fill:#4ECDDA;}
	.st6{fill:#00A1B3;}
	.st7{fill:#196975;}
	.st8{fill:#FB6262;}
	.st9{fill:#414042;}
	.st10{fill:#6D6E71;}
	.st11{fill:#BA3B10;}
</style>
<g>
	<g>
		<rect x="36.4" y="32.2" class="st0" width="53.6" height="72.5"/>
		<rect x="37.2" y="34.7" class="st1" width="50.4" height="69.2"/>
		<rect x="37.7" y="34.1" class="st1" width="50.4" height="69.2"/>
		<rect x="38.4" y="33.6" class="st1" width="50.4" height="69.2"/>
		<rect x="39" y="32.9" class="st1" width="50.4" height="69.2"/>
		<g>
			<path class="st2" d="M42.1,35.2c0,0.5-0.4,0.9-0.9,0.9c-0.5,0-0.9-0.4-0.9-0.9c0-0.5,0.4-0.9,0.9-0.9
				C41.7,34.3,42.1,34.7,42.1,35.2z"/>
			<path class="st2" d="M46.6,35.2c0,0.5-0.4,0.9-0.9,0.9c-0.5,0-0.9-0.4-0.9-0.9c0-0.5,0.4-0.9,0.9-0.9
				C46.2,34.3,46.6,34.7,46.6,35.2z"/>
			<path class="st2" d="M51.1,35.2c0,0.5-0.4,0.9-0.9,0.9c-0.5,0-0.9-0.4-0.9-0.9c0-0.5,0.4-0.9,0.9-0.9
				C50.8,34.3,51.1,34.7,51.1,35.2z"/>
			<path class="st2" d="M55.6,35.2c0,0.5-0.4,0.9-0.9,0.9c-0.5,0-0.9-0.4-0.9-0.9c0-0.5,0.4-0.9,0.9-0.9
				C55.2,34.3,55.6,34.7,55.6,35.2z"/>
			<path class="st2" d="M60.1,35.2c0,0.5-0.4,0.9-0.9,0.9c-0.5,0-0.9-0.4-0.9-0.9c0-0.5,0.4-0.9,0.9-0.9
				C59.7,34.3,60.1,34.7,60.1,35.2z"/>
			<path class="st2" d="M64.7,35.2c0,0.5-0.4,0.9-0.9,0.9S63,35.6,63,35.2c0-0.5,0.4-0.9,0.9-0.9S64.7,34.7,64.7,35.2z"/>
			<path class="st2" d="M69.2,35.2c0,0.5-0.4,0.9-0.9,0.9c-0.5,0-0.9-0.4-0.9-0.9c0-0.5,0.4-0.9,0.9-0.9
				C68.8,34.3,69.2,34.7,69.2,35.2z"/>
			<path class="st2" d="M73.7,35.2c0,0.5-0.4,0.9-0.9,0.9S72,35.6,72,35.2c0-0.5,0.4-0.9,0.9-0.9S73.7,34.7,73.7,35.2z"/>
			<path class="st2" d="M78.3,35.2c0,0.5-0.4,0.9-0.9,0.9c-0.5,0-0.9-0.4-0.9-0.9c0-0.5,0.4-0.9,0.9-0.9
				C77.9,34.3,78.3,34.7,78.3,35.2z"/>
			<path class="st2" d="M82.8,35.2c0,0.5-0.4,0.9-0.9,0.9s-0.9-0.4-0.9-0.9c0-0.5,0.4-0.9,0.9-0.9S82.8,34.7,82.8,35.2z"/>
			<path class="st2" d="M87.2,35.2c0,0.5-0.4,0.9-0.9,0.9s-0.9-0.4-0.9-0.9c0-0.5,0.4-0.9,0.9-0.9C86.9,34.3,87.2,34.7,87.2,35.2z"
				/>
		</g>
		<g>
			<path class="st0" d="M46.3,31.7c0,0.2,0,0.3-0.2,0.4c-0.2,0.1-0.5,0.1-0.6-0.2c0-0.1-0.1-0.2-0.1-0.3c-0.4-1.2-1.6-2-2.8-1
				c-0.6,0.5-0.9,1-1.1,1.7c-0.1,0.2-0.1,0.5-0.1,0.7c0,0.2,0,0.4,0,0.6s0,0.4,0.1,0.7c0,0.1,0,0.2,0.1,0.3c0,0.1,0,0.2,0.1,0.3v0.1
				c0.1,0.5-0.7,0.6-0.8,0.1c0-0.1,0-0.1,0-0.1c0-0.1,0-0.2-0.1-0.2c0-0.1,0-0.2-0.1-0.4c0-0.2,0-0.4-0.1-0.7c0-0.2,0-0.4,0-0.6
				s0.1-0.5,0.1-0.7c0.3-1.1,0.9-2.2,1.9-2.6c1.4-0.6,2.6-0.1,3.3,1C46,31,46.2,31.3,46.3,31.7C46.2,31.7,46.3,31.7,46.3,31.7z"/>
		</g>
		<g>
			<path class="st0" d="M50.8,31.8c0,0.1,0,0.2-0.1,0.3c-0.2,0.2-0.6,0.2-0.7-0.2c0-0.1,0-0.1-0.1-0.2c-0.4-1.2-1.6-2.1-2.8-1.1
				c-0.4,0.3-0.7,0.7-0.9,1.1l0,0c-0.1,0.1-0.1,0.3-0.2,0.4c0,0.1,0,0.1-0.1,0.2c-0.1,0.2-0.1,0.5-0.1,0.7c0,0.2,0,0.4,0,0.6
				s0,0.4,0.1,0.7c0,0.1,0,0.2,0.1,0.3c0,0.1,0,0.2,0.1,0.3v0.1c0.1,0.5-0.7,0.6-0.8,0.1c0-0.1,0-0.1,0-0.1c0-0.1,0-0.1-0.1-0.2
				c0-0.1-0.1-0.3-0.1-0.4c0-0.2,0-0.4-0.1-0.7c0-0.2,0-0.4,0-0.6s0.1-0.5,0.1-0.7c0.1-0.2,0.1-0.5,0.2-0.7c0.1-0.3,0.3-0.7,0.5-0.9
				c0.3-0.5,0.8-0.9,1.2-1c1.4-0.7,2.6-0.1,3.3,1.1C50.6,31,50.7,31.4,50.8,31.8C50.8,31.7,50.8,31.8,50.8,31.8z"/>
		</g>
		<g>
			<path class="st0" d="M55.4,31.8c0,0.1,0,0.2-0.1,0.3c-0.2,0.2-0.6,0.2-0.7-0.2c0-0.1,0-0.1-0.1-0.2c-0.4-1.2-1.6-2.1-2.8-1.1
				c-0.4,0.3-0.8,0.8-0.9,1.2c0,0.1-0.1,0.2-0.1,0.3c0,0.1,0,0.2-0.1,0.2c-0.1,0.2-0.1,0.5-0.1,0.7s0,0.4,0,0.6s0,0.4,0.1,0.7
				c0,0.1,0,0.2,0.1,0.3c0,0.1,0,0.2,0.1,0.3v0.1c0.1,0.5-0.7,0.6-0.8,0.1c0-0.1,0-0.1,0-0.1c0-0.1,0-0.2-0.1-0.3
				c0-0.1,0-0.2-0.1-0.3c0-0.2,0-0.4-0.1-0.7c0-0.2,0-0.4,0-0.6s0.1-0.5,0.1-0.7s0.1-0.4,0.2-0.6c0.1-0.3,0.3-0.7,0.5-0.9
				c0.3-0.5,0.8-0.9,1.2-1.1c1.4-0.7,2.6-0.1,3.3,1.1C55.1,31,55.3,31.4,55.4,31.8C55.4,31.7,55.4,31.8,55.4,31.8z"/>
		</g>
		<g>
			<path class="st0" d="M59.9,31.8c0,0.1,0,0.2-0.1,0.3c-0.2,0.2-0.6,0.2-0.7-0.2c0-0.1,0-0.1-0.1-0.2c-0.4-1.2-1.6-2.1-2.8-1.1
				c-0.4,0.3-0.8,0.8-0.9,1.2c0,0.1-0.1,0.2-0.1,0.3c0,0.1-0.1,0.2-0.1,0.2C55,32.4,55,32.7,55,32.9s0,0.4,0,0.6s0,0.4,0.1,0.7
				c0,0.1,0,0.2,0.1,0.3c0,0.1,0,0.2,0.1,0.2v0.1c0.1,0.5-0.7,0.6-0.8,0.1c0-0.1,0-0.1,0-0.1c0-0.1-0.1-0.2-0.1-0.3s0-0.2-0.1-0.3
				c0-0.2,0-0.4,0-0.7c0-0.2,0-0.4,0-0.6c0-0.2,0.1-0.5,0.1-0.7s0.1-0.4,0.2-0.6c0.1-0.3,0.3-0.7,0.5-0.9c0.3-0.5,0.8-0.9,1.2-1.1
				c1.4-0.7,2.6-0.1,3.3,1.1C59.7,31,59.8,31.4,59.9,31.8C59.9,31.7,59.9,31.8,59.9,31.8z"/>
		</g>
		<g>
			<path class="st0" d="M64.5,31.8c0,0.1,0,0.2-0.1,0.3c-0.2,0.2-0.6,0.2-0.7-0.2c0-0.1,0-0.1-0.1-0.2c-0.4-1.2-1.6-2.1-2.8-1.1
				c-0.4,0.3-0.8,0.8-0.9,1.2c-0.1,0.1-0.1,0.2-0.1,0.3c0,0.1,0,0.1-0.1,0.2c0,0.3,0,0.5,0,0.7s0,0.4,0,0.6s0,0.4,0.1,0.7
				c0,0.1,0,0.2,0.1,0.3c0,0.1,0,0.1,0.1,0.2v0.1c0.1,0.5-0.7,0.6-0.8,0.1c0-0.1,0-0.1,0-0.1c0-0.1-0.1-0.2-0.1-0.3s0-0.2,0-0.3
				c0-0.2,0-0.4-0.1-0.7c0-0.2,0-0.4,0-0.6s0.1-0.5,0.1-0.7s0.1-0.4,0.2-0.6c0.1-0.3,0.3-0.7,0.5-0.9c0.3-0.5,0.8-0.9,1.2-1.1
				c1.4-0.7,2.6-0.1,3.3,1.1C64.3,31,64.4,31.4,64.5,31.8C64.5,31.7,64.5,31.8,64.5,31.8z"/>
		</g>
		<g>
			<path class="st0" d="M69.1,31.8c0,0.1,0,0.2-0.1,0.3c-0.2,0.2-0.6,0.2-0.7-0.2c0-0.1,0-0.1-0.1-0.2c-0.4-1.2-1.6-2.1-2.8-1.1
				c-0.4,0.3-0.8,0.8-0.9,1.2c0,0.1-0.1,0.2-0.1,0.3c0,0.1-0.1,0.2-0.1,0.2c-0.1,0.2-0.1,0.5-0.1,0.7s0,0.4,0,0.6s0,0.4,0.1,0.7
				c0,0.1,0,0.2,0.1,0.3c0,0.1,0,0.1,0.1,0.2v0.1c0.1,0.5-0.6,0.6-0.8,0.1c0-0.1,0-0.1,0-0.1c0-0.1-0.1-0.2-0.1-0.3s0-0.2-0.1-0.3
				c0-0.2,0-0.4,0-0.7c0-0.2,0-0.4,0-0.6c0-0.2,0.1-0.5,0.1-0.7s0.1-0.4,0.2-0.6c0.1-0.3,0.3-0.7,0.5-0.9c0.3-0.5,0.8-0.9,1.2-1.1
				c1.4-0.7,2.6-0.1,3.3,1.1C68.8,31,69,31.4,69.1,31.8C69.1,31.7,69.1,31.8,69.1,31.8z"/>
		</g>
		<g>
			<path class="st0" d="M73.6,31.8c0,0.1,0,0.2-0.1,0.3c-0.2,0.2-0.6,0.2-0.7-0.2c0-0.1,0-0.1-0.1-0.2c-0.4-1.2-1.6-2.1-2.8-1.1
				c-0.4,0.3-0.8,0.8-0.9,1.2c0,0.1-0.1,0.2-0.1,0.3c0,0.1,0,0.1-0.1,0.2c-0.1,0.2-0.1,0.5-0.1,0.7s0,0.4,0,0.6s0,0.4,0.1,0.7
				c0,0.1,0,0.3,0.1,0.4c0,0.1,0,0.1,0,0.2v0.1c0.1,0.5-0.7,0.6-0.8,0.1c0-0.1,0-0.1,0-0.1c0-0.1-0.1-0.2-0.1-0.3s0-0.2,0-0.3
				c0-0.2,0-0.4-0.1-0.7c0-0.2,0-0.4,0-0.6c0-0.2,0.1-0.5,0.1-0.7s0.1-0.4,0.2-0.6c0.1-0.3,0.3-0.7,0.5-0.9c0.3-0.5,0.8-0.9,1.2-1.1
				c1.4-0.7,2.6-0.1,3.3,1.1C73.4,31,73.5,31.4,73.6,31.8C73.6,31.7,73.6,31.8,73.6,31.8z"/>
		</g>
		<g>
			<path class="st0" d="M78.2,31.8c0,0.1,0,0.2-0.1,0.3c-0.2,0.2-0.6,0.2-0.7-0.2c0-0.1,0-0.1-0.1-0.2c-0.4-1.2-1.6-2.1-2.8-1.1
				c-0.4,0.3-0.8,0.8-0.9,1.2c0,0.1-0.1,0.2-0.1,0.3c0,0.1-0.1,0.2-0.1,0.2c-0.1,0.2-0.1,0.5-0.1,0.7s0,0.4,0,0.6s0,0.4,0.1,0.7
				c0,0.1,0.1,0.3,0.1,0.4v0.1c0,0,0,0,0,0.1c0.1,0.5-0.7,0.6-0.8,0.1c0-0.1,0-0.1,0-0.1c0-0.1-0.1-0.2-0.1-0.3s0-0.2,0-0.3
				c0-0.2,0-0.4-0.1-0.7c0-0.2,0-0.4,0-0.6c0-0.2,0.1-0.5,0.1-0.7s0.1-0.4,0.2-0.6c0.1-0.3,0.3-0.7,0.5-0.9c0.3-0.5,0.8-0.9,1.2-1.1
				c1.4-0.7,2.6-0.1,3.3,1.1C78,31,78.1,31.4,78.2,31.8C78.2,31.7,78.2,31.8,78.2,31.8z"/>
		</g>
		<g>
			<path class="st0" d="M82.7,31.8c0,0.1,0,0.2-0.1,0.3c-0.2,0.2-0.6,0.2-0.7-0.2c0-0.1,0-0.1-0.1-0.2c-0.4-1.2-1.6-2.1-2.8-1.1
				c-0.4,0.3-0.8,0.8-0.9,1.2C78,31.9,78,31.9,78,32c0,0.1-0.1,0.1-0.1,0.2c-0.1,0.2-0.1,0.5-0.1,0.7s0,0.4,0,0.6s0,0.4,0.1,0.7
				c0,0.2,0.1,0.3,0.1,0.5c0,0,0,0,0,0.1v0.1c0.1,0.5-0.7,0.6-0.8,0.1c0-0.1,0-0.1,0-0.1c0-0.1-0.1-0.2-0.1-0.4c0-0.1,0-0.2,0-0.2
				c0-0.2-0.1-0.4-0.1-0.7c0-0.2,0-0.4,0-0.6s0.1-0.5,0.1-0.7s0.1-0.4,0.2-0.6c0.1-0.3,0.3-0.7,0.5-0.9c0.3-0.5,0.8-0.9,1.3-1.1
				c1.4-0.7,2.6-0.1,3.3,1.1C82.5,31,82.6,31.4,82.7,31.8C82.7,31.7,82.7,31.8,82.7,31.8z"/>
		</g>
		<g>
			<path class="st0" d="M87,32.1c-0.2,0.1-0.5,0-0.5-0.3c0-0.1-0.1-0.3-0.1-0.4c-0.5-1.1-1.6-1.9-2.7-0.9c-0.4,0.3-0.8,0.8-0.9,1.2
				c0,0.1-0.1,0.2-0.1,0.3c0,0.1,0,0.1-0.1,0.2c-0.1,0.2-0.1,0.5-0.1,0.7s0,0.4,0,0.6s0,0.4,0.1,0.7c0,0.2,0.1,0.4,0.1,0.5l0,0
				c0,0,0,0,0,0.1c0.1,0.5-0.7,0.6-0.8,0.1c0-0.1,0-0.1,0-0.1c0-0.1-0.1-0.2-0.1-0.4c0-0.1,0-0.1,0-0.2c0-0.2,0-0.4-0.1-0.7
				c0-0.2,0-0.4,0-0.6s0.1-0.5,0.1-0.7s0.1-0.4,0.2-0.6c0.1-0.3,0.3-0.7,0.5-0.9c0.3-0.5,0.8-0.9,1.2-1.1c1.3-0.6,2.6-0.1,3.2,0.9
				c0.2,0.3,0.3,0.6,0.4,0.9c0,0.1,0,0.1,0,0.2C87.3,31.9,87.2,32,87,32.1z"/>
		</g>
		<g>
			<path class="st0" d="M88.6,32c0-0.2,0.2-0.8,0.1-1.2c0-0.3-0.1-0.6-0.4-0.5c0,0,0,0-0.1,0c-0.5,0.2-0.8,0.7-0.9,1.1
				c0,0.1-0.1,0.2-0.1,0.3c0,0.1-0.1,0.2-0.1,0.3v0.1c-0.1,0.2-0.1,0.5-0.1,0.7s0,0.4,0,0.6s0,0.4,0.1,0.7c0,0.2,0.1,0.4,0.1,0.5
				c0,0,0,0,0,0.1c0.1,0.5-0.6,0.6-0.8,0.1v-0.1c0-0.1-0.1-0.3-0.1-0.4s0-0.1,0-0.2c0-0.2-0.1-0.4-0.1-0.7c0-0.2,0-0.4,0-0.6
				s0-0.5,0.1-0.7c0-0.3,0.1-0.6,0.2-0.8c0.1-0.3,0.3-0.6,0.5-0.9c0.2-0.3,0.5-0.6,0.9-0.8l0,0c1.4-0.9,1.7,0.6,1.8,1.8
				c0,0.2,0,0.3,0,0.5C89.6,32,88.6,32,88.6,32z"/>
		</g>
		<g>
			<rect x="41.9" y="42.1" class="st3" width="45.3" height="1.3"/>
			<rect x="41.9" y="46.5" class="st3" width="45.3" height="1.3"/>
			<rect x="41.9" y="50.9" class="st3" width="45.3" height="1.3"/>
			<rect x="41.9" y="55.4" class="st3" width="45.3" height="1.3"/>
			<rect x="41.9" y="59.8" class="st3" width="26.3" height="1.3"/>
		</g>
		<path class="st1" d="M81.9,95.3l8-34.8v14.4l-4.9,21.2l-2.5,4.1c-0.1,0.3-0.2,0.4-0.3,0.4c-0.1,0-0.1-0.2,0-0.5l0,0L81.9,95.3z"/>
		<polygon class="st1" points="96.8,46.5 95.5,52.4 95.4,52.4 96.7,46.9 		"/>
		<polygon class="st1" points="98.2,46.4 98.2,46.4 98.2,46.5 98.2,46.5 98.2,46.5 96.8,46.4 96.9,46 97,46.1 		"/>
		<polygon class="st4" points="97.2,46.4 97.2,46.4 97.1,46.8 		"/>
		<path class="st4" d="M98.5,46.7L98.5,46.7C98.5,46.8,98.5,46.8,98.5,46.7L98.5,46.7L98.5,46.7z"/>
		<g>
			<polygon class="st5" points="92.1,48 90.6,47.6 80.1,93.7 81.6,94 			"/>
			<polygon class="st6" points="81.6,94 83.2,94.4 93.8,48.4 92.1,48 			"/>
			<path class="st7" d="M93.5,49.8L90.4,49l-0.1,0.2l0,0l0,0c0,0.1,0.7,0.4,1.5,0.7c0.9,0.2,1.6,0.3,1.6,0.1l0,0l0,0L93.5,49.8z"/>
			<g>
				<path class="st5" d="M91.7,40.4L91.7,40.4L91.7,40.4z"/>
				<path class="st5" d="M94.9,41.1L94.9,41.1L94.9,41.1z"/>
				<path class="st5" d="M92.9,40.9c-0.4-0.1-0.8,0.1-0.9,0.5l0,0l-0.5,1.9l1.6,0.4l0.6-2.6L92.9,40.9z"/>
				<path class="st6" d="M93.2,43.7l1.6,0.4l0.4-1.8l0,0l0,0v-0.1l0,0c0-0.4-0.2-0.7-0.6-0.8l-0.9-0.2L93.2,43.7z"/>
			</g>
			<path class="st7" d="M93.4,42.9c-0.9-0.2-1.5-0.5-1.5-0.7l-0.2,0.7l3.1,0.8L95,43C95,43.2,94.2,43.1,93.4,42.9z"/>
			<g>
				<path class="st8" d="M91.9,42.3l-1.6,6.8l0,0l0,0c0,0.1,0.7,0.4,1.5,0.7l1.6-6.8C92.5,42.7,91.8,42.4,91.9,42.3z"/>
				<path class="st0" d="M93.4,42.9l-1.6,6.9c0.9,0.2,1.6,0.3,1.6,0.1l0,0l0,0l1.6-6.8C95,43.2,94.2,43.2,93.4,42.9z"/>
			</g>
			<path class="st9" d="M80.8,97.4c0.1,0,0.1,0.4,0,0.8c-0.1,0.4-0.3,0.8-0.3,0.7c-0.1,0-0.1-0.4,0-0.8S80.7,97.4,80.8,97.4z"/>
			<polygon class="st0" points="80.6,98.5 80.7,98.5 83.2,94.4 81.6,94 			"/>
			<polygon class="st8" points="80.1,93.7 80.4,98.5 80.6,98.5 81.6,94 			"/>
			
				<rect x="81.5" y="92.4" transform="matrix(0.2251 -0.9743 0.9743 0.2251 -28.3913 152.3423)" class="st10" width="0.1" height="3.2"/>
			<g>
				<path class="st0" d="M93.5,49.6l0.4,0.1c0.1-0.3,0.2-0.7,0.4-1c0.4-0.8,0.9-1.4,1.2-1.8l0.8-3.4L95,43.2L93.5,49.6z"/>
				<polygon class="st11" points="95.1,43.2 95,43.2 93.5,49.6 93.6,49.6 				"/>
			</g>
			<path class="st0" d="M96.3,43.6L96.3,43.6C96.2,43.6,96.2,43.6,96.3,43.6L96.3,43.6l-3.1,13.7l0,0l0,0c0,0.1,0.1,0.2,0.2,0.3
				c0.1,0,0.3,0,0.3-0.1l0,0l0,0l3.1-13.6l0,0l0,0v-0.1c0-0.1-0.1-0.2-0.2-0.3C96.4,43.4,96.3,43.5,96.3,43.6z"/>
		</g>
		<polygon class="st1" points="39,91.7 49.4,102.1 49.4,91.7 		"/>
	</g>
</g>
</svg>
