<?xml version="1.0" encoding="utf-8"?>
<!-- Generator: Adobe Illustrator 24.0.3, SVG Export Plug-In . SVG Version: 6.00 Build 0)  -->
<svg version="1.1" id="图层_1" xmlns="http://www.w3.org/2000/svg" xmlns:xlink="http://www.w3.org/1999/xlink" x="0px" y="0px"
	 viewBox="0 0 128 128" style="enable-background:new 0 0 128 128;" xml:space="preserve">
<style type="text/css">
	.st0{fill:#FF8D89;}
	.st1{fill:#D0E7EF;}
	.st2{fill:#D6AC6D;}
	.st3{fill:#FFFFFF;}
	.st4{fill:#EBE1B5;}
	.st5{fill:#4ECDDA;}
	.st6{fill:#00A1B3;}
	.st7{fill:#196975;}
	.st8{fill:#FB6262;}
	.st9{fill:#414042;}
	.st10{fill:#6D6E71;}
	.st11{fill:#BA3B10;}
</style>
<g>
	<g>
		<rect x="35.4" y="23.4" class="st0" width="56.7" height="76.7"/>
		<rect x="36.2" y="26" class="st1" width="53.3" height="73.2"/>
		<rect x="36.8" y="25.4" class="st1" width="53.3" height="73.2"/>
		<rect x="37.5" y="24.8" class="st1" width="53.3" height="73.2"/>
		<rect x="38.1" y="24.1" class="st1" width="53.3" height="73.2"/>
		<g>
			<path class="st2" d="M41.4,26.5c0,0.5-0.4,0.9-0.9,0.9c-0.5,0-0.9-0.4-0.9-0.9c0-0.5,0.4-0.9,0.9-0.9C41,25.6,41.4,26,41.4,26.5z
				"/>
			<path class="st2" d="M46.2,26.5c0,0.5-0.4,0.9-0.9,0.9c-0.5,0-0.9-0.4-0.9-0.9c0-0.5,0.4-0.9,0.9-0.9
				C45.8,25.6,46.2,26,46.2,26.5z"/>
			<path class="st2" d="M51,26.5c0,0.5-0.4,0.9-0.9,0.9c-0.5,0-0.9-0.4-0.9-0.9c0-0.5,0.4-0.9,0.9-0.9C50.6,25.6,51,26,51,26.5z"/>
			<path class="st2" d="M55.7,26.5c0,0.5-0.4,0.9-0.9,0.9c-0.5,0-0.9-0.4-0.9-0.9c0-0.5,0.4-0.9,0.9-0.9
				C55.3,25.6,55.7,26,55.7,26.5z"/>
			<path class="st2" d="M60.5,26.5c0,0.5-0.4,0.9-0.9,0.9c-0.5,0-0.9-0.4-0.9-0.9c0-0.5,0.4-0.9,0.9-0.9
				C60.1,25.6,60.5,26,60.5,26.5z"/>
			<path class="st2" d="M65.3,26.5c0,0.5-0.4,0.9-0.9,0.9c-0.5,0-0.9-0.4-0.9-0.9c0-0.5,0.4-0.9,0.9-0.9
				C64.9,25.6,65.3,26,65.3,26.5z"/>
			<path class="st2" d="M70.1,26.5c0,0.5-0.4,0.9-0.9,0.9c-0.5,0-0.9-0.4-0.9-0.9c0-0.5,0.4-0.9,0.9-0.9
				C69.7,25.6,70.1,26,70.1,26.5z"/>
			<path class="st2" d="M74.9,26.5c0,0.5-0.4,0.9-0.9,0.9s-0.9-0.4-0.9-0.9c0-0.5,0.4-0.9,0.9-0.9S74.9,26,74.9,26.5z"/>
			<path class="st2" d="M79.7,26.5c0,0.5-0.4,0.9-0.9,0.9s-0.9-0.4-0.9-0.9c0-0.5,0.4-0.9,0.9-0.9S79.7,26,79.7,26.5z"/>
			<path class="st2" d="M84.5,26.5c0,0.5-0.4,0.9-0.9,0.9s-0.9-0.4-0.9-0.9c0-0.5,0.4-0.9,0.9-0.9S84.5,26,84.5,26.5z"/>
			<path class="st2" d="M89.2,26.5c0,0.5-0.4,0.9-0.9,0.9c-0.5,0-0.9-0.4-0.9-0.9c0-0.5,0.4-0.9,0.9-0.9
				C88.9,25.6,89.2,26,89.2,26.5z"/>
		</g>
		<g>
			<path class="st0" d="M45.9,22.8c0,0.2,0,0.3-0.2,0.4c-0.2,0.1-0.5,0.1-0.6-0.2c0-0.1-0.1-0.2-0.1-0.3c-0.4-1.3-1.7-2.1-3-1.1
				c-0.6,0.5-1,1.1-1.2,1.8c-0.1,0.2-0.1,0.5-0.1,0.7c0,0.2,0,0.4,0,0.6c0,0.2,0,0.4,0.1,0.7c0,0.1,0,0.2,0.1,0.3
				c0,0.1,0,0.2,0.1,0.3c0,0,0,0.1,0,0.1c0.1,0.5-0.7,0.6-0.8,0.1c0-0.1,0-0.1,0-0.1c0-0.1,0-0.2-0.1-0.2c0-0.1,0-0.2-0.1-0.4
				c0-0.2,0-0.4-0.1-0.7c0-0.2,0-0.4,0-0.6c0-0.2,0.1-0.5,0.1-0.7c0.3-1.2,0.9-2.3,2-2.8c1.5-0.6,2.8-0.1,3.5,1.1
				C45.6,22.1,45.8,22.4,45.9,22.8C45.8,22.8,45.9,22.8,45.9,22.8z"/>
		</g>
		<g>
			<path class="st0" d="M50.6,22.9c0,0.1,0,0.2-0.1,0.3c-0.2,0.2-0.6,0.2-0.7-0.2c0-0.1,0-0.1-0.1-0.2c-0.4-1.3-1.7-2.2-3-1.2
				c-0.4,0.3-0.7,0.7-0.9,1.2c0,0,0,0,0,0c-0.1,0.1-0.1,0.3-0.2,0.4c0,0.1,0,0.1-0.1,0.2c-0.1,0.2-0.1,0.5-0.1,0.7
				c0,0.2,0,0.4,0,0.6c0,0.2,0,0.4,0.1,0.7c0,0.1,0,0.2,0.1,0.3c0,0.1,0,0.2,0.1,0.3c0,0,0,0.1,0,0.1c0.1,0.5-0.7,0.6-0.8,0.1
				c0-0.1,0-0.1,0-0.1c0-0.1,0-0.1-0.1-0.2c0-0.1-0.1-0.3-0.1-0.4c0-0.2,0-0.4-0.1-0.7c0-0.2,0-0.4,0-0.6c0-0.2,0.1-0.5,0.1-0.7
				c0.1-0.2,0.1-0.5,0.2-0.7c0.1-0.3,0.3-0.7,0.5-0.9c0.3-0.5,0.8-0.9,1.3-1.1c1.5-0.7,2.8-0.1,3.5,1.2
				C50.4,22.1,50.5,22.5,50.6,22.9C50.6,22.8,50.6,22.9,50.6,22.9z"/>
		</g>
		<g>
			<path class="st0" d="M55.5,22.9c0,0.1,0,0.2-0.1,0.3c-0.2,0.2-0.6,0.2-0.7-0.2c0-0.1,0-0.1-0.1-0.2c-0.4-1.3-1.7-2.2-3-1.2
				c-0.4,0.3-0.8,0.8-1,1.3c0,0.1-0.1,0.2-0.1,0.3c0,0.1,0,0.2-0.1,0.2c-0.1,0.2-0.1,0.5-0.1,0.7c0,0.2,0,0.4,0,0.6
				c0,0.2,0,0.4,0.1,0.7c0,0.1,0,0.2,0.1,0.3c0,0.1,0,0.2,0.1,0.3c0,0,0,0.1,0,0.1c0.1,0.5-0.7,0.6-0.8,0.1c0-0.1,0-0.1,0-0.1
				c0-0.1,0-0.2-0.1-0.3c0-0.1,0-0.2-0.1-0.3c0-0.2,0-0.4-0.1-0.7c0-0.2,0-0.4,0-0.6c0-0.2,0.1-0.5,0.1-0.7c0-0.2,0.1-0.4,0.2-0.6
				c0.1-0.3,0.3-0.7,0.5-1c0.3-0.5,0.8-0.9,1.3-1.2c1.5-0.7,2.8-0.1,3.5,1.2C55.2,22.1,55.4,22.5,55.5,22.9
				C55.5,22.8,55.5,22.9,55.5,22.9z"/>
		</g>
		<g>
			<path class="st0" d="M60.3,22.9c0,0.1,0,0.2-0.1,0.3c-0.2,0.2-0.6,0.2-0.7-0.2c0-0.1,0-0.1-0.1-0.2c-0.4-1.3-1.7-2.2-3-1.2
				c-0.4,0.3-0.8,0.8-1,1.3c0,0.1-0.1,0.2-0.1,0.3c0,0.1-0.1,0.2-0.1,0.2c-0.1,0.2-0.1,0.5-0.1,0.7c0,0.2,0,0.4,0,0.6
				c0,0.2,0,0.4,0.1,0.7c0,0.1,0,0.2,0.1,0.3c0,0.1,0,0.2,0.1,0.2c0,0,0,0.1,0,0.1c0.1,0.5-0.7,0.6-0.8,0.1c0-0.1,0-0.1,0-0.1
				c0-0.1-0.1-0.2-0.1-0.3c0-0.1,0-0.2-0.1-0.3c0-0.2,0-0.4,0-0.7c0-0.2,0-0.4,0-0.6c0-0.2,0.1-0.5,0.1-0.7c0-0.2,0.1-0.4,0.2-0.6
				c0.1-0.3,0.3-0.7,0.5-1c0.3-0.5,0.8-0.9,1.3-1.2c1.5-0.7,2.8-0.1,3.5,1.2C60.1,22.1,60.2,22.5,60.3,22.9
				C60.3,22.8,60.3,22.9,60.3,22.9z"/>
		</g>
		<g>
			<path class="st0" d="M65.1,22.9c0,0.1,0,0.2-0.1,0.3c-0.2,0.2-0.6,0.2-0.7-0.2c0-0.1,0-0.1-0.1-0.2c-0.4-1.3-1.7-2.2-3-1.2
				c-0.4,0.3-0.8,0.8-1,1.3c-0.1,0.1-0.1,0.2-0.1,0.3c0,0.1,0,0.1-0.1,0.2C60,23.7,60,23.9,60,24.1c0,0.2,0,0.4,0,0.6
				c0,0.2,0,0.4,0.1,0.7c0,0.1,0,0.2,0.1,0.3c0,0.1,0,0.1,0.1,0.2c0,0,0,0.1,0,0.1c0.1,0.5-0.7,0.6-0.8,0.1c0-0.1,0-0.1,0-0.1
				c0-0.1-0.1-0.2-0.1-0.3c0-0.1,0-0.2,0-0.3c0-0.2,0-0.4-0.1-0.7c0-0.2,0-0.4,0-0.6c0-0.2,0.1-0.5,0.1-0.7c0-0.2,0.1-0.4,0.2-0.6
				c0.1-0.3,0.3-0.7,0.5-1c0.3-0.5,0.8-0.9,1.3-1.2c1.5-0.7,2.8-0.1,3.5,1.2C64.9,22.1,65,22.5,65.1,22.9
				C65.1,22.8,65.1,22.9,65.1,22.9z"/>
		</g>
		<g>
			<path class="st0" d="M70,22.9c0,0.1,0,0.2-0.1,0.3c-0.2,0.2-0.6,0.2-0.7-0.2c0-0.1,0-0.1-0.1-0.2c-0.4-1.3-1.7-2.2-3-1.2
				c-0.4,0.3-0.8,0.8-1,1.3c0,0.1-0.1,0.2-0.1,0.3c0,0.1-0.1,0.2-0.1,0.2c-0.1,0.2-0.1,0.5-0.1,0.7c0,0.2,0,0.4,0,0.6
				c0,0.2,0,0.4,0.1,0.7c0,0.1,0,0.2,0.1,0.3c0,0.1,0,0.1,0.1,0.2c0,0,0,0.1,0,0.1c0.1,0.5-0.6,0.6-0.8,0.1c0-0.1,0-0.1,0-0.1
				c0-0.1-0.1-0.2-0.1-0.3c0-0.1,0-0.2-0.1-0.3c0-0.2,0-0.4,0-0.7c0-0.2,0-0.4,0-0.6c0-0.2,0.1-0.5,0.1-0.7c0-0.2,0.1-0.4,0.2-0.6
				c0.1-0.3,0.3-0.7,0.5-1c0.3-0.5,0.8-0.9,1.3-1.2c1.5-0.7,2.8-0.1,3.5,1.2C69.7,22.1,69.9,22.5,70,22.9C70,22.8,70,22.9,70,22.9z"
				/>
		</g>
		<g>
			<path class="st0" d="M74.8,22.9c0,0.1,0,0.2-0.1,0.3c-0.2,0.2-0.6,0.2-0.7-0.2c0-0.1,0-0.1-0.1-0.2c-0.4-1.3-1.7-2.2-3-1.2
				c-0.4,0.3-0.8,0.8-1,1.3c0,0.1-0.1,0.2-0.1,0.3c0,0.1,0,0.1-0.1,0.2c-0.1,0.2-0.1,0.5-0.1,0.7c0,0.2,0,0.4,0,0.6
				c0,0.2,0,0.4,0.1,0.7c0,0.1,0,0.3,0.1,0.4c0,0.1,0,0.1,0,0.2c0,0,0,0.1,0,0.1c0.1,0.5-0.7,0.6-0.8,0.1c0-0.1,0-0.1,0-0.1
				c0-0.1-0.1-0.2-0.1-0.3c0-0.1,0-0.2,0-0.3c0-0.2,0-0.4-0.1-0.7c0-0.2,0-0.4,0-0.6c0-0.2,0.1-0.5,0.1-0.7c0-0.2,0.1-0.4,0.2-0.6
				c0.1-0.3,0.3-0.7,0.5-1c0.3-0.5,0.8-0.9,1.3-1.2c1.5-0.7,2.8-0.1,3.5,1.2C74.6,22.1,74.7,22.5,74.8,22.9
				C74.8,22.8,74.8,22.9,74.8,22.9z"/>
		</g>
		<g>
			<path class="st0" d="M79.6,22.9c0,0.1,0,0.2-0.1,0.3c-0.2,0.2-0.6,0.2-0.7-0.2c0-0.1,0-0.1-0.1-0.2c-0.4-1.3-1.7-2.2-3-1.2
				c-0.4,0.3-0.8,0.8-1,1.3c0,0.1-0.1,0.2-0.1,0.3c0,0.1-0.1,0.2-0.1,0.2c-0.1,0.2-0.1,0.5-0.1,0.7c0,0.2,0,0.4,0,0.6
				c0,0.2,0,0.4,0.1,0.7c0,0.1,0.1,0.3,0.1,0.4c0,0,0,0.1,0,0.1c0,0,0,0,0,0.1c0.1,0.5-0.7,0.6-0.8,0.1c0-0.1,0-0.1,0-0.1
				c0-0.1-0.1-0.2-0.1-0.3c0-0.1,0-0.2,0-0.3c0-0.2,0-0.4-0.1-0.7c0-0.2,0-0.4,0-0.6c0-0.2,0.1-0.5,0.1-0.7c0-0.2,0.1-0.4,0.2-0.6
				c0.1-0.3,0.3-0.7,0.5-1c0.3-0.5,0.8-0.9,1.3-1.2c1.5-0.7,2.8-0.1,3.5,1.2C79.4,22.1,79.5,22.5,79.6,22.9
				C79.6,22.8,79.6,22.9,79.6,22.9z"/>
		</g>
		<g>
			<path class="st0" d="M84.4,22.9c0,0.1,0,0.2-0.1,0.3c-0.2,0.2-0.6,0.2-0.7-0.2c0-0.1,0-0.1-0.1-0.2c-0.4-1.3-1.7-2.2-3-1.2
				c-0.4,0.3-0.8,0.8-1,1.3c-0.1,0.1-0.1,0.2-0.1,0.3c0,0.1-0.1,0.1-0.1,0.2c-0.1,0.2-0.1,0.5-0.1,0.7c0,0.2,0,0.4,0,0.6
				c0,0.2,0,0.4,0.1,0.7c0,0.2,0.1,0.3,0.1,0.5c0,0,0,0,0,0.1c0,0,0,0.1,0,0.1c0.1,0.5-0.7,0.6-0.8,0.1c0-0.1,0-0.1,0-0.1
				c0-0.1-0.1-0.2-0.1-0.4c0-0.1,0-0.2,0-0.2c0-0.2-0.1-0.4-0.1-0.7c0-0.2,0-0.4,0-0.6c0-0.2,0.1-0.5,0.1-0.7c0-0.2,0.1-0.4,0.2-0.6
				c0.1-0.3,0.3-0.7,0.5-1c0.3-0.5,0.8-0.9,1.4-1.2c1.5-0.7,2.8-0.1,3.5,1.2C84.2,22.1,84.3,22.5,84.4,22.9
				C84.4,22.8,84.4,22.9,84.4,22.9z"/>
		</g>
		<g>
			<path class="st0" d="M89,23.3c-0.2,0.1-0.5,0-0.5-0.3c0-0.1-0.1-0.3-0.1-0.4c-0.5-1.2-1.7-2-2.9-1c-0.4,0.3-0.8,0.8-1,1.3
				c0,0.1-0.1,0.2-0.1,0.3c0,0.1,0,0.1-0.1,0.2c-0.1,0.2-0.1,0.5-0.1,0.7c0,0.2,0,0.4,0,0.6c0,0.2,0,0.4,0.1,0.7
				c0,0.2,0.1,0.4,0.1,0.5v0c0,0,0,0,0,0.1c0.1,0.5-0.7,0.6-0.8,0.1c0-0.1,0-0.1,0-0.1c0-0.1-0.1-0.2-0.1-0.4c0-0.1,0-0.1,0-0.2
				c0-0.2,0-0.4-0.1-0.7c0-0.2,0-0.4,0-0.6c0-0.2,0.1-0.5,0.1-0.7c0-0.2,0.1-0.4,0.2-0.6c0.1-0.3,0.3-0.7,0.5-1
				c0.3-0.5,0.8-0.9,1.3-1.2c1.4-0.6,2.7-0.1,3.4,1c0.2,0.3,0.3,0.6,0.4,0.9c0,0.1,0,0.1,0,0.2C89.3,23,89.2,23.2,89,23.3z"/>
		</g>
		<g>
			<path class="st0" d="M90.6,23.2c0-0.2,0.2-0.8,0.1-1.3c0-0.3-0.1-0.6-0.4-0.5c0,0,0,0-0.1,0c-0.5,0.2-0.8,0.7-1,1.2
				c0,0.1-0.1,0.2-0.1,0.3c0,0.1-0.1,0.2-0.1,0.3c0,0,0,0.1,0,0.1c-0.1,0.2-0.1,0.5-0.1,0.7c0,0.2,0,0.4,0,0.6c0,0.2,0,0.4,0.1,0.7
				c0,0.2,0.1,0.4,0.1,0.5c0,0,0,0,0,0.1c0.1,0.5-0.6,0.6-0.8,0.1c0,0,0-0.1,0-0.1c0-0.1-0.1-0.3-0.1-0.4c0-0.1,0-0.1,0-0.2
				c0-0.2-0.1-0.4-0.1-0.7c0-0.2,0-0.4,0-0.6c0-0.2,0-0.5,0.1-0.7c0-0.3,0.1-0.6,0.2-0.8c0.1-0.3,0.3-0.6,0.5-0.9
				c0.2-0.3,0.5-0.6,0.9-0.8h0c1.5-0.9,1.8,0.6,1.9,1.9c0,0.2,0,0.3,0,0.5H90.6z"/>
		</g>
		<g>
			<rect x="41.2" y="33.8" class="st3" width="47.9" height="1.4"/>
			<rect x="41.2" y="38.5" class="st3" width="47.9" height="1.4"/>
			<rect x="41.2" y="43.2" class="st3" width="47.9" height="1.4"/>
			<rect x="41.2" y="47.9" class="st3" width="47.9" height="1.4"/>
			<rect x="41.2" y="52.6" class="st3" width="27.8" height="1.4"/>
		</g>
		<path class="st1" d="M83.6,90.2l8.5-36.8v15.2L86.9,91l-2.6,4.3c-0.1,0.3-0.2,0.4-0.3,0.4c-0.1,0-0.1-0.2,0-0.5v0L83.6,90.2z"/>
		<polygon class="st1" points="99.3,38.5 97.9,44.8 97.8,44.8 99.2,38.9 99.3,38.5 		"/>
		<polygon class="st1" points="100.8,38.4 100.8,38.4 100.8,38.5 100.8,38.5 100.8,38.5 99.3,38.4 99.4,38 99.5,38.1 		"/>
		<polygon class="st4" points="99.7,38.4 99.7,38.4 99.6,38.8 		"/>
		<path class="st4" d="M101.1,38.7L101.1,38.7C101.1,38.8,101.1,38.8,101.1,38.7L101.1,38.7C101.1,38.7,101.1,38.7,101.1,38.7z"/>
		<g>
			<polygon class="st5" points="94.3,40.1 92.8,39.7 81.6,88.5 83.2,88.8 			"/>
			<polygon class="st6" points="83.2,88.8 84.9,89.2 96.1,40.5 94.3,40.1 			"/>
			<path class="st7" d="M95.8,42l-3.3-0.8l-0.1,0.2l0,0l0,0c0,0.1,0.7,0.4,1.6,0.7c0.9,0.2,1.7,0.3,1.7,0.1l0,0l0,0L95.8,42z"/>
			<g>
				<polygon class="st5" points="93.9,32 93.9,32 93.9,32 				"/>
				<polygon class="st5" points="97.3,32.8 97.3,32.8 97.3,32.8 				"/>
				<path class="st5" d="M95.2,32.6c-0.4-0.1-0.8,0.1-0.9,0.5l0,0l-0.5,2l1.7,0.4l0.6-2.7L95.2,32.6z"/>
				<path class="st6" d="M95.5,35.5l1.7,0.4l0.4-1.9l0,0v0l0-0.1l0,0c0-0.4-0.2-0.7-0.6-0.8l-0.9-0.2L95.5,35.5z"/>
			</g>
			<path class="st7" d="M95.7,34.7c-0.9-0.2-1.6-0.5-1.6-0.7l-0.2,0.7l3.3,0.8l0.2-0.7C97.4,35,96.6,34.9,95.7,34.7z"/>
			<g>
				<path class="st8" d="M94.1,34.1l-1.7,7.2l0,0l0,0c0,0.1,0.7,0.4,1.6,0.7l1.7-7.2C94.8,34.5,94,34.2,94.1,34.1z"/>
				<path class="st0" d="M95.7,34.7L94,42c0.9,0.2,1.7,0.3,1.7,0.1h0h0l1.7-7.2C97.4,35,96.6,35,95.7,34.7z"/>
			</g>
			<path class="st9" d="M82.4,92.4c0.1,0,0.1,0.4,0,0.8c-0.1,0.4-0.3,0.8-0.3,0.7c-0.1,0-0.1-0.4,0-0.8
				C82.2,92.7,82.3,92.4,82.4,92.4z"/>
			<polygon class="st0" points="82.2,93.5 82.3,93.5 84.9,89.2 83.2,88.8 			"/>
			<polygon class="st8" points="81.6,88.5 82,93.5 82.2,93.5 83.2,88.8 			"/>
			
				<rect x="83.2" y="87.1" transform="matrix(0.2251 -0.9743 0.9743 0.2251 -22.0403 149.9188)" class="st10" width="0.1" height="3.4"/>
			<g>
				<path class="st0" d="M95.8,41.8l0.4,0.1c0.1-0.3,0.2-0.7,0.4-1.1c0.4-0.8,0.9-1.5,1.3-1.9l0.8-3.6L97.4,35L95.8,41.8z"/>
				<polygon class="st11" points="97.5,35 97.4,35 95.8,41.8 95.9,41.8 				"/>
			</g>
			<path class="st0" d="M98.8,35.4L98.8,35.4C98.7,35.4,98.7,35.4,98.8,35.4L98.8,35.4l-3.3,14.5l0,0l0,0c0,0.1,0.1,0.2,0.2,0.3
				c0.1,0,0.3,0,0.3-0.1l0,0l0,0l3.3-14.4l0,0c0,0,0,0,0,0l0-0.1c0-0.1-0.1-0.2-0.2-0.3C98.9,35.2,98.8,35.3,98.8,35.4z"/>
		</g>
		<polygon class="st1" points="38.1,86.3 49.2,97.3 49.2,86.3 		"/>
	</g>
</g>
</svg>
