<?xml version="1.0" encoding="utf-8"?>
<!-- Generator: Adobe Illustrator 24.0.3, SVG Export Plug-In . SVG Version: 6.00 Build 0)  -->
<svg version="1.1" id="图层_1" xmlns="http://www.w3.org/2000/svg" xmlns:xlink="http://www.w3.org/1999/xlink" x="0px" y="0px"
	 viewBox="0 0 128 128" style="enable-background:new 0 0 128 128;" xml:space="preserve">
<style type="text/css">
	.st0{fill:#FF8D89;}
	.st1{fill:#D0E7EF;}
	.st2{fill:#D6AC6D;}
	.st3{fill:#FFFFFF;}
	.st4{fill:#EBE1B5;}
	.st5{fill:#4ECDDA;}
	.st6{fill:#00A1B3;}
	.st7{fill:#196975;}
	.st8{fill:#FB6262;}
	.st9{fill:#414042;}
	.st10{fill:#6D6E71;}
	.st11{fill:#BA3B10;}
</style>
<g>
	<g>
		<rect x="36.1" y="32.7" class="st0" width="55.1" height="74.5"/>
		<rect x="36.9" y="35.2" class="st1" width="51.8" height="71.1"/>
		<rect x="37.4" y="34.6" class="st1" width="51.8" height="71.1"/>
		<rect x="38.1" y="34" class="st1" width="51.8" height="71.1"/>
		<rect x="38.7" y="33.3" class="st1" width="51.8" height="71.1"/>
		<g>
			<path class="st2" d="M41.9,35.7c0,0.5-0.4,0.9-0.9,0.9s-0.9-0.4-0.9-0.9s0.4-0.9,0.9-0.9S41.9,35.2,41.9,35.7z"/>
			<path class="st2" d="M46.6,35.7c0,0.5-0.4,0.9-0.9,0.9s-0.9-0.4-0.9-0.9s0.4-0.9,0.9-0.9S46.6,35.2,46.6,35.7z"/>
			<path class="st2" d="M51.2,35.7c0,0.5-0.4,0.9-0.9,0.9s-0.9-0.4-0.9-0.9s0.4-0.9,0.9-0.9S51.2,35.2,51.2,35.7z"/>
			<path class="st2" d="M55.8,35.7c0,0.5-0.4,0.9-0.9,0.9S54,36.2,54,35.7s0.4-0.9,0.9-0.9S55.8,35.2,55.8,35.7z"/>
			<path class="st2" d="M60.5,35.7c0,0.5-0.4,0.9-0.9,0.9s-0.9-0.4-0.9-0.9s0.4-0.9,0.9-0.9S60.5,35.2,60.5,35.7z"/>
			<path class="st2" d="M65.1,35.7c0,0.5-0.4,0.9-0.9,0.9c-0.5,0-0.9-0.4-0.9-0.9s0.4-0.9,0.9-0.9C64.7,34.8,65.1,35.2,65.1,35.7z"
				/>
			<path class="st2" d="M69.8,35.7c0,0.5-0.4,0.9-0.9,0.9S68,36.2,68,35.7s0.4-0.9,0.9-0.9S69.8,35.2,69.8,35.7z"/>
			<path class="st2" d="M74.4,35.7c0,0.5-0.4,0.9-0.9,0.9s-0.9-0.4-0.9-0.9s0.4-0.9,0.9-0.9S74.4,35.2,74.4,35.7z"/>
			<path class="st2" d="M79.1,35.7c0,0.5-0.4,0.9-0.9,0.9s-0.9-0.4-0.9-0.9s0.4-0.9,0.9-0.9S79.1,35.2,79.1,35.7z"/>
			<path class="st2" d="M83.8,35.7c0,0.5-0.4,0.9-0.9,0.9S82,36.2,82,35.7s0.4-0.9,0.9-0.9S83.8,35.2,83.8,35.7z"/>
			<path class="st2" d="M88.3,35.7c0,0.5-0.4,0.9-0.9,0.9s-0.9-0.4-0.9-0.9s0.4-0.9,0.9-0.9C88,34.8,88.3,35.2,88.3,35.7z"/>
		</g>
		<g>
			<path class="st0" d="M46.3,32.1c0,0.2,0,0.3-0.2,0.4c-0.2,0.1-0.5,0.1-0.6-0.2c0-0.1-0.1-0.2-0.1-0.3c-0.4-1.3-1.7-2-2.9-1.1
				c-0.6,0.5-1,1.1-1.2,1.7c-0.1,0.2-0.1,0.5-0.1,0.7c0,0.2,0,0.4,0,0.6c0,0.2,0,0.4,0.1,0.7c0,0.1,0,0.2,0.1,0.3
				c0,0.1,0,0.2,0.1,0.3v0.1c0.1,0.5-0.7,0.6-0.8,0.1c0-0.1,0-0.1,0-0.1c0-0.1,0-0.2-0.1-0.2c0-0.1,0-0.2-0.1-0.4
				c0-0.2,0-0.4-0.1-0.7c0-0.2,0-0.4,0-0.6s0.1-0.5,0.1-0.7c0.3-1.2,0.9-2.2,1.9-2.7c1.5-0.6,2.7-0.1,3.4,1.1
				C46,31.4,46.2,31.7,46.3,32.1C46.2,32.1,46.3,32.1,46.3,32.1z"/>
		</g>
		<g>
			<path class="st0" d="M50.8,32.2c0,0.1,0,0.2-0.1,0.3c-0.2,0.2-0.6,0.2-0.7-0.2c0-0.1,0-0.1-0.1-0.2c-0.4-1.3-1.7-2.1-2.9-1.2
				c-0.4,0.3-0.7,0.7-0.9,1.2l0,0c-0.1,0.1-0.1,0.3-0.2,0.4c0,0.1,0,0.1-0.1,0.2c-0.1,0.2-0.1,0.5-0.1,0.7c0,0.2,0,0.4,0,0.6
				c0,0.2,0,0.4,0.1,0.7c0,0.1,0,0.2,0.1,0.3c0,0.1,0,0.2,0.1,0.3v0.1c0.1,0.5-0.7,0.6-0.8,0.1c0-0.1,0-0.1,0-0.1
				c0-0.1,0-0.1-0.1-0.2c0-0.1-0.1-0.3-0.1-0.4c0-0.2,0-0.4-0.1-0.7c0-0.2,0-0.4,0-0.6s0.1-0.5,0.1-0.7c0.1-0.2,0.1-0.5,0.2-0.7
				c0.1-0.3,0.3-0.7,0.5-0.9c0.3-0.5,0.8-0.9,1.3-1.1c1.5-0.7,2.7-0.1,3.4,1.2C50.6,31.4,50.7,31.8,50.8,32.2
				C50.8,32.1,50.8,32.2,50.8,32.2z"/>
		</g>
		<g>
			<path class="st0" d="M55.6,32.2c0,0.1,0,0.2-0.1,0.3c-0.2,0.2-0.6,0.2-0.7-0.2c0-0.1,0-0.1-0.1-0.2c-0.4-1.3-1.7-2.1-2.9-1.2
				c-0.4,0.3-0.8,0.8-1,1.3c0,0.1-0.1,0.2-0.1,0.3s0,0.2-0.1,0.2c-0.1,0.2-0.1,0.5-0.1,0.7s0,0.4,0,0.6s0,0.4,0.1,0.7
				c0,0.1,0,0.2,0.1,0.3c0,0.1,0,0.2,0.1,0.3v0.1c0.1,0.5-0.7,0.6-0.8,0.1c0-0.1,0-0.1,0-0.1c0-0.1,0-0.2-0.1-0.3
				c0-0.1,0-0.2-0.1-0.3c0-0.2,0-0.4-0.1-0.7c0-0.2,0-0.4,0-0.6s0.1-0.5,0.1-0.7s0.1-0.4,0.2-0.6c0.1-0.3,0.3-0.7,0.5-1
				c0.3-0.5,0.8-0.9,1.3-1.2c1.5-0.7,2.7-0.1,3.4,1.2C55.3,31.4,55.5,31.8,55.6,32.2C55.6,32.1,55.6,32.2,55.6,32.2z"/>
		</g>
		<g>
			<path class="st0" d="M60.3,32.2c0,0.1,0,0.2-0.1,0.3c-0.2,0.2-0.6,0.2-0.7-0.2c0-0.1,0-0.1-0.1-0.2c-0.4-1.3-1.7-2.1-2.9-1.2
				c-0.4,0.3-0.8,0.8-1,1.3c0,0.1-0.1,0.2-0.1,0.3s-0.1,0.2-0.1,0.2c-0.1,0.2-0.1,0.5-0.1,0.7s0,0.4,0,0.6s0,0.4,0.1,0.7
				c0,0.1,0,0.2,0.1,0.3c0,0.1,0,0.2,0.1,0.2v0.1c0.1,0.5-0.7,0.6-0.8,0.1c0-0.1,0-0.1,0-0.1c0-0.1-0.1-0.2-0.1-0.3
				c0-0.1,0-0.2-0.1-0.3c0-0.2,0-0.4,0-0.7c0-0.2,0-0.4,0-0.6c0-0.2,0.1-0.5,0.1-0.7c0-0.2,0.1-0.4,0.2-0.6c0.1-0.3,0.3-0.7,0.5-1
				c0.3-0.5,0.8-0.9,1.3-1.2c1.5-0.7,2.7-0.1,3.4,1.2C60.1,31.4,60.2,31.8,60.3,32.2C60.3,32.1,60.3,32.2,60.3,32.2z"/>
		</g>
		<g>
			<path class="st0" d="M64.9,32.2c0,0.1,0,0.2-0.1,0.3c-0.2,0.2-0.6,0.2-0.7-0.2c0-0.1,0-0.1-0.1-0.2c-0.4-1.3-1.7-2.1-2.9-1.2
				c-0.4,0.3-0.8,0.8-1,1.3c-0.1,0.1-0.1,0.2-0.1,0.3s0,0.1-0.1,0.2c0,0.3,0,0.5,0,0.7s0,0.4,0,0.6s0,0.4,0.1,0.7
				c0,0.1,0,0.2,0.1,0.3c0,0.1,0,0.1,0.1,0.2v0.1c0.1,0.5-0.7,0.6-0.8,0.1c0-0.1,0-0.1,0-0.1c0-0.1-0.1-0.2-0.1-0.3
				c0-0.1,0-0.2,0-0.3c0-0.2,0-0.4-0.1-0.7c0-0.2,0-0.4,0-0.6c0-0.2,0.1-0.5,0.1-0.7c0-0.2,0.1-0.4,0.2-0.6c0.1-0.3,0.3-0.7,0.5-1
				c0.3-0.5,0.8-0.9,1.3-1.2c1.5-0.7,2.7-0.1,3.4,1.2C64.7,31.4,64.8,31.8,64.9,32.2C64.9,32.1,64.9,32.2,64.9,32.2z"/>
		</g>
		<g>
			<path class="st0" d="M69.7,32.2c0,0.1,0,0.2-0.1,0.3c-0.2,0.2-0.6,0.2-0.7-0.2c0-0.1,0-0.1-0.1-0.2c-0.4-1.3-1.7-2.1-2.9-1.2
				c-0.4,0.3-0.8,0.8-1,1.3c0,0.1-0.1,0.2-0.1,0.3s-0.1,0.2-0.1,0.2c-0.1,0.2-0.1,0.5-0.1,0.7s0,0.4,0,0.6s0,0.4,0.1,0.7
				c0,0.1,0,0.2,0.1,0.3c0,0.1,0,0.1,0.1,0.2v0.1c0.1,0.5-0.6,0.6-0.8,0.1c0-0.1,0-0.1,0-0.1c0-0.1-0.1-0.2-0.1-0.3
				c0-0.1,0-0.2-0.1-0.3c0-0.2,0-0.4,0-0.7c0-0.2,0-0.4,0-0.6c0-0.2,0.1-0.5,0.1-0.7c0-0.2,0.1-0.4,0.2-0.6c0.1-0.3,0.3-0.7,0.5-1
				c0.3-0.5,0.8-0.9,1.3-1.2c1.5-0.7,2.7-0.1,3.4,1.2C69.4,31.4,69.6,31.8,69.7,32.2C69.7,32.1,69.7,32.2,69.7,32.2z"/>
		</g>
		<g>
			<path class="st0" d="M74.4,32.2c0,0.1,0,0.2-0.1,0.3c-0.2,0.2-0.6,0.2-0.7-0.2c0-0.1,0-0.1-0.1-0.2c-0.4-1.3-1.7-2.1-2.9-1.2
				c-0.4,0.3-0.8,0.8-1,1.3c0,0.1-0.1,0.2-0.1,0.3s0,0.1-0.1,0.2c-0.1,0.2-0.1,0.5-0.1,0.7s0,0.4,0,0.6s0,0.4,0.1,0.7
				c0,0.1,0,0.3,0.1,0.4c0,0.1,0,0.1,0,0.2v0.1c0.1,0.5-0.7,0.6-0.8,0.1c0-0.1,0-0.1,0-0.1c0-0.1-0.1-0.2-0.1-0.3c0-0.1,0-0.2,0-0.3
				c0-0.2,0-0.4-0.1-0.7c0-0.2,0-0.4,0-0.6s0.1-0.5,0.1-0.7c0-0.2,0.1-0.4,0.2-0.6c0.1-0.3,0.3-0.7,0.5-1c0.3-0.5,0.8-0.9,1.3-1.2
				c1.5-0.7,2.7-0.1,3.4,1.2C74.2,31.4,74.3,31.8,74.4,32.2C74.4,32.1,74.4,32.2,74.4,32.2z"/>
		</g>
		<g>
			<path class="st0" d="M79,32.2c0,0.1,0,0.2-0.1,0.3c-0.2,0.2-0.6,0.2-0.7-0.2c0-0.1,0-0.1-0.1-0.2c-0.4-1.3-1.7-2.1-2.9-1.2
				c-0.4,0.3-0.8,0.8-1,1.3c0,0.1-0.1,0.2-0.1,0.3s-0.1,0.2-0.1,0.2C74,32.9,74,33.1,74,33.3s0,0.4,0,0.6s0,0.4,0.1,0.7
				c0,0.1,0.1,0.3,0.1,0.4v0.1c0,0,0,0,0,0.1c0.1,0.5-0.7,0.6-0.8,0.1c0-0.1,0-0.1,0-0.1c0-0.1-0.1-0.2-0.1-0.3c0-0.1,0-0.2,0-0.3
				c0-0.2,0-0.4-0.1-0.7c0-0.2,0-0.4,0-0.6c0-0.2,0.1-0.5,0.1-0.7c0-0.2,0.1-0.4,0.2-0.6c0.1-0.3,0.3-0.7,0.5-1
				c0.3-0.5,0.8-0.9,1.3-1.2c1.5-0.7,2.7-0.1,3.4,1.2C78.8,31.4,78.9,31.8,79,32.2C79,32.1,79,32.2,79,32.2z"/>
		</g>
		<g>
			<path class="st0" d="M83.7,32.2c0,0.1,0,0.2-0.1,0.3c-0.2,0.2-0.6,0.2-0.7-0.2c0-0.1,0-0.1-0.1-0.2c-0.4-1.3-1.7-2.1-2.9-1.2
				c-0.4,0.3-0.8,0.8-1,1.3c-0.1,0.1-0.1,0.2-0.1,0.3s-0.1,0.1-0.1,0.2c-0.1,0.2-0.1,0.5-0.1,0.7s0,0.4,0,0.6s0,0.4,0.1,0.7
				c0,0.2,0.1,0.3,0.1,0.5c0,0,0,0,0,0.1v0.1c0.1,0.5-0.7,0.6-0.8,0.1c0-0.1,0-0.1,0-0.1c0-0.1-0.1-0.2-0.1-0.4c0-0.1,0-0.2,0-0.2
				c0-0.2-0.1-0.4-0.1-0.7c0-0.2,0-0.4,0-0.6s0.1-0.5,0.1-0.7s0.1-0.4,0.2-0.6c0.1-0.3,0.3-0.7,0.5-1c0.3-0.5,0.8-0.9,1.4-1.2
				c1.5-0.7,2.7-0.1,3.4,1.2C83.5,31.4,83.6,31.8,83.7,32.2C83.7,32.1,83.7,32.2,83.7,32.2z"/>
		</g>
		<g>
			<path class="st0" d="M88.1,32.6c-0.2,0.1-0.5,0-0.5-0.3c0-0.1-0.1-0.3-0.1-0.4c-0.5-1.2-1.7-1.9-2.8-1c-0.4,0.3-0.8,0.8-1,1.3
				c0,0.1-0.1,0.2-0.1,0.3s0,0.1-0.1,0.2c-0.1,0.2-0.1,0.5-0.1,0.7s0,0.4,0,0.6s0,0.4,0.1,0.7c0,0.2,0.1,0.4,0.1,0.5l0,0
				c0,0,0,0,0,0.1c0.1,0.5-0.7,0.6-0.8,0.1c0-0.1,0-0.1,0-0.1c0-0.1-0.1-0.2-0.1-0.4c0-0.1,0-0.1,0-0.2c0-0.2,0-0.4-0.1-0.7
				c0-0.2,0-0.4,0-0.6s0.1-0.5,0.1-0.7s0.1-0.4,0.2-0.6c0.1-0.3,0.3-0.7,0.5-1c0.3-0.5,0.8-0.9,1.3-1.2c1.4-0.6,2.6-0.1,3.3,1
				c0.2,0.3,0.3,0.6,0.4,0.9c0,0.1,0,0.1,0,0.2C88.4,32.3,88.3,32.5,88.1,32.6z"/>
		</g>
		<g>
			<path class="st0" d="M89.7,32.5c0-0.2,0.2-0.8,0.1-1.3c0-0.3-0.1-0.6-0.4-0.5c0,0,0,0-0.1,0c-0.5,0.2-0.8,0.7-1,1.2
				c0,0.1-0.1,0.2-0.1,0.3s-0.1,0.2-0.1,0.3v0.1C88,32.8,88,33,88,33.2c0,0.2,0,0.4,0,0.6c0,0.2,0,0.4,0.1,0.7
				c0,0.2,0.1,0.4,0.1,0.5c0,0,0,0,0,0.1c0.1,0.5-0.6,0.6-0.8,0.1v-0.1c0-0.1-0.1-0.3-0.1-0.4s0-0.1,0-0.2c0-0.2-0.1-0.4-0.1-0.7
				c0-0.2,0-0.4,0-0.6c0-0.2,0-0.5,0.1-0.7c0-0.3,0.1-0.6,0.2-0.8c0.1-0.3,0.3-0.6,0.5-0.9c0.2-0.3,0.5-0.6,0.9-0.8l0,0
				c1.5-0.9,1.7,0.6,1.8,1.8c0,0.2,0,0.3,0,0.5C90.8,32.5,89.7,32.5,89.7,32.5z"/>
		</g>
		<g>
			<rect x="41.7" y="42.8" class="st3" width="46.5" height="1.4"/>
			<rect x="41.7" y="47.3" class="st3" width="46.5" height="1.4"/>
			<rect x="41.7" y="51.9" class="st3" width="46.5" height="1.4"/>
			<rect x="41.7" y="56.5" class="st3" width="46.5" height="1.4"/>
			<rect x="41.7" y="61" class="st3" width="27" height="1.4"/>
		</g>
		<path class="st1" d="M82.9,97.5l8.3-35.7v14.8l-5.1,21.8l-2.5,4.2c-0.1,0.3-0.2,0.4-0.3,0.4c-0.1,0-0.1-0.2,0-0.5l0,0L82.9,97.5z"
			/>
		<polygon class="st1" points="98.1,47.3 96.8,53.4 96.7,53.4 98.1,47.7 		"/>
		<polygon class="st1" points="99.6,47.2 99.6,47.2 99.6,47.3 99.6,47.3 99.6,47.3 98.1,47.2 98.2,46.8 98.3,46.9 		"/>
		<polygon class="st4" points="98.5,47.2 98.5,47.2 98.4,47.6 		"/>
		<path class="st4" d="M99.9,47.5L99.9,47.5C99.9,47.6,99.9,47.6,99.9,47.5L99.9,47.5L99.9,47.5z"/>
		<g>
			<polygon class="st5" points="93.3,48.9 91.8,48.5 81,95.9 82.5,96.2 			"/>
			<polygon class="st6" points="82.5,96.2 84.2,96.6 95,49.3 93.3,48.9 			"/>
			<path class="st7" d="M94.8,50.7l-3.2-0.8l-0.1,0.2l0,0l0,0c0,0.1,0.7,0.4,1.6,0.7c0.9,0.2,1.7,0.3,1.7,0.1l0,0l0,0L94.8,50.7z"/>
			<g>
				<path class="st5" d="M92.9,41L92.9,41L92.9,41z"/>
				<path class="st5" d="M96.2,41.8L96.2,41.8L96.2,41.8z"/>
				<path class="st5" d="M94.2,41.6c-0.4-0.1-0.8,0.1-0.9,0.5l0,0L92.8,44l1.7,0.4l0.6-2.6L94.2,41.6z"/>
				<path class="st6" d="M94.5,44.4l1.7,0.4l0.4-1.8l0,0l0,0v-0.1l0,0c0-0.4-0.2-0.7-0.6-0.8L95,41.9L94.5,44.4z"/>
			</g>
			<path class="st7" d="M94.7,43.6c-0.9-0.2-1.6-0.5-1.6-0.7l-0.2,0.7l3.2,0.8l0.2-0.7C96.3,43.9,95.5,43.8,94.7,43.6z"/>
			<g>
				<path class="st8" d="M93.1,43.1l-1.7,7l0,0l0,0c0,0.1,0.7,0.4,1.6,0.7l1.7-7C93.8,43.4,93,43.1,93.1,43.1z"/>
				<path class="st0" d="M94.7,43.6L93,50.7c0.9,0.2,1.7,0.3,1.7,0.1l0,0l0,0l1.7-7C96.3,43.9,95.5,43.9,94.7,43.6z"/>
			</g>
			<path class="st9" d="M81.7,99.7c0.1,0,0.1,0.4,0,0.8c-0.1,0.4-0.3,0.8-0.3,0.7c-0.1,0-0.1-0.4,0-0.8
				C81.5,100,81.6,99.7,81.7,99.7z"/>
			<polygon class="st0" points="81.5,100.8 81.6,100.8 84.2,96.6 82.5,96.2 			"/>
			<polygon class="st8" points="81,95.9 81.3,100.8 81.5,100.8 82.5,96.2 			"/>
			
				<rect x="82.5" y="94.5" transform="matrix(0.2251 -0.9743 0.9743 0.2251 -29.764 154.9401)" class="st10" width="0.1" height="3.3"/>
			<g>
				<path class="st0" d="M94.8,50.5l0.4,0.1c0.1-0.3,0.2-0.7,0.4-1.1c0.4-0.8,0.9-1.5,1.3-1.8l0.8-3.5l-1.3-0.3L94.8,50.5z"/>
				<polygon class="st11" points="96.4,43.9 96.3,43.9 94.8,50.5 94.8,50.5 				"/>
			</g>
			<path class="st0" d="M97.7,44.3L97.7,44.3C97.6,44.3,97.6,44.3,97.7,44.3L97.7,44.3l-3.2,14.1l0,0l0,0c0,0.1,0.1,0.2,0.2,0.3
				c0.1,0,0.3,0,0.3-0.1l0,0l0,0l3.2-14l0,0l0,0v-0.1c0-0.1-0.1-0.2-0.2-0.3C97.8,44.1,97.7,44.2,97.7,44.3z"/>
		</g>
		<polygon class="st1" points="38.7,93.8 49.5,104.4 49.5,93.8 		"/>
	</g>
</g>
</svg>
