<?xml version="1.0" encoding="utf-8"?>
<!-- Generator: Adobe Illustrator 24.0.3, SVG Export Plug-In . SVG Version: 6.00 Build 0)  -->
<svg version="1.1" id="图层_1" xmlns="http://www.w3.org/2000/svg" xmlns:xlink="http://www.w3.org/1999/xlink" x="0px" y="0px"
	 viewBox="0 0 128 128" style="enable-background:new 0 0 128 128;" xml:space="preserve">
<style type="text/css">
	.st0{fill:#D0E7EF;}
	.st1{fill:#B8CDD4;}
	.st2{fill:#FF8D89;}
	.st3{fill:#FB6262;}
	.st4{fill:#DB8C8C;}
	.st5{fill:#C47E7E;}
</style>
<g>
	<g>
		<g>
			<path class="st0" d="M62.9,52.8v59.8H36.5l0-1.2l-2.1-63.2l-8.9,8.2l-6.7-7.1l-5-5.4l17.7-16.4v0l13.4-1.8c0.6,0.5,1,1,1.2,1.5
				l-8.4,7.4c0,0,22.3,19.5,22.9,19.5C60.7,54.3,61.5,53.7,62.9,52.8z"/>
			<path class="st1" d="M112.3,43.8l-0.6,0.6l-11.2,11.8l-8.7-8l-2.1,64.4H62.9V52.8c6.7-4.5,25.3-17.6,25.3-17.6l-7.8-7.5
				c0-0.1,0.1-0.2,0.1-0.2c0.3-0.6,0.7-1,0.9-1.6l13.4,1.8l0,0.1l0,0l2,1.8L112.3,43.8z"/>
			<g>
				<path class="st2" d="M63.1,64.4c0,0-0.3-6.9-9-7.8c0,0-9.2,0.3-9.8,10.4c0,0,0,17.6,18.8,20.8V64.4z"/>
				<path class="st3" d="M63.1,64.4c0,0,0.3-6.9,9-7.8c0,0,9.2,0.3,9.8,10.4c0,0,0,17.6-18.8,20.8V64.4z"/>
			</g>
			<path class="st1" d="M78,25.4L78,25.4c-2.1,7.3-8.6,10.8-15.1,10.7v-7.6C67.2,28.4,72.3,27.6,78,25.4z"/>
			<path class="st1" d="M62.9,28.4v7.6c-6.4-0.1-12.7-3.7-14.6-10.7v0C48.3,25.4,53.8,28.6,62.9,28.4z"/>
			<path class="st0" d="M62.1,39.1c-0.3,0.2-0.6,0.3-1,0.4c-0.4,0.1-1,0-1.3-0.3c-0.6-0.5-1.4-1.5-2.6-1.2c-0.3,0.1-0.6,0.2-1,0.2
				c-0.7-0.1-1.2-0.4-1.7-0.9c-1.6-1.9-2.3-0.7-3.7-1.9c-0.7-0.6-1.8-3-2.2-3.2c-0.7-0.3-1.5-0.7-2-1.8c-0.2-0.3-0.3-0.7-0.3-1
				c0-0.3-0.1-0.6-0.1-0.9c0-0.4-0.1-0.7-0.2-1l-8.4,7.4c0,0,22.3,19.5,22.9,19.5c0.1,0,1-0.6,2.4-1.5V38.9
				C62.6,38.9,62.4,38.9,62.1,39.1z"/>
			<path class="st1" d="M79.9,29.1c-0.1,0.3-0.2,0.7-0.3,1v0l0,0c-0.1,0.3-0.3,0.7-0.6,0.9c-0.4,0.4-1.6,0.4-1.7,1.6
				c0,0.3-0.1,0.9-0.3,1.2c-0.5,0.9-0.9,1.2-1.7,1.5c-0.9,0.3-2.2,0.4-2.7,1.6c-0.1,0.2-0.2,0.5-0.4,0.7c-0.4,0.4-1,0.9-1.6,0.9
				c-1.3,0-2.1-0.9-3.4,0.5c-0.3,0.3-1,0.8-1.6,0.7c-0.7-0.1-1.6-0.8-2.5-0.8v13.9c6.7-4.5,25.3-17.6,25.3-17.6l-7.8-7.5
				c0,0,0,0.1-0.1,0.1C80.1,28.2,80,28.6,79.9,29.1z"/>
			<path class="st4" d="M48.3,25.4L48.3,25.4L48.3,25.4l-3.5,0.5c0,0,0,0,0,0L48.3,25.4z"/>
			<polygon class="st4" points="48.3,25.4 48.3,25.4 48.3,25.4 			"/>
			<path class="st5" d="M81.4,25.9C81.4,25.9,81.4,25.9,81.4,25.9L78,25.4h0v0L81.4,25.9z"/>
			<polygon class="st5" points="78,25.4 78,25.4 78,25.4 			"/>
			<path class="st2" d="M48.3,25.4L48.3,25.4l-3.5,0.5c0.6,0.5,1,1,1.2,1.5c0.2,0.3,0.3,0.7,0.2,1c0,0.3,0,0.6,0.1,0.9
				c0,0.3,0.1,0.7,0.3,1c0.5,1.1,1.4,1.6,2,1.8c0.4,0.2,1.5,2.6,2.2,3.2c1.5,1.3,2.1,0,3.7,1.9c0.5,0.5,1,0.8,1.7,0.9
				c0.4,0,0.7-0.1,1-0.2c1.1-0.3,1.9,0.7,2.6,1.2c0.3,0.2,0.9,0.4,1.3,0.3c0.4-0.1,0.7-0.2,1-0.4c0.3-0.2,0.5-0.3,0.8-0.3v-2.8
				C56.5,36,50.2,32.3,48.3,25.4z"/>
			<path class="st3" d="M78,25.4L78,25.4c-2.1,7.3-8.6,10.8-15.1,10.7v2.8c0.9,0,1.8,0.7,2.5,0.8c0.7,0.1,1.3-0.3,1.6-0.7
				c1.3-1.3,2.1-0.5,3.4-0.5c0.6,0,1.3-0.5,1.6-0.9c0.2-0.2,0.3-0.5,0.4-0.7c0.5-1.2,1.9-1.2,2.7-1.6c0.8-0.3,1.2-0.6,1.7-1.5
				c0.2-0.4,0.3-0.9,0.3-1.2c0.2-1.2,1.3-1.2,1.7-1.6c0.3-0.2,0.5-0.5,0.6-0.9l0,0v0c0.1-0.3,0.2-0.7,0.3-1c0.1-0.5,0.2-0.9,0.4-1.3
				c0,0,0-0.1,0.1-0.1c0-0.1,0.1-0.2,0.1-0.3c0.3-0.6,0.7-1,0.9-1.5L78,25.4z"/>
			<path class="st2" d="M25.5,56.5l-1.9,1.8c-0.2-0.3-0.4-0.4-0.8-0.5c-0.2,0-0.4,0-0.5,0c-0.4-0.1-0.8-0.4-0.9-0.8
				c-0.2-0.9,0.2-1.9-1.2-2.1c-0.3,0-0.9-0.2-1-0.7c-0.2-0.6-0.1-2-1.2-2.1c-0.3,0-0.5-0.1-0.8-0.2c-0.3-0.1-0.6-0.5-0.6-0.8
				c-0.1-0.6-0.1-1.6-1-1.7c-0.2,0-0.5,0-0.7-0.1c-0.5-0.2-0.7-0.6-0.8-1c-0.5-1.6-1.5-0.8-2.2-1.7c-0.1-0.1-0.2-0.2-0.2-0.4
				l2.2-2.1l5,5.2L25.5,56.5L25.5,56.5z"/>
			<path class="st2" d="M112.3,43.8L112.3,43.8l-11.8,12.4l0.4,0.4l1.5,1.4c0.2-0.3,0.4-0.4,0.8-0.5c0.2,0,0.4,0,0.5-0.1
				c0.4-0.1,0.8-0.4,0.9-0.8c0.2-0.9-0.2-1.9,1.2-2.1c0.3,0,0.9-0.2,1-0.6c0.2-0.6,0.1-2,1.2-2.1c0.3,0,0.5-0.1,0.7-0.2
				c0.3-0.1,0.6-0.5,0.6-0.8c0.1-0.6,0.1-1.6,1-1.7c0.2,0,0.5,0,0.7-0.1c0.5-0.2,0.7-0.6,0.8-1c0.5-1.6,1.5-0.8,2.2-1.7
				c0.1-0.1,0.2-0.2,0.2-0.4L112.3,43.8z"/>
		</g>
	</g>
</g>
</svg>
