<?xml version="1.0" encoding="utf-8"?>
<!-- Generator: Adobe Illustrator 24.0.3, SVG Export Plug-In . SVG Version: 6.00 Build 0)  -->
<svg version="1.1" id="图层_1" xmlns="http://www.w3.org/2000/svg" xmlns:xlink="http://www.w3.org/1999/xlink" x="0px" y="0px"
	 viewBox="0 0 128 128" style="enable-background:new 0 0 128 128;" xml:space="preserve">
<style type="text/css">
	.st0{fill:#F7BFBF;}
	.st1{fill:#EAA0A0;}
	.st2{fill:#525E6E;}
	.st3{fill:#3A4554;}
	.st4{fill:#D0E7EF;}
	.st5{fill:#B8CDD4;}
</style>
<polygon class="st0" points="64.76,29.7 64.76,113.92 43.96,113.92 43.8,111.15 38.8,29.7 "/>
<polygon class="st1" points="90.71,29.7 90.64,30.81 85.54,113.92 64.76,113.92 64.76,29.7 "/>
<g>
	<polygon class="st2" points="61.26,91.15 59.02,91.47 58.23,91.59 53.76,61.43 49.07,29.7 48.2,23.84 32.12,11.79 32.6,11.14 
		33.96,9.32 51.07,22.17 51.06,22.19 52.17,29.7 56.87,61.43 	"/>
	<polygon class="st3" points="59.02,91.47 58.23,91.59 53.76,61.43 49.07,29.7 48.2,23.84 32.12,11.79 32.6,11.14 48.94,23.41 
		49.1,24.52 49.86,29.7 54.57,61.43 	"/>
</g>
<polygon class="st4" points="48.08,110.19 64.71,110.19 64.71,61.43 44.63,61.43 "/>
<polygon class="st5" points="81.39,110.19 64.76,110.19 64.76,61.43 84.83,61.43 "/>
</svg>
