<?xml version="1.0" encoding="utf-8"?>
<!-- Generator: Adobe Illustrator 24.0.3, SVG Export Plug-In . SVG Version: 6.00 Build 0)  -->
<svg version="1.1" id="图层_1" xmlns="http://www.w3.org/2000/svg" xmlns:xlink="http://www.w3.org/1999/xlink" x="0px" y="0px"
	 viewBox="0 0 128 128" style="enable-background:new 0 0 128 128;" xml:space="preserve">
<style type="text/css">
	.st0{fill:#F7D470;}
	.st1{fill:#D0E7EF;}
	.st2{fill:#FF8D89;}
	.st3{fill:#3A4554;}
</style>
<g>
	<g>
		<rect x="92.1" y="64.6" class="st0" width="23" height="17.8"/>
		<g>
			<rect x="94.3" y="66.9" class="st1" width="16.5" height="9.3"/>
			<rect x="95.2" y="67.8" class="st0" width="7.5" height="1.2"/>
			<rect x="95.2" y="69.7" class="st0" width="7.5" height="1.2"/>
			<rect x="95.2" y="71.6" class="st0" width="7.5" height="1.2"/>
			<rect x="103.5" y="67.8" class="st0" width="6.5" height="2.5"/>
			<rect x="95.2" y="73.6" class="st0" width="5.7" height="1.8"/>
			<rect x="107.5" y="72.8" class="st0" width="2.5" height="2.5"/>
			<rect x="104.1" y="72.8" class="st0" width="2.5" height="2.5"/>
		</g>
	</g>
	<g>
		<rect x="92.1" y="46.7" class="st0" width="23" height="17.8"/>
		<g>
			<rect x="94.3" y="49.1" class="st1" width="16.5" height="9.3"/>
			<rect x="95.2" y="50" class="st0" width="7.5" height="1.2"/>
			<rect x="95.2" y="51.9" class="st0" width="7.5" height="1.2"/>
			<rect x="95.2" y="53.8" class="st0" width="7.5" height="1.2"/>
			<rect x="103.5" y="50" class="st0" width="6.5" height="2.5"/>
			<rect x="95.2" y="55.8" class="st0" width="5.7" height="1.8"/>
			<rect x="107.5" y="55" class="st0" width="2.5" height="2.5"/>
			<rect x="104.1" y="55" class="st0" width="2.5" height="2.5"/>
		</g>
	</g>
	<g>
		<g>
			<g>
				<polygon class="st2" points="77.3,72.7 75.9,73.2 74.6,73.7 73.8,71.5 70.9,64.1 59.3,34 33.6,34 27.4,61.4 27.1,62.8 
					23.5,62.8 23.8,61.6 30.8,31.1 61.3,31.1 75.9,69.3 76.8,71.5 				"/>
			</g>
		</g>
		<rect x="83.6" y="64.1" class="st2" width="4.4" height="3.2"/>
		<rect x="83.6" y="73.7" class="st2" width="4.4" height="3.2"/>
		<rect x="83.6" y="81.9" class="st2" width="4.4" height="1.6"/>
		<rect x="75.9" y="34.5" class="st2" width="9.2" height="43.2"/>
		<path class="st2" d="M49.5,62.9c0,0.2-0.2,0.4-0.4,0.4l0,0c-0.2,0-0.3-0.2-0.3-0.5l0.4-3.5c0-0.2,0.2-0.4,0.4-0.4l0,0
			c0.2,0,0.3,0.2,0.3,0.5L49.5,62.9z"/>
		<rect x="55.8" y="49.3" transform="matrix(0.6928 -0.7211 0.7211 0.6928 -18.1744 56.8663)" class="st2" width="3.8" height="1"/>
		<rect x="18.9" y="71.5" class="st2" width="66.3" height="15"/>
		<g>
			<g>
				<path class="st2" d="M52.1,65.6v5.9H17.8v-6.5c1.6-2.7,4.1-3.1,6-3.4c0.5-0.1,0.9-0.1,1.3-0.2h22.1c0.6,0,1.1,0.1,1.6,0.2
					c0.2,0.1,0.5,0.2,0.7,0.2C51.1,62.5,52.1,63.7,52.1,65.6z"/>
			</g>
		</g>
		<polygon class="st2" points="59.5,71.5 64.5,64.1 72.3,64.1 75.2,71.5 		"/>
		<g>
			<path class="st3" d="M85.1,73.9v3.7c-0.3-0.1-0.9-0.1-1.6-0.2c-0.1,0-0.2,0-0.2,0c-0.7-0.1-1.6-0.1-2.4-0.1c-0.1,0-0.2,0-0.4,0
				c-1-0.1-1.9-0.1-2.3-0.1c-0.8,0-1.6,0.1-2.3,0.2c-4.7,0.9-8.4,4.5-9.5,9.2c-0.2,0.8-0.3,1.7-0.3,2.7v0.1H39.7v-0.2
				c0-0.9-0.1-1.8-0.4-2.6c-1.1-3.7-4.5-6.3-8.5-6.3s-7.4,2.6-8.5,6.3c-0.2,0.8-0.4,1.7-0.4,2.6v0.2h-5.7V71.5c0-1.6,0.2-3,0.6-4.2
				c0.3-0.9,0.6-1.6,1-2.3c1.6-2.7,4.1-3.1,6-3.4c0.5-0.1,0.9-0.1,1.3-0.2h7l12.1,10.1l8.3,7.9H65c0,0,0.1-0.1,0.1-0.1
				c0.2-0.2,0.7-0.7,1.4-1.2c0.9-0.7,1.8-1.2,1.8-1.2c1.8-1.1,4.3-2.1,7.6-2.8c2.2-0.4,4.8-0.6,7.7-0.4
				C84.1,73.8,84.6,73.8,85.1,73.9z"/>
		</g>
		<path class="st1" d="M66.2,89.2c0,0.1,0,0.1,0,0.2H39.7c0-0.1,0-0.1,0-0.2c0-0.9-0.1-1.8-0.4-2.6h27.2
			C66.3,87.4,66.2,88.3,66.2,89.2z"/>
		<path class="st1" d="M66.2,89.4c0,0,0.3-14.7,19-11.8L85,75.4c0,0-21.2-2.2-21.2,14H66.2z"/>
		<path class="st1" d="M22.3,86.6c-0.2,0.8-0.4,1.7-0.4,2.6v0.2h-5.7v-2.8H22.3z"/>
		<g>
			<g>
				<g>
					<path class="st1" d="M45.4,56.3h-8.3c-1.3,0-2.4,1-2.5,2.3H48C47.8,57.3,46.8,56.3,45.4,56.3z"/>
				</g>
			</g>
			<g>
				
					<rect x="33.9" y="46.6" transform="matrix(0.9959 -9.016793e-02 9.016793e-02 0.9959 -4.6635 3.3415)" class="st2" width="1.5" height="13.5"/>
				<g>
					<g>
						<path class="st1" d="M38,57.2l-0.7-8.3c-0.1-1.3-1.2-2.3-2.5-2.3L36,59.9C37.3,59.6,38.2,58.5,38,57.2z"/>
					</g>
				</g>
			</g>
			<rect x="34.5" y="58.6" class="st2" width="13.5" height="1.5"/>
		</g>
		<rect x="37.4" y="59.5" class="st2" width="1.8" height="2.3"/>
		<rect x="44.1" y="59.5" class="st2" width="1.8" height="2.3"/>
		<path class="st1" d="M24,68.6V72c0,0.7-0.6,1.2-1.2,1.2h-6.7v-1.7c0-1.6,0.2-3,0.6-4.2h6C23.5,67.3,24,67.9,24,68.6z"/>
		<rect x="41.3" y="82.4" class="st1" width="6.7" height="1.9"/>
		<g>
			<path class="st2" d="M38.1,89.4c0,4.2-3.4,7.5-7.5,7.5c-4.2,0-7.5-3.4-7.5-7.5c0-4.2,3.4-7.5,7.5-7.5
				C34.7,81.8,38.1,85.2,38.1,89.4z"/>
			<path class="st1" d="M34,89.4c0,1.9-1.5,3.4-3.4,3.4c-1.9,0-3.4-1.5-3.4-3.4c0-1.9,1.5-3.4,3.4-3.4C32.4,86,34,87.5,34,89.4z"/>
		</g>
		<g>
			<path class="st2" d="M86.5,88.3c0,4.7-3.8,8.6-8.6,8.6c-4.7,0-8.6-3.8-8.6-8.6c0-4.7,3.8-8.6,8.6-8.6
				C82.7,79.7,86.5,83.6,86.5,88.3z"/>
			<path class="st1" d="M81.8,88.3c0,2.1-1.7,3.8-3.8,3.8c-2.1,0-3.8-1.7-3.8-3.8c0-2.1,1.7-3.8,3.8-3.8
				C80,84.5,81.8,86.2,81.8,88.3z"/>
		</g>
		<path class="st2" d="M60.1,54c-0.7-0.6-0.9-1.6-0.4-2.3l0,0c0.5-0.7,1.6-0.7,2.5,0c4.5,4.1,6.5,9,5,14.9c-0.3,1.1-1.2,1.7-2,1.4
			l0,0c-0.8-0.3-1.1-1.3-0.9-2.1C65.4,61.1,63.8,57.3,60.1,54z"/>
		<polygon class="st2" points="63.5,53.1 61.4,55.2 57.6,52.4 60.7,49.3 		"/>
		<path class="st2" d="M62,46.9c0.3,0.3,0.4,0.8,0,1.1l-5.8,6.3c-0.3,0.3-0.8,0.3-1.1,0l0,0c-0.3-0.3-0.3-0.8,0-1.1l5.8-6.3
			C61.2,46.6,61.7,46.6,62,46.9L62,46.9z"/>
		<rect x="87" y="54.5" class="st2" width="3.6" height="31.5"/>
		<path class="st2" d="M118.7,84.7c0,0.7-0.6,1.3-1.3,1.3H88.6c-0.7,0-1.3-0.6-1.3-1.3l0,0c0-0.7,0.6-1.3,1.3-1.3h28.7
			C118.1,83.3,118.7,83.9,118.7,84.7L118.7,84.7z"/>
		<rect x="75.9" y="43.7" class="st3" width="3.3" height="25.4"/>
		<rect x="75.9" y="43.7" class="st3" width="6.4" height="2.8"/>
		<rect x="75.9" y="34.5" class="st3" width="9.4" height="2.3"/>
		<rect x="75.9" y="36.8" class="st2" width="0.9" height="6.8"/>
		<rect x="79.2" y="36.8" class="st2" width="0.9" height="6.9"/>
		<rect x="82.4" y="49.8" class="st2" width="1.2" height="9.7"/>
		<polygon class="st1" points="32.1,61.4 52.5,79.5 53.9,76.9 36,61.4 		"/>
		<path class="st1" d="M52.5,79.5l1.4-2.5h14.4c0,0-2.4,1.4-3.3,2.5H52.5z"/>
	</g>
</g>
</svg>
