<?xml version="1.0" encoding="utf-8"?>
<!-- Generator: Adobe Illustrator 24.0.3, SVG Export Plug-In . SVG Version: 6.00 Build 0)  -->
<svg version="1.1" id="图层_1" xmlns="http://www.w3.org/2000/svg" xmlns:xlink="http://www.w3.org/1999/xlink" x="0px" y="0px"
	 viewBox="0 0 128 128" style="enable-background:new 0 0 128 128;" xml:space="preserve">
<style type="text/css">
	.st0{fill:#525E6E;}
	.st1{fill:#3A4554;}
	.st2{fill:#D0E7EF;}
	.st3{fill:#FF8D89;}
	.st4{fill:#CBC1A7;}
</style>
<g>
	<g>
		<g>
			<g>
				<g>
					<g>
						<path class="st0" d="M67.25,37.83c-1.36-0.16-2.75-0.24-4.15-0.24c-1.4,0-2.78,0.08-4.14,0.24
							c-17.53,2.05-31.14,16.96-31.14,35.05c0,7.32,2.23,14.12,6.04,19.76c2.53,3.73,5.76,6.96,9.48,9.48
							c5.64,3.82,12.44,6.05,19.76,6.05c19.49,0,35.29-15.8,35.29-35.29C98.39,54.79,84.78,39.88,67.25,37.83z M63.1,105.2
							c-17.85,0-32.32-14.47-32.32-32.32c0-17.85,14.47-32.32,32.32-32.32c17.85,0,32.32,14.47,32.32,32.32
							C95.42,90.73,80.95,105.2,63.1,105.2z"/>
						
							<ellipse transform="matrix(0.9957 -0.0925 0.0925 0.9957 -6.4737 6.1527)" class="st1" cx="63.11" cy="72.88" rx="32.32" ry="32.32"/>
						<path class="st2" d="M94.21,72.88c0,17.18-13.93,31.1-31.1,31.1S32,90.06,32,72.88c0-17.18,13.93-31.1,31.1-31.1
							S94.21,55.7,94.21,72.88z"/>
					</g>
					<path class="st0" d="M65.07,44.31v6.44l-2.7-6.44h-3.45v8.66h2.21v-6.49l2.7,6.49h3.45v-8.66H65.07z"/>
					<path class="st0" d="M83.07,69.58v6.6h1.94V71.9h1.63v4.07h1.67V71.9h1.5v4.19h1.93v-6.51H83.07z"/>
					<path class="st0" d="M66.18,97.52c-0.36-0.35-0.91-0.56-1.65-0.65l-1.72-0.19c-0.62-0.07-0.94-0.26-0.94-0.58v-0.36
						c0-0.22,0.07-0.37,0.21-0.45c0.14-0.09,0.39-0.13,0.76-0.13h0.53c0.32,0,0.54,0.05,0.66,0.15c0.13,0.1,0.19,0.28,0.19,0.54
						v0.09h2.23v-0.59c0-0.66-0.23-1.17-0.69-1.52c-0.46-0.34-1.12-0.52-1.98-0.52h-1.4c-0.59,0-1.04,0.04-1.33,0.11
						c-0.3,0.07-0.56,0.19-0.77,0.37c-0.24,0.2-0.43,0.46-0.55,0.78c-0.13,0.31-0.2,0.67-0.2,1.07v0.54c0,0.71,0.17,1.25,0.49,1.61
						c0.32,0.37,0.84,0.59,1.54,0.66l1.88,0.21c0.4,0.04,0.65,0.11,0.77,0.2c0.11,0.09,0.16,0.24,0.16,0.44v0.38
						c0,0.24-0.07,0.41-0.21,0.51c-0.14,0.09-0.39,0.14-0.74,0.14h-0.58c-0.42,0-0.72-0.06-0.89-0.19
						c-0.16-0.12-0.25-0.34-0.25-0.66V99.4h-2.22v0.6c0,0.76,0.22,1.31,0.68,1.66c0.46,0.35,1.2,0.52,2.21,0.52h1.89
						c0.76,0,1.36-0.21,1.8-0.64c0.45-0.43,0.67-1.01,0.67-1.72v-0.84C66.73,98.36,66.55,97.87,66.18,97.52z"/>
					<path class="st0" d="M42.96,67.08l-8.67,1.34v3.34l5.88,1.1l-5.88,1.06v3.31l8.67,1.45v-2.34l-6.64-0.91l6.64-1.23v-2.6
						l-6.64-1.35l6.64-0.82V67.08z"/>
					<g>
						<polygon class="st3" points="61.96,70.97 80.04,58.53 64.79,74.31 						"/>
						<polygon class="st4" points="64.79,74.31 46.7,86.76 61.96,70.97 						"/>
						<path class="st1" d="M65.13,75.27c-1.32,1.12-3.3,0.96-4.42-0.36c-1.12-1.32-0.96-3.3,0.37-4.42c1.32-1.12,3.3-0.96,4.42,0.37
							C66.62,72.17,66.46,74.15,65.13,75.27z"/>
					</g>
					<rect x="58.96" y="31.56" class="st0" width="8.29" height="8.07"/>
					<path class="st0" d="M71.6,18.81c-0.86-1.38-2.03-2.55-3.41-3.41c-1.62-1.01-3.54-1.6-5.6-1.6c-5.86,0-10.61,4.75-10.61,10.61
						c0,4.59,2.91,8.49,6.98,9.98c1.13,0.4,2.36,0.63,3.63,0.63c1.67,0,3.25-0.39,4.66-1.08c3.52-1.72,5.95-5.34,5.95-9.53
						C73.2,22.35,72.61,20.43,71.6,18.81z M67.25,32.54c-1.37,0.79-2.96,1.24-4.66,1.24c-1.29,0-2.52-0.26-3.63-0.73
						c-3.38-1.41-5.75-4.75-5.75-8.64c0-5.18,4.2-9.38,9.38-9.38c5.18,0,9.37,4.2,9.37,9.38C71.96,27.89,70.07,30.93,67.25,32.54z"
						/>
				</g>
				<g>
					<g>
						
							<rect x="80.02" y="55.41" transform="matrix(0.6759 -0.737 0.737 0.6759 -14.6267 78.552)" class="st0" width="3.95" height="0.99"/>
						
							<rect x="43.46" y="52.68" transform="matrix(0.6633 -0.7484 0.7484 0.6633 -26.1015 51.296)" class="st0" width="0.99" height="3.95"/>
					</g>
				</g>
				<g>
					<g>
						
							<rect x="41.87" y="89.14" transform="matrix(0.6751 -0.7377 0.7377 0.6751 -51.8766 61.4634)" class="st0" width="3.95" height="0.99"/>
						
							<rect x="81.4" y="88.91" transform="matrix(0.6632 -0.7484 0.7484 0.6632 -40.4409 91.8932)" class="st0" width="0.99" height="3.95"/>
					</g>
				</g>
			</g>
		</g>
	</g>
</g>
</svg>
