<?xml version="1.0" encoding="utf-8"?>
<!-- Generator: Adobe Illustrator 24.0.3, SVG Export Plug-In . SVG Version: 6.00 Build 0)  -->
<svg version="1.1" id="图层_1" xmlns="http://www.w3.org/2000/svg" xmlns:xlink="http://www.w3.org/1999/xlink" x="0px" y="0px"
	 viewBox="0 0 128 128" style="enable-background:new 0 0 128 128;" xml:space="preserve">
<style type="text/css">
	.st0{fill:#525E6E;}
	.st1{fill:#3A4554;}
	.st2{fill:#D0E7EF;}
	.st3{fill:#FF8D89;}
	.st4{fill:#CBC1A7;}
</style>
<g>
	<g>
		<g>
			<g>
				<g>
					<g>
						<path class="st0" d="M68.2,33.8c-1.4-0.2-2.8-0.2-4.2-0.2s-2.8,0.1-4.1,0.2c-17.5,2-31.1,17-31.1,35.1c0,7.3,2.2,14.1,6,19.8
							c2.5,3.7,5.8,7,9.5,9.5c5.6,3.8,12.4,6.1,19.8,6.1c19.5,0,35.3-15.8,35.3-35.3C99.4,50.8,85.8,35.9,68.2,33.8z M64.1,101.2
							c-17.8,0-32.3-14.5-32.3-32.3s14.5-32.3,32.3-32.3S96.4,51,96.4,68.9S81.9,101.2,64.1,101.2z"/>
						<ellipse class="st1" cx="64.1" cy="68.9" rx="32.3" ry="32.3"/>
						<path class="st2" d="M95.2,68.9c0,17.2-13.9,31.1-31.1,31.1S33,86.1,33,68.9s13.9-31.1,31.1-31.1S95.2,51.7,95.2,68.9z"/>
					</g>
					<path class="st0" d="M66.1,40.3v6.4l-2.7-6.4h-3.5V49h2.2v-6.5l2.7,6.5h3.4v-8.7H66.1z"/>
					<path class="st0" d="M84.1,65.6v6.6H86v-4.3h1.6V72h1.7v-4.1h1.5v4.2h1.9v-6.5H84.1z"/>
					<path class="st0" d="M67.2,93.5c-0.4-0.3-0.9-0.6-1.7-0.7l-1.7-0.2c-0.6-0.1-0.9-0.3-0.9-0.6v-0.4c0-0.2,0.1-0.4,0.2-0.4
						c0.1-0.1,0.4-0.1,0.8-0.1h0.5c0.3,0,0.5,0.1,0.7,0.2c0.1,0.1,0.2,0.3,0.2,0.5v0.1h2.2v-0.6c0-0.7-0.2-1.2-0.7-1.5
						c-0.5-0.3-1.1-0.5-2-0.5h-1.4c-0.6,0-1,0-1.3,0.1c-0.3,0.1-0.6,0.2-0.8,0.4c-0.2,0.2-0.4,0.5-0.5,0.8c-0.1,0.3-0.2,0.7-0.2,1.1
						v0.5c0,0.7,0.2,1.2,0.5,1.6c0.3,0.4,0.8,0.6,1.5,0.7l1.9,0.2c0.4,0,0.7,0.1,0.8,0.2c0.1,0.1,0.2,0.2,0.2,0.4v0.4
						c0,0.2-0.1,0.4-0.2,0.5c-0.1,0.1-0.4,0.1-0.7,0.1h-0.6c-0.4,0-0.7-0.1-0.9-0.2c-0.2-0.1-0.2-0.3-0.2-0.7v-0.1h-2.2V96
						c0,0.8,0.2,1.3,0.7,1.7c0.5,0.3,1.2,0.5,2.2,0.5h1.9c0.8,0,1.4-0.2,1.8-0.6c0.4-0.4,0.7-1,0.7-1.7V95
						C67.7,94.4,67.6,93.9,67.2,93.5z"/>
					<path class="st0" d="M44,63.1l-8.7,1.3v3.3l5.9,1.1l-5.9,1.1v3.3l8.7,1.4v-2.3l-6.6-0.9l6.6-1.2v-2.6l-6.6-1.3l6.6-0.8V63.1z"
						/>
					<g>
						<polygon class="st3" points="63,67 81,54.5 65.8,70.3 						"/>
						<polygon class="st4" points="65.8,70.3 47.7,82.8 63,67 						"/>
						<path class="st1" d="M66.1,71.3c-1.3,1.1-3.3,1-4.4-0.4s-1-3.3,0.4-4.4c1.3-1.1,3.3-1,4.4,0.4C67.6,68.2,67.5,70.2,66.1,71.3z
							"/>
					</g>
					<rect x="60" y="27.6" class="st0" width="8.3" height="8.1"/>
					<path class="st0" d="M72.6,14.8c-0.9-1.4-2-2.5-3.4-3.4c-1.6-1-3.5-1.6-5.6-1.6C57.7,9.8,53,14.5,53,20.4c0,4.6,2.9,8.5,7,10
						c1.1,0.4,2.4,0.6,3.6,0.6c1.7,0,3.2-0.4,4.7-1.1c3.5-1.7,5.9-5.3,5.9-9.5C74.2,18.4,73.6,16.4,72.6,14.8z M68.2,28.5
						c-1.4,0.8-3,1.2-4.7,1.2c-1.3,0-2.5-0.3-3.6-0.7c-3.4-1.4-5.8-4.8-5.8-8.6c0-5.2,4.2-9.4,9.4-9.4s9.4,4.2,9.4,9.4
						C73,23.9,71.1,26.9,68.2,28.5z"/>
				</g>
				<g>
					<g>
						<rect x="81" y="51.4" transform="matrix(0.6759 -0.737 0.737 0.6759 -11.3567 77.9911)" class="st0" width="4" height="1"/>
						
							<rect x="44.5" y="48.7" transform="matrix(0.6633 -0.7484 0.7484 0.6633 -22.7689 50.7011)" class="st0" width="1" height="4"/>
					</g>
				</g>
				<g>
					<g>
						
							<rect x="42.9" y="85.1" transform="matrix(0.6751 -0.7377 0.7377 0.6751 -48.6014 60.9048)" class="st0" width="3.9" height="1"/>
						
							<rect x="82.4" y="84.9" transform="matrix(0.6632 -0.7484 0.7484 0.6632 -37.1058 91.2956)" class="st0" width="1" height="3.9"/>
					</g>
				</g>
			</g>
		</g>
	</g>
</g>
</svg>
