<?xml version="1.0" encoding="utf-8"?>
<!-- Generator: Adobe Illustrator 24.0.3, SVG Export Plug-In . SVG Version: 6.00 Build 0)  -->
<svg version="1.1" id="图层_1" xmlns="http://www.w3.org/2000/svg" xmlns:xlink="http://www.w3.org/1999/xlink" x="0px" y="0px"
	 viewBox="0 0 128 128" style="enable-background:new 0 0 128 128;" xml:space="preserve">
<style type="text/css">
	.st0{fill:#F0C599;}
	.st1{fill:#DFB285;}
	.st2{fill:#BF976F;}
	.st3{fill:#6E472F;}
	.st4{fill:#4F3322;}
	.st5{fill:#F0DFCE;}
	.st6{fill:#F7B5B5;}
	.st7{fill:#E2E2E2;}
	.st8{fill:#939292;}
	.st9{fill:#4ECDDA;}
	.st10{fill:#F4A2A2;}
	.st11{fill:#00A1B3;}
</style>
<rect x="29.6" y="106.1" class="st0" width="11.3" height="44.6"/>
<rect x="37.8" y="106.1" class="st1" width="3.1" height="44.6"/>
<g>
	<path class="st0" d="M28.8,151.4c1.2-3.2,4.5-5.6,7.6-5.6c3.3,0,5.9,1.9,6.3,4.6c0,0,0.6,2.3,0.2,4.9c0,0-0.1,1.6-1.8,1.6
		c0,0-1.7,0-1.7-1.5c0,0,0-2.9-2.5-3.6c-0.1,0-0.3-0.1-0.5-0.1c-0.6,0-1.8,0.8-2.2,1.9c-0.5,1.4-0.4,3.6,0.1,4.5l1.7,3.2
		c0.8,1.4,0.2,3.2-1.2,3.9c-0.4,0.2-0.9,0.4-1.4,0.4c-1,0-2-0.6-2.6-1.5l-1.7-3.2C27.8,158.3,27.6,154.2,28.8,151.4z"/>
</g>
<rect x="86.1" y="106.1" class="st1" width="11.3" height="44.6"/>
<rect x="86.1" y="106.1" class="st2" width="3.1" height="44.6"/>
<g>
	<path class="st1" d="M98.3,151.4c-1.2-3.2-4.5-5.6-7.6-5.6c-3.3,0-5.9,1.9-6.3,4.6c0,0-0.6,2.3-0.2,4.9c0,0,0.2,1.6,1.8,1.6
		c0,0,1.7,0,1.7-1.5c0,0,0-2.9,2.5-3.6c0.1,0,0.3-0.1,0.6-0.1c0.6,0,1.8,0.8,2.2,1.9c0.5,1.4,0.4,3.6-0.1,4.5l-1.7,3.2
		c-0.8,1.4-0.2,3.2,1.2,3.9c0.4,0.2,0.9,0.4,1.4,0.4c1,0,2-0.6,2.6-1.5l1.7-3.2C99.2,158.3,99.4,154.2,98.3,151.4z"/>
</g>
<g>
	<path class="st3" d="M63.9,13.7l0-6.9c-19,0-22.7,20-17.9,38.3c2.4,8.9-4.7,15.2-4.7,15.2l1.7-0.7l0.6,4.3c0,0,18.1-5.4,18.1-5.8
		c0-0.3,3.4-40.5,3.4-40.5L63.9,13.7z"/>
	<path class="st4" d="M63.5,13.7l0-6.9c19,0,22.7,20,17.9,38.3c-2.4,8.9,4.7,15.2,4.7,15.2l-1.7-0.7l-0.6,4.3c0,0-18.1-5.4-18.1-5.8
		c0-0.3-3.4-40.5-3.4-40.5L63.5,13.7z"/>
	<g>
		<polygon class="st1" points="77.7,60 63.6,79.1 63.6,79.1 63.5,79.1 63.5,79.1 63.6,60.5 63.6,41.3 70.6,42.8 70.6,51.7 
			75.8,54.6 		"/>
	</g>
	<path class="st5" d="M70.6,42.8v2.9c-1.7,2.2-4,3.1-7,3h0v-7.4L70.6,42.8z"/>
	<g>
		<polygon class="st0" points="63.6,79.1 63.6,79.1 63.6,79.1 63.5,79.1 49.5,60 51.3,54.6 56.5,51.7 56.5,42.8 63.6,41.3 
			63.6,60.5 		"/>
	</g>
	<path class="st5" d="M63.6,41.3v7.4h0c-3,0-5.3-0.9-7-3v-2.9L63.6,41.3z"/>
	<g>
		<g>
			<g>
				<g>
					<path class="st0" d="M63.5,13.8l0,33.9c-6.6,0.1-10.3-6.1-11.8-12.8c0,0,0,0,0,0c-0.1-0.6-0.2-1.2-0.3-1.8
						c-0.3-1.6-0.4-3.1-0.4-4.6c0-1.6,0.2-3.1,0.5-4.5c0.1-0.7,0.3-1.3,0.5-1.9c0.2-0.5,0.4-0.9,0.6-1.4
						C54.6,16.5,58.3,13.8,63.5,13.8z"/>
				</g>
			</g>
			<g>
				<g>
					<path class="st1" d="M76.1,28.4c0,1.4-0.1,2.9-0.3,4.4c-0.1,0.6-0.2,1.2-0.3,1.8c-0.2,0.7-0.3,1.4-0.5,2.1
						c-0.1,0.1-0.1,0.2-0.1,0.4c-0.4,1.4-0.9,2.7-1.6,3.9c-2,3.9-5.2,6.7-9.7,6.6l0-33.9c2,0,3.8,0.4,5.3,1.1
						c2.5,1.2,4.4,3.2,5.6,5.8c0,0,0,0.1,0,0.1c0.2,0.5,0.4,1,0.7,1.6v0c0,0,0,0.1,0.1,0.2c0.2,0.5,0.3,0.9,0.4,1.4
						c0.1,0.5,0.2,1,0.3,1.5C76,26.4,76.1,27.4,76.1,28.4z"/>
				</g>
			</g>
		</g>
	</g>
	<path class="st4" d="M68.9,14.4c0,0,2.5,8.9,8.1,18.4l2.6-10.5l-6.4-8.6L68.9,14.4z"/>
	<g>
		<path class="st3" d="M58.9,12.1l-10.1,6.5l-4,12.9L49,45c-1.9-9.2,4.5-13.6,4.5-13.6c4.1-2.2,7.5-5.6,10.1-8.7V11.8L58.9,12.1z"/>
		<path class="st4" d="M71.4,11.8h-7.9v10.9c3.4-4.2,5.8-8.2,5.8-8.2L71.4,11.8z"/>
	</g>
</g>
<circle class="st6" cx="34.6" cy="73.1" r="9.5"/>
<polygon class="st6" points="30.1,64.8 53.4,53.4 53.4,141 41,141.2 50.7,120.4 41,87.8 "/>
<polygon class="st6" points="25.1,73.1 25.1,102.9 41,102.9 41,76.2 "/>
<rect x="37.8" y="87.8" class="st7" width="3.1" height="15.1"/>
<polygon class="st7" points="63.5,85.6 51,54.6 53.8,53.2 63.5,77.4 "/>
<rect x="25.1" y="102.9" class="st7" width="12.8" height="3.2"/>
<rect x="37.8" y="102.9" class="st8" width="3.1" height="3.2"/>
<polygon class="st9" points="63.5,138.9 41.5,138.9 41,141.2 63.5,141.2 "/>
<path class="st10" d="M83,73.1c0,5.2,4.2,9.5,9.5,9.5s9.5-4.2,9.5-9.5s-4.2-9.5-9.5-9.5C87.3,63.6,83,67.9,83,73.1z"/>
<polygon class="st10" points="97,64.8 73.7,53.4 73.7,141 86.1,141.2 74.3,120.4 86.1,87.8 "/>
<polygon class="st10" points="102,73.1 102,102.9 86.1,102.9 86.1,76.2 "/>
<rect x="86.1" y="87.8" class="st7" width="3.1" height="15.1"/>
<polygon class="st7" points="63.5,85.6 76.1,54.6 73.3,53.2 63.5,77.4 "/>
<rect x="89.2" y="102.9" class="st7" width="12.8" height="3.2"/>
<rect x="86.1" y="102.9" class="st8" width="3.1" height="3.2"/>
<polygon class="st11" points="63.5,138.9 85.6,138.9 86.1,141.2 63.5,141.2 "/>
<path class="st6" d="M41,87.8c0,0,10.5,31.8,0.5,51.1h22.1V85.6L51.6,56L31.5,79.8L41,87.8z"/>
<path class="st10" d="M86.1,87.8c0,0-10.5,31.8-0.5,51.1H63.5V85.6l12-29.7l20.1,23.8L86.1,87.8z"/>
</svg>
