<?xml version="1.0" encoding="utf-8"?>
<!-- Generator: Adobe Illustrator 24.0.3, SVG Export Plug-In . SVG Version: 6.00 Build 0)  -->
<svg version="1.1" id="图层_1" xmlns="http://www.w3.org/2000/svg" xmlns:xlink="http://www.w3.org/1999/xlink" x="0px" y="0px"
	 viewBox="0 0 128 128" style="enable-background:new 0 0 128 128;" xml:space="preserve">
<style type="text/css">
	.st0{fill:#F0C599;}
	.st1{fill:#DFB285;}
	.st2{fill:#BF976F;}
	.st3{fill:#6E472F;}
	.st4{fill:#4F3322;}
	.st5{fill:#F0DFCE;}
	.st6{fill:#F7B5B5;}
	.st7{fill:#E2E2E2;}
	.st8{fill:#939292;}
	.st9{fill:#4ECDDA;}
	.st10{fill:#F4A2A2;}
	.st11{fill:#00A1B3;}
</style>
<g>
	<rect x="29.64" y="106.12" class="st0" width="11.33" height="44.61"/>
	<rect x="37.83" y="106.12" class="st1" width="3.14" height="44.61"/>
	<g>
		<path class="st0" d="M28.76,151.42c1.25-3.17,4.52-5.56,7.62-5.56c3.29,0,5.92,1.95,6.31,4.55c0,0,0.61,2.33,0.21,4.91
			c0,0-0.14,1.57-1.76,1.56c0,0-1.68,0-1.7-1.51c0,0,0.04-2.88-2.52-3.61c-0.14-0.04-0.32-0.07-0.55-0.07c-0.58,0-1.8,0.83-2.2,1.86
			c-0.53,1.35-0.36,3.55,0.13,4.46l1.74,3.21c0.77,1.41,0.24,3.18-1.17,3.95c-0.44,0.24-0.92,0.35-1.39,0.35
			c-1.03,0-2.03-0.55-2.56-1.52l-1.74-3.21C27.83,158.28,27.65,154.25,28.76,151.42z"/>
	</g>
</g>
<g>
	
		<rect x="86.11" y="106.12" transform="matrix(-1 -1.224647e-16 1.224647e-16 -1 183.5517 256.8493)" class="st1" width="11.33" height="44.61"/>
	
		<rect x="86.11" y="106.12" transform="matrix(-1 -1.224647e-16 1.224647e-16 -1 175.3676 256.8493)" class="st2" width="3.14" height="44.61"/>
	<g>
		<path class="st1" d="M98.32,151.42c-1.25-3.17-4.52-5.56-7.62-5.56c-3.29,0-5.92,1.95-6.31,4.55c0,0-0.62,2.33-0.21,4.91
			c0,0,0.15,1.57,1.76,1.56c0,0,1.68,0,1.7-1.51c0,0-0.04-2.88,2.52-3.61c0.14-0.04,0.32-0.07,0.55-0.07c0.58,0,1.8,0.83,2.2,1.86
			c0.53,1.35,0.36,3.55-0.13,4.46l-1.74,3.21c-0.77,1.41-0.24,3.18,1.17,3.95c0.44,0.24,0.92,0.35,1.39,0.35
			c1.03,0,2.03-0.55,2.56-1.52l1.74-3.21C99.25,158.28,99.44,154.25,98.32,151.42z"/>
	</g>
</g>
<g>
	<path class="st3" d="M63.94,13.68l-0.02-6.94c-19.04,0-22.69,20.05-17.87,38.3c2.36,8.94-4.68,15.18-4.68,15.18l1.71-0.72
		l0.64,4.27c0,0,18.07-5.42,18.07-5.76c0-0.34,3.39-40.54,3.39-40.54L63.94,13.68z"/>
	<path class="st4" d="M63.53,13.68l0.02-6.94c19.04,0,22.69,20.05,17.87,38.3c-2.36,8.94,4.68,15.18,4.68,15.18l-1.71-0.72
		l-0.64,4.27c0,0-18.07-5.42-18.07-5.76c0-0.34-3.39-40.54-3.39-40.54L63.53,13.68z"/>
	<g>
		<polygon class="st1" points="77.65,59.95 63.58,79.08 63.56,79.11 63.54,79.11 63.54,79.08 63.56,60.48 63.56,41.35 70.61,42.76 
			70.61,51.73 75.77,54.56 		"/>
	</g>
	<path class="st5" d="M70.61,42.76v2.94c-1.73,2.18-4.04,3.09-7.03,3.03h-0.02v-7.39L70.61,42.76z"/>
	<g>
		<polygon class="st0" points="63.58,79.08 63.58,79.11 63.56,79.11 63.54,79.08 49.47,59.95 51.35,54.56 56.51,51.73 56.51,42.76 
			63.56,41.35 63.56,60.48 		"/>
	</g>
	<path class="st5" d="M63.56,41.35v7.39h-0.02c-2.99,0.05-5.3-0.86-7.03-3.03v-2.94L63.56,41.35z"/>
	<g>
		<g>
			<g>
				<g>
					<path class="st0" d="M63.55,13.75l-0.02,33.87c-6.63,0.13-10.34-6.13-11.77-12.76c0,0,0,0,0-0.02
						c-0.13-0.6-0.25-1.19-0.34-1.79c-0.27-1.59-0.38-3.13-0.38-4.61c0-1.57,0.16-3.09,0.51-4.5c0.13-0.67,0.31-1.3,0.54-1.93
						c0.16-0.47,0.36-0.94,0.58-1.37C54.57,16.5,58.26,13.75,63.55,13.75z"/>
				</g>
			</g>
			<g>
				<g>
					<path class="st1" d="M76.06,28.44c0,1.41-0.11,2.91-0.34,4.43c-0.09,0.58-0.2,1.16-0.31,1.75c-0.16,0.72-0.34,1.43-0.54,2.13
						c-0.05,0.11-0.07,0.25-0.11,0.36c-0.4,1.37-0.92,2.69-1.57,3.9c-2.04,3.9-5.2,6.72-9.67,6.63l0.02-33.87
						c2.02,0,3.78,0.4,5.33,1.12c2.51,1.19,4.39,3.22,5.57,5.82c0.02,0.02,0.02,0.07,0.04,0.09c0.25,0.52,0.45,1.03,0.65,1.59v0.02
						c0.02,0.05,0.02,0.11,0.05,0.16c0.16,0.45,0.27,0.9,0.38,1.37c0.11,0.47,0.2,0.96,0.27,1.46
						C75.99,26.35,76.06,27.38,76.06,28.44z"/>
				</g>
			</g>
		</g>
	</g>
	<path class="st4" d="M68.91,14.39c0,0,2.52,8.85,8.06,18.44l2.63-10.5l-6.36-8.58L68.91,14.39z"/>
	<g>
		<path class="st3" d="M58.89,12.08l-10.08,6.48l-3.99,12.87l4.14,13.6c-1.88-9.16,4.47-13.6,4.47-13.6
			c4.11-2.25,7.53-5.61,10.09-8.71v-10.9L58.89,12.08z"/>
		<path class="st4" d="M71.4,11.83h-7.87v10.9c3.44-4.16,5.77-8.23,5.77-8.23L71.4,11.83z"/>
	</g>
</g>
<circle class="st6" cx="34.56" cy="73.12" r="9.49"/>
<polygon class="st6" points="30.11,64.75 53.43,53.42 53.43,140.96 40.97,141.17 50.7,120.43 40.97,87.83 "/>
<polygon class="st6" points="25.07,73.12 25.07,102.92 40.97,102.92 40.97,76.18 "/>
<rect x="37.83" y="87.83" class="st7" width="3.14" height="15.09"/>
<polygon class="st7" points="63.54,85.61 51.03,54.59 53.82,53.21 63.54,77.39 "/>
<rect x="25.07" y="102.92" class="st7" width="12.75" height="3.21"/>
<rect x="37.83" y="102.92" class="st8" width="3.14" height="3.21"/>
<polygon class="st9" points="63.54,138.95 41.46,138.95 40.97,141.17 63.54,141.17 "/>
<path class="st10" d="M83.03,73.12c0,5.24,4.25,9.49,9.49,9.49c5.24,0,9.49-4.25,9.49-9.49c0-5.24-4.25-9.49-9.49-9.49
	C87.27,63.64,83.03,67.88,83.03,73.12z"/>
<polygon class="st10" points="96.96,64.75 73.65,53.4 73.65,140.96 86.1,141.17 74.26,120.43 86.1,87.83 "/>
<polygon class="st10" points="102,73.12 102,102.92 86.1,102.92 86.1,76.18 "/>
<rect x="86.1" y="87.83" transform="matrix(-1 -1.224647e-16 1.224647e-16 -1 175.3465 190.7433)" class="st7" width="3.14" height="15.09"/>
<polygon class="st7" points="63.54,85.61 76.07,54.58 73.3,53.21 63.54,77.39 "/>
<rect x="89.25" y="102.92" transform="matrix(-1 -1.224647e-16 1.224647e-16 -1 191.2456 209.0361)" class="st7" width="12.75" height="3.21"/>
<rect x="86.1" y="102.92" transform="matrix(-1 -1.224647e-16 1.224647e-16 -1 175.3465 209.0361)" class="st8" width="3.14" height="3.21"/>
<polygon class="st11" points="63.54,138.95 85.62,138.95 86.1,141.17 63.54,141.17 "/>
<path class="st6" d="M40.97,87.83c0,0,10.48,31.81,0.48,51.12h22.08V85.61L51.56,55.96L31.45,79.77L40.97,87.83z"/>
<path class="st10" d="M86.1,87.83c0,0-10.48,31.81-0.48,51.12H63.54V85.61l11.97-29.65l20.11,23.81L86.1,87.83z"/>
</svg>
