<?xml version="1.0" encoding="utf-8"?>
<!-- Generator: Adobe Illustrator 24.0.3, SVG Export Plug-In . SVG Version: 6.00 Build 0)  -->
<svg version="1.1" id="Layer_1" xmlns="http://www.w3.org/2000/svg" xmlns:xlink="http://www.w3.org/1999/xlink" x="0px" y="0px"
	 viewBox="0 0 179.2 179.2" style="enable-background:new 0 0 179.2 179.2;" xml:space="preserve">
<style type="text/css">
	.st0{fill:#E87660;}
	.st1{fill:#FFFFFF;}
</style>
<path class="st0" d="M172.1,95.5l7.1-5.9l-7.1-5.9l6.2-6.9l-7.9-4.8l5.2-7.7l-8.5-3.7l4-8.3l-8.9-2.4l2.8-8.8l-9.2-1.1l1.5-9.1
	l-9.2,0.2l0.2-9.2l-9.1,1.5l-1.1-9.2l-8.8,2.8l-2.4-8.9l-8.3,4l-3.7-8.5l-7.7,5.2l-4.8-7.9l-6.9,6.2L89.6,0l-5.9,7.1l-6.9-6.2
	L72,8.8l-7.7-5.2l-3.7,8.5l-8.3-4L50,17l-8.8-2.8l-1.1,9.2l-9.1-1.5l0.2,9.2l-9.3-0.2l1.5,9.1l-9.2,1.1L17,50l-8.9,2.4l4,8.3
	l-8.5,3.7L8.8,72l-7.9,4.8l6.2,6.9L0,89.6l7.1,5.9l-6.2,6.9l7.9,4.8l-5.2,7.7l8.5,3.7l-4,8.3l8.9,2.4l-2.8,8.8l9.2,1.1l-1.5,9.1
	l9.3-0.2l-0.2,9.2l9.1-1.5l1.1,9.2l8.8-2.8l2.4,8.9l8.3-4l3.7,8.5l7.7-5.2l4.8,7.9l6.9-6.2l5.9,7.1l5.9-7.1l6.9,6.2l4.8-7.9l7.7,5.2
	l3.7-8.5l8.3,4l2.4-8.9l8.8,2.8l1.1-9.2l9.1,1.5l-0.2-9.2l9.2,0.2l-1.5-9.1l9.2-1.1l-2.8-8.8l8.9-2.4l-4-8.3l8.5-3.7l-5.2-7.7
	l7.9-4.8L172.1,95.5z M89.6,159.5c-38.6,0-69.9-31.3-69.9-69.9C19.7,51,51,19.7,89.6,19.7c38.6,0,69.9,31.3,69.9,69.9
	C159.5,128.2,128.2,159.5,89.6,159.5z"/>
<path class="st1" d="M89.6,13.1c-42.2,0-76.5,34.3-76.5,76.5c0,42.2,34.3,76.5,76.5,76.5c42.2,0,76.5-34.3,76.5-76.5
	C166.1,47.4,131.8,13.1,89.6,13.1z M89.6,163.2c-40.6,0-73.6-33-73.6-73.6C16,49,49,16,89.6,16c40.6,0,73.6,33,73.6,73.6
	C163.2,130.2,130.2,163.2,89.6,163.2z"/>
<g>
	<path class="st0" d="M68.8,107.1c0,0.3-0.1,0.5-0.3,0.5c-0.8,0.1-1.5,0.3-1.9,0.6s-0.9,1.1-1.4,2.3L58,127.4
		c-0.1,0.2-0.2,0.2-0.4,0.2c-0.2,0-0.3-0.1-0.4-0.2l-6.4-16.8c-0.4-1-0.6-1.6-0.9-1.9s-0.5-0.5-0.9-0.7c-0.4-0.2-1-0.3-1.9-0.4
		c-0.1,0-0.1,0-0.2-0.1c-0.1-0.1-0.1-0.2-0.1-0.3c0-0.3,0.1-0.4,0.2-0.4c0.6,0,1.3,0,2.1,0.1c0.7,0.1,1.4,0.1,2,0.1s1.3,0,2.2-0.1
		c0.9-0.1,1.7-0.1,2.3-0.1c0.2,0,0.2,0.1,0.2,0.4c0,0.3,0,0.4-0.1,0.4c-0.8,0-1.4,0.2-1.8,0.3c-0.4,0.2-0.6,0.5-0.6,0.9
		c0,0.2,0.1,0.7,0.3,1.3l4.9,13.3l5.1-13c0.2-0.6,0.3-1,0.3-1.3c0-1-0.8-1.5-2.5-1.6c-0.1,0-0.2-0.1-0.2-0.4c0-0.3,0.1-0.4,0.3-0.4
		c0.4,0,1,0,1.7,0.1c0.8,0.1,1.5,0.1,2,0.1c0.4,0,1,0,1.6-0.1c0.7-0.1,1.2-0.1,1.7-0.1C68.7,106.8,68.8,106.9,68.8,107.1z"/>
	<path class="st0" d="M93.1,117.1c0,3.1-1,5.6-2.9,7.6c-1.9,2-4.5,3-7.6,3s-5.6-1-7.6-3c-1.9-2-2.9-4.5-2.9-7.6c0-3.1,1-5.7,2.9-7.7
		s4.5-3,7.6-3c3.1,0,5.6,1,7.6,3C92.2,111.4,93.1,114,93.1,117.1z M90,117.1c0-2.9-0.7-5.2-2-7.1c-1.4-1.8-3.1-2.7-5.3-2.7
		c-2.2,0-4,0.9-5.3,2.7c-1.3,1.8-2,4.2-2,7.1c0,2.9,0.7,5.2,2,7c1.3,1.8,3.1,2.7,5.3,2.7c2.2,0,4-0.9,5.3-2.7
		C89.3,122.3,90,120,90,117.1z"/>
	<path class="st0" d="M108.2,126.8c0,0.3-0.1,0.4-0.2,0.4c-0.6,0-1.4,0-2.3-0.1c-0.8-0.1-1.5-0.1-2.1-0.1s-1.3,0-2.1,0.1
		c-0.9,0.1-1.6,0.1-2.3,0.1c-0.2,0-0.2-0.1-0.2-0.4c0-0.2,0.1-0.4,0.2-0.4c1.1-0.1,1.9-0.4,2.3-0.7c0.4-0.3,0.6-0.9,0.6-1.8v-13.8
		c0-0.7-0.1-1.2-0.2-1.4c-0.2-0.3-0.5-0.5-0.9-0.7c-0.4-0.2-1-0.3-1.8-0.4c-0.2,0-0.2-0.1-0.2-0.4c0-0.3,0.1-0.4,0.2-0.4
		c0.6,0,1.4,0,2.3,0.1c0.8,0.1,1.5,0.1,2.1,0.1s1.3,0,2.1-0.1c0.9-0.1,1.6-0.1,2.3-0.1c0.2,0,0.2,0.1,0.2,0.4c0,0.3-0.1,0.4-0.2,0.4
		c-0.8,0.1-1.4,0.2-1.8,0.4s-0.7,0.4-0.9,0.7s-0.2,0.8-0.2,1.5v13.8c0,0.7,0.1,1.2,0.2,1.4c0.2,0.3,0.4,0.5,0.9,0.7
		c0.4,0.2,1,0.3,1.8,0.4C108.1,126.4,108.2,126.5,108.2,126.8z"/>
	<path class="st0" d="M134.9,117.1c0,3-1,5.4-2.9,7.3c-2,1.8-4.6,2.8-7.9,2.8c-0.4,0-1.3,0-2.5-0.1c-1.3,0-2.2-0.1-2.6-0.1
		c-1.8,0-3.5,0-5.1,0.1c-0.2,0-0.2-0.1-0.2-0.4c0-0.2,0.1-0.4,0.2-0.4c0.8-0.1,1.4-0.2,1.8-0.4c0.4-0.2,0.7-0.4,0.9-0.7
		c0.2-0.3,0.2-0.8,0.2-1.4v-13.8c0-0.7-0.1-1.2-0.2-1.4c-0.2-0.3-0.4-0.5-0.9-0.7c-0.4-0.2-1-0.3-1.8-0.4c-0.2,0-0.2-0.1-0.2-0.4
		c0-0.3,0.1-0.4,0.2-0.4c1.1,0.1,2.8,0.1,5.1,0.1c0.4,0,1.3,0,2.6,0c1.3,0,2.1,0,2.5,0c3.2,0,5.9,1,7.9,2.9
		C133.9,111.6,134.9,114.1,134.9,117.1z M131.8,117.1c0-2.7-0.7-4.9-2.2-6.6c-1.5-1.8-3.3-2.7-5.5-2.7h-0.1l-2.7,0.1
		c-1.1,0-1.7,0.6-1.7,1.7v14.9c0,1.1,0.6,1.7,1.7,1.7l2.7,0.1c2.2,0,4.1-0.9,5.6-2.6C131,121.9,131.8,119.7,131.8,117.1z"/>
</g>
<g>
	<path class="st0" d="M94.4,55.3l-1.7-1.5c0,0,0.5,5-1.9,7.7c0,0-2.9-2.5-2.5-7.7l-1.4,1.1c0,0-5.5,0.9-5.5,5.9l4.3,3.5
		c0,0,2.7-1.5,4.1-1.4l1.6,0c0,0,3.3,0.4,3.9,1.4l3.8-3.5C99,60.7,98.4,55,94.4,55.3z"/>
	<path class="st0" d="M81.3,60.7L76,72.9c1.7,5.4,7.3,6.1,7.3,6.1l3.4-11.2c0-1-1.1-3.6-1.1-3.6L81.3,60.7z"/>
	<path class="st0" d="M75,75.4l-1.6,3.1c0,0,2.3,5.3,9.5,5.8l-0.3-3.8C82.7,80.5,77.3,80,75,75.4z"/>
	<path class="st0" d="M95,64.3c0,0-1.1,2.6-1.1,3.6L97.4,79c0,0,5.6-0.7,7.3-6.1L99,60.7L95,64.3z"/>
	<path class="st0" d="M98,80.5l-0.3,3.8c7.2-0.5,9.5-5.8,9.5-5.8l-1.6-3.1C103.4,80,98,80.5,98,80.5z"/>
	<path class="st0" d="M90.1,79.1c-0.8,2.2-5.3,4.4-7.3,5.3c0.9,6.1,3.8,10.6,7.3,10.6c3.5,0,6.4-4.4,7.3-10.4c0-0.1,0-0.2,0-0.3
		C93.3,82.9,90.1,79.1,90.1,79.1z"/>
	<path class="st0" d="M91.2,77.9c0,0,4,4.3,6.4,4.7c0-0.6,0.1-1.3,0.1-2c0-5.1-1.4-9.6-3.6-12.2C94.1,68.6,93,75.9,91.2,77.9z"/>
	<path class="st0" d="M86.5,68c-2.4,2.4-4,7.2-4,12.6c0,0.7,0,1.3,0.1,2c9.4-3.5,9.8-14.9,9.8-14.9h-5.7
		C86.6,67.8,86.6,67.9,86.5,68z"/>
	<path class="st0" d="M91.1,40.7c0,0-11.4-0.5-5.8,9.6l-0.1,8.6h1.7v-7.2l0.9,0.4c0,0-1.5-2.7-0.5-4.8h7.5c0,0,0.3,3.5-1.4,4.9
		l1.2-0.4v7h1.6l0.4-9.2C96.4,49.6,102.3,40.9,91.1,40.7z"/>
	<path class="st0" d="M90.4,37.6c0,0-2.7,0.4-2,2.6c0,0,4,0.1,4.5,0C93,40.2,93.7,37.7,90.4,37.6z"/>
</g>
</svg>
