<?xml version="1.0" encoding="utf-8"?>
<!-- Generator: Adobe Illustrator 24.0.3, SVG Export Plug-In . SVG Version: 6.00 Build 0)  -->
<svg version="1.1" id="图层_1" xmlns="http://www.w3.org/2000/svg" xmlns:xlink="http://www.w3.org/1999/xlink" x="0px" y="0px"
	 viewBox="0 0 320 498.8" style="enable-background:new 0 0 320 498.8;" xml:space="preserve">
<style type="text/css">
	.st0{fill:#EF5350;}
	.st1{fill:#D32F2F;}
	.st2{fill:#3C4351;}
	.st3{fill:#1A1A1A;}
	.st4{fill:#7F7F7F;}
</style>
<path class="st0" d="M124.2,228.2c0,0,23.4-12.4,35.4-12h13.9c0,0,28.2,3.4,33,12l32.5-30.1c0,0-5.7-49.3-40.2-46.9L184,138.8
	c0,0,4.4,42.6-16.7,65.5c0,0-24.9-21.1-21.1-65.5l-12,9.1c0,0-47.4,7.7-46.9,50.2L124.2,228.2z"/>
<path class="st1" d="M41.4,302.4l45.9-104.3l36.8,30.1c0,0,9.4,22,9,30.6L104,354.5C104.1,354.5,55.8,348.8,41.4,302.4z"/>
<path class="st1" d="M33.3,323.5l-13.4,26.3c0,0,20.1,45.3,81.6,49.9l-2.3-32.5C99.1,367.1,52.9,362.8,33.3,323.5z"/>
<path class="st1" d="M287.4,302.4L239,198.1l-34.4,30.1c0,0-9.4,22-9,30.6l29.1,95.7C224.7,354.5,273,348.8,287.4,302.4z"/>
<path class="st1" d="M295.5,323.5l13.4,26.3c0,0-20.1,45.3-81.6,49.9l2.3-32.5C229.6,367.1,275.9,362.8,295.5,323.5z"/>
<path class="st2" d="M162.5,491.5c29.7,0,54.7-37.6,62.5-89c0.1-0.8,0.2-1.6,0.3-2.3c-35.3-12-62.8-44.4-62.8-44.4
	c-7.1,19-45.2,37.5-62.7,45.1C107.3,453.1,132.5,491.5,162.5,491.5z"/>
<path class="st0" d="M226.9,385.3c0.4-5.5,0.6-11.2,0.6-16.9c0-44-12.2-82.5-30.5-104.2c-0.2,1.3-10.1,64.1-25.3,80.6
	C171.7,344.8,205.6,381.4,226.9,385.3z"/>
<path class="st0" d="M182.3,258.2h-48.8c-0.7,0.6-1.3,1.2-2,1.9c-20.3,20.8-34,61.5-34,108.3c0,5.8,0.2,11.5,0.6,17.1
	C178.4,355.8,182.3,258.2,182.3,258.2z"/>
<path class="st3" d="M137.9,83.5h64c0,0,2.1,29.6-12.1,41.7l10.2-3.5V182h13.3l3.1-78.9c0,0,50.5-75.1-45.7-76.3
	c0,0-97.7-4.1-49.7,81.8l-1.3,73.3h15v-61.5l7.6,3.8C142.4,124.2,129.9,101.3,137.9,83.5z"/>
<path class="st1" d="M149,22.9c0,0,1.3,2.1,0,5.5h38c0,0-2.8-2.1,0-5.5H149z"/>
<path class="st3" d="M148.4,22.4c0,0,34.5,1.2,38.7,0c0,0,6.4-21.7-21.7-22.4C165.3,0,142.1,3.5,148.4,22.4z"/>
<ellipse class="st4" cx="162.5" cy="494.7" rx="45.5" ry="1.9"/>
</svg>
